<svg xmlns="http://www.w3.org/2000/svg" width="248.997" height="90" viewBox="0 0 248.997 90">
  <g id="グループ_3166" data-name="グループ 3166" transform="translate(-178.928 -310.256)">
    <g id="グループ_3153" data-name="グループ 3153" transform="translate(178.928 310.256)">
      <path id="パス_6216" data-name="パス 6216" d="M285.906,341.471a31.982,31.982,0,0,0-6.323-17.047l-2.513,8.714a26.525,26.525,0,0,1,2.259,8.816v.015c0,.015-.033.028-.03.043.01.185.008.374.015.562l.015,0a3.3,3.3,0,0,0,3.283,2.572,3.267,3.267,0,0,0,3.352-3.174A2.927,2.927,0,0,0,285.906,341.471Zm-69.588-3.8a27.773,27.773,0,0,0-10.788-2.165c-14.694,0-26.6,11.083-26.6,25s11.909,25,26.6,25l7.6.091a3.228,3.228,0,1,0,0-6.447c-.051,0-.1-.015-.15-.015H205.53c-10.994,0-19.939-8.244-19.939-18.658S194.537,341.7,205.53,341.7a20.814,20.814,0,0,1,8.081,1.68l7.774,3.3,1.494-7.916c2.419-12.849,14.231-22.17,28.03-22.17a29.645,29.645,0,0,1,7.022.839l8.74-3.586a36.5,36.5,0,0,0-15.8-3.558C233.6,310.292,219.251,322.109,216.318,337.672Z" transform="translate(-178.928 -310.292)" fill="#fff"/>
      <g id="グループ_3151" data-name="グループ 3151" transform="translate(57.797 3.435)">
        <path id="パス_6217" data-name="パス 6217" d="M207.038,340.457l-.06-6.779,27.849-22.034-7.4,25.656L212.4,334.649Z" transform="translate(-193.491 -311.644)" fill="#fff"/>
        <path id="パス_6218" data-name="パス 6218" d="M210.28,331.566l-8.609-3.235,40.193-16.489Z" transform="translate(-201.671 -311.338)" fill="#fff"/>
      </g>
      <g id="グループ_3152" data-name="グループ 3152" transform="translate(38.991 42.246)">
        <path id="パス_6219" data-name="パス 6219" d="M210.795,357.18V330.09a2.93,2.93,0,0,1,.958-2.216,3.387,3.387,0,0,1,4.62,0,3.036,3.036,0,0,1,.991,2.216v27.09a3.022,3.022,0,0,1-.991,2.214,3.388,3.388,0,0,1-4.62,0A2.918,2.918,0,0,1,210.795,357.18Z" transform="translate(-168.803 -326.842)" fill="#fff"/>
        <path id="パス_6220" data-name="パス 6220" d="M236.459,357.208l-11.316-25.746a3.343,3.343,0,0,1-.313-1.4,2.856,2.856,0,0,1,.252-1.189,3.19,3.19,0,0,1,.691-1,3.081,3.081,0,0,1,1.037-.671,3.5,3.5,0,0,1,3.111.282,3.283,3.283,0,0,1,1.288,1.535l8.834,19.972,8.831-20.033a3.534,3.534,0,0,1,1.085-1.443,3.177,3.177,0,0,1,2-.551,3.426,3.426,0,0,1,1.288.239,3.107,3.107,0,0,1,1.037.671,3.416,3.416,0,0,1,.706,1,2.757,2.757,0,0,1,.267,1.189,3.3,3.3,0,0,1-.346,1.4l-18.071,41.049a3.54,3.54,0,0,1-1.258,1.5,3.4,3.4,0,0,1-4.2-.315,2.955,2.955,0,0,1-.93-2.229,3.155,3.155,0,0,1,.315-1.372Z" transform="translate(-147.171 -326.842)" fill="#fff"/>
        <path id="パス_6221" data-name="パス 6221" d="M235.025,329.755a3.3,3.3,0,0,0-3.733-2.7c-.028,0-.051.015-.079.018a.535.535,0,0,0-.089,0,19.24,19.24,0,0,0-3.408.8,18.629,18.629,0,0,0-5.177,2.765v-.6a2.927,2.927,0,0,0-.966-2.208,3.271,3.271,0,0,0-2.333-.917,3.307,3.307,0,0,0-2.366.917,2.921,2.921,0,0,0-.968,2.208v27.421a2.93,2.93,0,0,0,.968,2.211,3.3,3.3,0,0,0,2.366.917,3.26,3.26,0,0,0,2.333-.917,2.936,2.936,0,0,0,.966-2.211V343.75a9.859,9.859,0,0,1,.874-4.122,10.617,10.617,0,0,1,2.381-3.349,11.351,11.351,0,0,1,3.543-2.259,10.265,10.265,0,0,1,2.79-.735v0a.285.285,0,0,0,.046,0A3.177,3.177,0,0,0,235.025,329.755Z" transform="translate(-160.924 -326.916)" fill="#fff"/>
        <path id="パス_6222" data-name="パス 6222" d="M222.9,357.208v-.592a18.273,18.273,0,0,1-5.123,2.734,17.948,17.948,0,0,1-5.911.953,17.422,17.422,0,0,1-12.445-4.882,16.057,16.057,0,0,1,0-23.575,18.306,18.306,0,0,1,24.892,0,15.629,15.629,0,0,1,5.156,11.784v13.578a2.89,2.89,0,0,1-.958,2.186,3.226,3.226,0,0,1-2.31.91,3.266,3.266,0,0,1-2.343-.91A2.89,2.89,0,0,1,222.9,357.208Zm-11.034-24.023a11.23,11.23,0,0,0-7.825,3.077,10.593,10.593,0,0,0-2.341,3.319,9.9,9.9,0,0,0,0,8.1A10.593,10.593,0,0,0,204.045,351a11.394,11.394,0,0,0,15.637-.015,10.74,10.74,0,0,0,2.358-3.319,9.857,9.857,0,0,0,0-8.071,10.717,10.717,0,0,0-2.358-3.314,11.212,11.212,0,0,0-7.812-3.1Z" transform="translate(-194.271 -326.842)" fill="#fff"/>
      </g>
    </g>
    <text id="_1on1" data-name="1on1" transform="translate(337.411 338.242)" fill="#fff" font-size="29" font-family="DINAlternate-Bold, DIN Alternate" font-weight="700"><tspan x="0" y="0">1on1</tspan></text>
    <text id="CLOUD" transform="translate(337.925 382.39)" fill="#fff" font-size="30" font-family="DINAlternate-Bold, DIN Alternate" font-weight="700"><tspan x="0" y="0">CLOUD</tspan></text>
  </g>
</svg>
