<svg id="グループ_2470" data-name="グループ 2470" xmlns="http://www.w3.org/2000/svg" width="65" height="40" viewBox="0 0 65 40">
  <path id="パス_2032" data-name="パス 2032" d="M226.5,263.65a14.222,14.222,0,0,0-2.812-7.58l-1.118,3.875a11.8,11.8,0,0,1,1,3.921v.007c0,.007-.015.011-.014.019,0,.083,0,.166.007.25h.007a1.47,1.47,0,0,0,1.46,1.144,1.454,1.454,0,0,0,1.491-1.412A1.329,1.329,0,0,0,226.5,263.65Zm-30.947-1.688a12.352,12.352,0,0,0-4.8-.963c-6.535,0-11.831,4.929-11.831,11.119s5.3,11.118,11.831,11.118l3.379.04a1.435,1.435,0,1,0,0-2.866c-.023,0-.044-.007-.067-.007h-3.313a8.34,8.34,0,1,1,0-16.647,9.255,9.255,0,0,1,3.594.747l3.457,1.467.665-3.52a12.475,12.475,0,0,1,12.466-9.861,13.184,13.184,0,0,1,3.123.374l3.887-1.6a16.249,16.249,0,0,0-7.026-1.581C203.241,249.785,196.86,255.04,195.556,261.961Z" transform="translate(-178.928 -249.785)" fill="#5d4d92"/>
  <g id="グループ_2013" data-name="グループ 2013" transform="translate(25.481 1.528)">
    <path id="パス_2033" data-name="パス 2033" d="M207,263.95l-.027-3.015,12.385-9.8-3.289,11.41-6.685-1.179Z" transform="translate(-200.98 -251.137)" fill="#5d4d92"/>
    <path id="パス_2034" data-name="パス 2034" d="M205.5,260.107l-3.828-1.439,17.875-7.333Z" transform="translate(-201.671 -251.111)" fill="#5d4d92"/>
  </g>
  <g id="グループ_2014" data-name="グループ 2014" transform="translate(16.933 18.764)">
    <path id="パス_2035" data-name="パス 2035" d="M210.795,279.895V267.847a1.308,1.308,0,0,1,.426-.987,1.51,1.51,0,0,1,2.055,0,1.355,1.355,0,0,1,.441.987v12.048a1.346,1.346,0,0,1-.441.984,1.507,1.507,0,0,1-2.055,0A1.3,1.3,0,0,1,210.795,279.895Z" transform="translate(-192.12 -266.403)" fill="#5d4d92"/>
    <path id="パス_2036" data-name="パス 2036" d="M230,279.907l-5.033-11.45a1.487,1.487,0,0,1-.139-.624,1.269,1.269,0,0,1,.112-.529,1.436,1.436,0,0,1,.307-.444,1.366,1.366,0,0,1,.461-.3,1.517,1.517,0,0,1,.573-.106,1.533,1.533,0,0,1,.81.231,1.468,1.468,0,0,1,.573.684l3.928,8.882,3.927-8.909a1.571,1.571,0,0,1,.483-.642,1.413,1.413,0,0,1,.888-.245,1.525,1.525,0,0,1,.573.106,1.377,1.377,0,0,1,.461.3,1.538,1.538,0,0,1,.314.444,1.225,1.225,0,0,1,.119.529,1.473,1.473,0,0,1-.154.624l-8.037,18.256a1.581,1.581,0,0,1-.559.669,1.515,1.515,0,0,1-1.866-.14,1.316,1.316,0,0,1-.414-.991,1.4,1.4,0,0,1,.14-.61Z" transform="translate(-190.293 -266.403)" fill="#5d4d92"/>
    <path id="パス_2037" data-name="パス 2037" d="M224.409,267.67a1.468,1.468,0,0,0-1.66-1.2.193.193,0,0,1-.035.008.253.253,0,0,0-.04,0,8.553,8.553,0,0,0-1.516.357,8.256,8.256,0,0,0-2.3,1.23V267.8a1.306,1.306,0,0,0-.429-.983,1.458,1.458,0,0,0-1.037-.407,1.474,1.474,0,0,0-1.052.407,1.3,1.3,0,0,0-.431.983v12.194a1.3,1.3,0,0,0,.431.983,1.466,1.466,0,0,0,1.052.408,1.45,1.45,0,0,0,1.037-.408,1.306,1.306,0,0,0,.429-.983v-6.1a4.384,4.384,0,0,1,.389-1.833,4.728,4.728,0,0,1,1.059-1.491,5.062,5.062,0,0,1,1.575-1,4.563,4.563,0,0,1,1.241-.327h0a.122.122,0,0,0,.02,0A1.413,1.413,0,0,0,224.409,267.67Z" transform="translate(-191.455 -266.409)" fill="#5d4d92"/>
    <path id="パス_2038" data-name="パス 2038" d="M207,279.907v-.263a8.157,8.157,0,0,1-2.278,1.216,7.982,7.982,0,0,1-2.629.424,7.752,7.752,0,0,1-5.534-2.171,7.141,7.141,0,0,1,0-10.485,8.141,8.141,0,0,1,11.07,0,6.951,6.951,0,0,1,2.293,5.241v6.038a1.285,1.285,0,0,1-.426.972,1.434,1.434,0,0,1-1.027.4,1.452,1.452,0,0,1-1.042-.4A1.285,1.285,0,0,1,207,279.907ZM202.1,269.222a5.017,5.017,0,0,0-1.928.37,4.966,4.966,0,0,0-1.552,1,4.709,4.709,0,0,0-1.041,1.476,4.4,4.4,0,0,0,0,3.6,4.714,4.714,0,0,0,1.041,1.477,5.067,5.067,0,0,0,6.954-.007,4.773,4.773,0,0,0,1.049-1.476,4.383,4.383,0,0,0,0-3.589,4.765,4.765,0,0,0-1.049-1.474,4.993,4.993,0,0,0-3.474-1.378Z" transform="translate(-194.271 -266.403)" fill="#5d4d92"/>
  </g>
</svg>
