<svg xmlns="http://www.w3.org/2000/svg" width="101" height="35" viewBox="0 0 101 35">
  <g id="グループ_3154" data-name="グループ 3154" transform="translate(-178.928 -310.256)">
    <g id="グループ_3153" data-name="グループ 3153" transform="translate(178.928 310.256)">
      <path id="パス_6216" data-name="パス 6216" d="M220.531,322.417a12.437,12.437,0,0,0-2.459-6.629l-.977,3.389a10.315,10.315,0,0,1,.879,3.428v.006c0,.006-.013.011-.012.017,0,.072,0,.145.006.218h.006a1.285,1.285,0,0,0,1.277,1,1.271,1.271,0,0,0,1.3-1.234A1.139,1.139,0,0,0,220.531,322.417Zm-27.062-1.477a10.8,10.8,0,0,0-4.2-.842c-5.714,0-10.345,4.31-10.345,9.723s4.631,9.723,10.345,9.723l2.955.036a1.255,1.255,0,1,0,0-2.507c-.02,0-.039-.006-.058-.006h-2.9a7.293,7.293,0,1,1,0-14.557,8.094,8.094,0,0,1,3.143.653l3.023,1.283.581-3.079a10.908,10.908,0,0,1,10.9-8.622,11.528,11.528,0,0,1,2.731.326l3.4-1.395a14.2,14.2,0,0,0-6.144-1.384A13.471,13.471,0,0,0,193.469,320.94Z" transform="translate(-178.928 -310.292)" fill="#5d4d92"/>
      <g id="グループ_3151" data-name="グループ 3151" transform="translate(22.477 1.336)">
        <path id="パス_6217" data-name="パス 6217" d="M207,322.849l-.023-2.636,10.83-8.569-2.876,9.978-5.845-1.031Z" transform="translate(-201.733 -311.644)" fill="#5d4d92"/>
        <path id="パス_6218" data-name="パス 6218" d="M205.019,319.513l-3.348-1.258,15.631-6.412Z" transform="translate(-201.671 -311.646)" fill="#5d4d92"/>
      </g>
      <g id="グループ_3152" data-name="グループ 3152" transform="translate(15.163 16.429)">
        <path id="パス_6219" data-name="パス 6219" d="M210.795,338.715V328.18a1.14,1.14,0,0,1,.373-.862,1.317,1.317,0,0,1,1.8,0,1.181,1.181,0,0,1,.385.862v10.535a1.175,1.175,0,0,1-.385.861,1.318,1.318,0,0,1-1.8,0A1.135,1.135,0,0,1,210.795,338.715Z" transform="translate(-194.464 -326.917)" fill="#5d4d92"/>
        <path id="パス_6220" data-name="パス 6220" d="M229.352,338.726l-4.4-10.012a1.3,1.3,0,0,1-.122-.546,1.111,1.111,0,0,1,.1-.463,1.24,1.24,0,0,1,.269-.387,1.2,1.2,0,0,1,.4-.261,1.363,1.363,0,0,1,1.21.11,1.277,1.277,0,0,1,.5.6l3.435,7.767,3.434-7.791a1.374,1.374,0,0,1,.422-.561,1.236,1.236,0,0,1,.777-.214,1.332,1.332,0,0,1,.5.093,1.207,1.207,0,0,1,.4.261,1.328,1.328,0,0,1,.275.387,1.072,1.072,0,0,1,.1.463,1.285,1.285,0,0,1-.134.546L229.5,344.677a1.377,1.377,0,0,1-.489.585,1.321,1.321,0,0,1-1.632-.123,1.149,1.149,0,0,1-.362-.867,1.227,1.227,0,0,1,.123-.534Z" transform="translate(-194.629 -326.917)" fill="#5d4d92"/>
        <path id="パス_6221" data-name="パス 6221" d="M223.342,328.02a1.282,1.282,0,0,0-1.452-1.051c-.011,0-.02.006-.031.007a.209.209,0,0,0-.035,0,7.482,7.482,0,0,0-1.325.312,7.244,7.244,0,0,0-2.013,1.075v-.233a1.138,1.138,0,0,0-.376-.859,1.272,1.272,0,0,0-.907-.357,1.286,1.286,0,0,0-.92.357,1.136,1.136,0,0,0-.377.859V338.8a1.14,1.14,0,0,0,.377.86,1.282,1.282,0,0,0,.92.357,1.268,1.268,0,0,0,.907-.357,1.142,1.142,0,0,0,.376-.86v-5.333a3.834,3.834,0,0,1,.34-1.6,4.129,4.129,0,0,1,.926-1.3,4.414,4.414,0,0,1,1.378-.879,3.993,3.993,0,0,1,1.085-.286h.018A1.236,1.236,0,0,0,223.342,328.02Z" transform="translate(-194.524 -326.916)" fill="#5d4d92"/>
        <path id="パス_6222" data-name="パス 6222" d="M205.406,338.726v-.23a7.106,7.106,0,0,1-1.992,1.063,6.98,6.98,0,0,1-2.3.371,6.775,6.775,0,0,1-4.84-1.9,6.245,6.245,0,0,1,0-9.168,7.119,7.119,0,0,1,9.68,0,6.078,6.078,0,0,1,2.005,4.583v5.28a1.124,1.124,0,0,1-.373.85,1.255,1.255,0,0,1-.9.354,1.27,1.27,0,0,1-.911-.354A1.124,1.124,0,0,1,205.406,338.726Zm-4.291-9.342a4.367,4.367,0,0,0-3.043,1.2,4.119,4.119,0,0,0-.91,1.291,3.848,3.848,0,0,0,0,3.15,4.119,4.119,0,0,0,.91,1.291,4.431,4.431,0,0,0,6.081-.006,4.176,4.176,0,0,0,.917-1.291,3.833,3.833,0,0,0,0-3.139,4.167,4.167,0,0,0-.917-1.289,4.36,4.36,0,0,0-3.038-1.2Z" transform="translate(-194.271 -326.917)" fill="#5d4d92"/>
      </g>
    </g>
    <text id="_1on1" data-name="1on1" transform="translate(240.728 322.64)" fill="#5d4d92" font-size="13" font-family="DINAlternate-Bold, DIN Alternate" font-weight="700"><tspan x="0" y="0">1on1</tspan></text>
    <text id="CLOUD" transform="translate(240.928 339.419)" fill="#5d4d92" font-size="13" font-family="DINAlternate-Bold, DIN Alternate" font-weight="700"><tspan x="0" y="0">CLOUD</tspan></text>
  </g>
</svg>
