<svg xmlns="http://www.w3.org/2000/svg" xmlns:xlink="http://www.w3.org/1999/xlink" width="54" height="54" viewBox="0 0 54 54">
  <defs>
    <clipPath id="clip-path">
      <rect id="長方形_522" data-name="長方形 522" width="48" height="42" transform="translate(0 0)" fill="#009f86"/>
    </clipPath>
  </defs>
  <g id="function6" transform="translate(-1057 -2619)">
    <g id="グループ_2713" data-name="グループ 2713" transform="translate(768.517 2174.613)">
      <g id="グループ_2712" data-name="グループ 2712" transform="translate(291.483 449.387)">
        <g id="グループ_2711" data-name="グループ 2711" transform="translate(0 0)" clip-path="url(#clip-path)">
          <path id="パス_4574" data-name="パス 4574" d="M310.7,449.4a6.571,6.571,0,0,1,4.88,2.132h14.341a9.588,9.588,0,0,1,9.79,9.054l.006.274v.9h-.015a1.779,1.779,0,0,1,.015.22v20.21a9.571,9.571,0,0,1-9.8,9.328H301.273a9.57,9.57,0,0,1-9.793-9.328V458.731a9.57,9.57,0,0,1,9.793-9.328Zm0,3.731h-9.431a5.741,5.741,0,0,0-5.875,5.6v23.458a5.741,5.741,0,0,0,5.875,5.6h28.652a5.742,5.742,0,0,0,5.878-5.6V463.843h-14.8A6.437,6.437,0,0,1,315.035,460l-.1-.241-1.858-5.019a2.518,2.518,0,0,0-2.377-1.6Zm1.538,23.992a1.919,1.919,0,0,1,1.957,1.788,1.9,1.9,0,0,1-1.794,1.936l-.163.006h-8.954a1.916,1.916,0,0,1-1.954-1.788,1.9,1.9,0,0,1,1.794-1.936l.16-.006Zm17.683-21.86h-12.5l1.2,3.245a2.5,2.5,0,0,0,2.187,1.6l.187.006h14.742a5.774,5.774,0,0,0-5.579-4.841Zm0,0" transform="translate(-291.489 -449.356)" fill="#009f86"/>
        </g>
      </g>
    </g>
    <rect id="長方形_612" data-name="長方形 612" width="54" height="54" transform="translate(1057 2619)" fill="none"/>
  </g>
</svg>
