<svg xmlns="http://www.w3.org/2000/svg" width="54" height="54" viewBox="0 0 54 54">
  <g id="function4" transform="translate(-1021 -2838)">
    <g id="グループ_2714" data-name="グループ 2714" transform="translate(701.118 2430.013)">
      <path id="パス_4575" data-name="パス 4575" d="M353.946,439.965l1.162-1.15v12.028a1.612,1.612,0,0,0,3.223,0V438.815l1.165,1.15a1.63,1.63,0,0,0,2.281,0,1.576,1.576,0,0,0,0-2.247l-3.914-3.864-.059-.053-.025-.022-.037-.028-.034-.031-.025-.019-.042-.031-.023-.014-.048-.025-.022-.017-.045-.022-.025-.017-.042-.019-.028-.014-.042-.017-.034-.014-.037-.014-.039-.017-.031-.008-.045-.017-.025-.006-.051-.014-.025-.006-.048-.008-.025-.005-.051-.011-.031,0-.051-.006-.039-.005-.04-.006h-.161l-.042.006-.04.005-.051.006-.031,0-.048.011-.025.005-.051.008-.025.006-.051.014-.025.006-.045.017-.031.008-.039.017-.034.014-.037.014-.039.017-.031.014-.039.019-.025.017-.045.022-.025.017-.045.025-.025.014-.039.031-.025.019-.037.031-.034.028-.025.022-.062.053-3.911,3.864a1.576,1.576,0,0,0,0,2.252,1.659,1.659,0,0,0,2.3-.006Zm-5.216-22.527a1.6,1.6,0,0,0-1.613-1.592H327.808a1.591,1.591,0,1,0,0,3.182h19.314a1.6,1.6,0,0,0,1.607-1.59Zm0,9.55a1.6,1.6,0,0,0-1.613-1.59H327.808a1.591,1.591,0,1,0,0,3.182h19.314a1.6,1.6,0,0,0,1.607-1.593Zm-20.922,7.96a1.591,1.591,0,1,0,0,3.182h9.657a1.591,1.591,0,1,0,0-3.182Zm0,0" transform="translate(4.132 5.554)" fill="#009f86"/>
      <path id="パス_4576" data-name="パス 4576" d="M347.776,451.587H328.643a1.6,1.6,0,0,1-1.584-1.609V417.814a1.6,1.6,0,0,1,1.584-1.606h25.55a1.6,1.6,0,0,1,1.587,1.606V433.9a1.586,1.586,0,1,0,3.171,0V416.2a3.2,3.2,0,0,0-3.177-3.215H327.059a3.2,3.2,0,0,0-3.177,3.215v35.385a3.193,3.193,0,0,0,3.177,3.215h20.723a1.608,1.608,0,0,0-.006-3.215Zm6.334-.791a1.6,1.6,0,0,0-1.593,1.609v3.215a1.591,1.591,0,1,0,3.182,0v-3.215a1.6,1.6,0,0,0-1.59-1.609Zm0,0" transform="translate(0 0)" fill="#009f86"/>
      <path id="パス_4577" data-name="パス 4577" d="M334.611,426.9a1.592,1.592,0,0,0,1.593-1.593v-1.59a1.591,1.591,0,1,0-3.182,0v1.59a1.593,1.593,0,0,0,1.59,1.593Zm14.33,6.412V436.5a1.591,1.591,0,1,0,3.182,0v-3.182a1.591,1.591,0,0,0-3.182,0Zm0,0" transform="translate(16.759 16.762)" fill="#009f86"/>
    </g>
    <rect id="長方形_611" data-name="長方形 611" width="54" height="54" transform="translate(1021 2838)" fill="none"/>
  </g>
</svg>
