<svg xmlns="http://www.w3.org/2000/svg" width="54" height="54" viewBox="0 0 54 54">
  <g id="function2" transform="translate(-1056 -2309)">
    <g id="グループ_2710" data-name="グループ 2710" transform="translate(-460.418 -359.057)">
      <path id="パス_4564" data-name="パス 4564" d="M1524,2684.658h9.937a2.584,2.584,0,0,0,2.581-2.581v-9.937a2.584,2.584,0,0,0-2.581-2.581H1524a2.584,2.584,0,0,0-2.581,2.581v9.938A2.584,2.584,0,0,0,1524,2684.658Zm-.258-12.519a.258.258,0,0,1,.258-.258h9.937a.258.258,0,0,1,.258.258v9.938a.259.259,0,0,1-.258.258H1524a.259.259,0,0,1-.258-.258Z" fill="#009f86" stroke="#009f86" stroke-width="0.6"/>
      <path id="パス_4565" data-name="パス 4565" d="M1581.546,2747.109a1.161,1.161,0,0,0,1.643,0l4.525-4.525a1.161,1.161,0,0,0-1.643-1.643l-3.7,3.7-.658-.658a1.161,1.161,0,1,0-1.643,1.642Z" transform="translate(-54.922 -66.917)" fill="#009f86" stroke="#009f86" stroke-width="0.6"/>
      <path id="パス_4566" data-name="パス 4566" d="M1524,2985.1h9.937a2.584,2.584,0,0,0,2.581-2.581v-9.937a2.584,2.584,0,0,0-2.581-2.581H1524a2.584,2.584,0,0,0-2.581,2.581v9.938A2.584,2.584,0,0,0,1524,2985.1Zm-.258-12.518a.259.259,0,0,1,.258-.259h9.937a.259.259,0,0,1,.258.259v9.938a.259.259,0,0,1-.258.258H1524a.259.259,0,0,1-.258-.258Z" transform="translate(0 -282.993)" fill="#009f86" stroke="#009f86" stroke-width="0.6"/>
      <path id="パス_4567" data-name="パス 4567" d="M1524,3285.542h9.937a2.584,2.584,0,0,0,2.581-2.582v-9.938a2.584,2.584,0,0,0-2.581-2.581H1524a2.584,2.584,0,0,0-2.581,2.581v9.938A2.584,2.584,0,0,0,1524,3285.542Zm-.258-12.52a.258.258,0,0,1,.258-.258h9.937a.258.258,0,0,1,.258.258v9.938a.259.259,0,0,1-.258.258H1524a.259.259,0,0,1-.258-.258Z" transform="translate(0 -565.987)" fill="#009f86" stroke="#009f86" stroke-width="0.6"/>
      <path id="パス_4568" data-name="パス 4568" d="M1861.689,2729.741H1838.38a1.162,1.162,0,1,0,0,2.323h23.309a1.162,1.162,0,1,0,0-2.323Z" transform="translate(-297.433 -56.687)" fill="#009f86" stroke="#009f86" stroke-width="0.6"/>
      <path id="パス_4569" data-name="パス 4569" d="M1838.38,2831.7h14.668a1.161,1.161,0,0,0,0-2.323H1838.38a1.161,1.161,0,1,0,0,2.323Z" transform="translate(-297.441 -150.535)" fill="#009f86" stroke="#009f86" stroke-width="0.6"/>
      <path id="パス_4570" data-name="パス 4570" d="M1861.689,3030.183H1838.38a1.161,1.161,0,1,0,0,2.323h23.309a1.161,1.161,0,1,0,0-2.323Z" transform="translate(-297.433 -339.681)" fill="#009f86" stroke="#009f86" stroke-width="0.6"/>
      <path id="パス_4571" data-name="パス 4571" d="M1838.38,3132.14h14.668a1.162,1.162,0,0,0,0-2.323H1838.38a1.162,1.162,0,1,0,0,2.323Z" transform="translate(-297.441 -433.528)" fill="#009f86" stroke="#009f86" stroke-width="0.6"/>
      <path id="パス_4572" data-name="パス 4572" d="M1838.38,3332.948h23.309a1.161,1.161,0,1,0,0-2.323H1838.38a1.161,1.161,0,1,0,0,2.323Z" transform="translate(-297.433 -622.675)" fill="#009f86" stroke="#009f86" stroke-width="0.6"/>
      <path id="パス_4573" data-name="パス 4573" d="M1838.38,3432.582h14.668a1.161,1.161,0,0,0,0-2.323H1838.38a1.161,1.161,0,1,0,0,2.323Z" transform="translate(-297.441 -716.522)" fill="#009f86" stroke="#009f86" stroke-width="0.6"/>
    </g>
    <rect id="長方形_610" data-name="長方形 610" width="54" height="54" transform="translate(1056 2309)" fill="none"/>
  </g>
</svg>
