<svg xmlns="http://www.w3.org/2000/svg" width="223" height="223" viewBox="0 0 223 223">
  <g id="グループ_2048" data-name="グループ 2048" transform="translate(-708.274 -331.4)">
    <g id="長方形_445" data-name="長方形 445" transform="translate(710.274 333.4)" fill="#009f86" stroke="#009f86" stroke-miterlimit="10" stroke-width="2">
      <rect width="219" height="219" rx="8" stroke="none"/>
      <rect x="-1" y="-1" width="221" height="221" rx="9" fill="none"/>
    </g>
    <g id="グループ_2047" data-name="グループ 2047" transform="translate(735.539 352.257)">
      <path id="パス_2049" data-name="パス 2049" d="M841.687,375.733a36.663,36.663,0,0,0-7.244-19.526l-2.88,9.981a30.437,30.437,0,0,1,2.586,10.1v.017c0,.017-.037.031-.034.048.012.214.012.43.02.647l.014,0a3.789,3.789,0,0,0,3.763,2.945,3.741,3.741,0,0,0,3.837-3.637A3.5,3.5,0,0,0,841.687,375.733Zm-79.715-4.35a31.81,31.81,0,0,0-12.356-2.481c-16.831,0-30.472,12.7-30.472,28.638s13.641,28.638,30.472,28.638l8.7.105a3.7,3.7,0,1,0,0-7.383c-.057,0-.111-.017-.171-.017h-8.531c-12.593,0-22.839-9.445-22.839-21.374S737.023,376,749.616,376a23.847,23.847,0,0,1,9.257,1.923l8.9,3.78,1.712-9.069c2.772-14.718,16.3-25.4,32.107-25.4a33.893,33.893,0,0,1,8.044.963l10.012-4.11a41.832,41.832,0,0,0-18.1-4.073C781.769,340.02,765.334,353.558,761.972,371.384Z" transform="translate(-719.144 -340.02)" fill="#fff"/>
      <g id="グループ_2045" data-name="グループ 2045" transform="translate(66.205 3.935)">
        <path id="パス_2050" data-name="パス 2050" d="M747.879,374.406l-.069-7.766,31.9-25.239-8.473,29.389-17.218-3.037Z" transform="translate(-732.362 -341.401)" fill="#fff"/>
        <path id="パス_2051" data-name="パス 2051" d="M752.248,364.2l-9.861-3.705L788.427,341.6Z" transform="translate(-742.387 -341.026)" fill="#fff"/>
      </g>
      <g id="グループ_2046" data-name="グループ 2046" transform="translate(44.663 48.391)">
        <path id="パス_2052" data-name="パス 2052" d="M751.712,391.672v-31.03a3.353,3.353,0,0,1,1.1-2.541,3.88,3.88,0,0,1,5.292,0,3.483,3.483,0,0,1,1.134,2.541v31.03a3.466,3.466,0,0,1-1.134,2.535,3.88,3.88,0,0,1-5.292,0A3.337,3.337,0,0,1,751.712,391.672Z" transform="translate(-703.608 -356.918)" fill="#fff"/>
        <path id="パス_2053" data-name="パス 2053" d="M779.374,391.7l-12.96-29.492a3.817,3.817,0,0,1-.359-1.6,3.3,3.3,0,0,1,.288-1.364,3.733,3.733,0,0,1,.792-1.142,3.477,3.477,0,0,1,1.188-.766,4,4,0,0,1,3.563.322,3.745,3.745,0,0,1,1.475,1.757l10.117,22.878L793.6,359.345a4.07,4.07,0,0,1,1.242-1.652,3.627,3.627,0,0,1,2.29-.635,3.952,3.952,0,0,1,1.476.276,3.537,3.537,0,0,1,1.188.766,3.941,3.941,0,0,1,.809,1.142,3.139,3.139,0,0,1,.3,1.364,3.812,3.812,0,0,1-.393,1.6l-20.7,47.021a4.073,4.073,0,0,1-1.441,1.726,3.9,3.9,0,0,1-4.805-.365,3.384,3.384,0,0,1-1.068-2.552,3.6,3.6,0,0,1,.362-1.569Z" transform="translate(-677.097 -356.918)" fill="#fff"/>
        <path id="パス_2054" data-name="パス 2054" d="M778.836,360.259a3.775,3.775,0,0,0-4.276-3.093.841.841,0,0,1-.091.02.438.438,0,0,0-.1.006,21.936,21.936,0,0,0-3.9.92,21.34,21.34,0,0,0-5.93,3.167v-.686a3.364,3.364,0,0,0-1.105-2.532,3.972,3.972,0,0,0-5.383,0,3.35,3.35,0,0,0-1.111,2.532V392a3.354,3.354,0,0,0,1.111,2.532,3.972,3.972,0,0,0,5.383,0A3.369,3.369,0,0,0,764.535,392V376.293a11.306,11.306,0,0,1,1-4.723,12.171,12.171,0,0,1,2.726-3.837,13.031,13.031,0,0,1,4.059-2.586,11.834,11.834,0,0,1,3.2-.843v0a.306.306,0,0,0,.051,0A3.64,3.64,0,0,0,778.836,360.259Z" transform="translate(-693.954 -357.009)" fill="#fff"/>
        <path id="パス_2055" data-name="パス 2055" d="M767.623,391.7v-.678a21.026,21.026,0,0,1-5.871,3.133,20.6,20.6,0,0,1-6.768,1.091,19.966,19.966,0,0,1-14.259-5.594,18.394,18.394,0,0,1,0-27,20.966,20.966,0,0,1,28.515,0,17.91,17.91,0,0,1,5.908,13.5V391.7a3.326,3.326,0,0,1-1.1,2.5,3.93,3.93,0,0,1-5.332,0A3.316,3.316,0,0,1,767.623,391.7Zm-12.638-27.518a12.911,12.911,0,0,0-4.967.951,12.773,12.773,0,0,0-4,2.575,12.161,12.161,0,0,0-2.683,3.8,11.344,11.344,0,0,0,0,9.274,12.173,12.173,0,0,0,2.683,3.805,13.048,13.048,0,0,0,17.911-.02,12.264,12.264,0,0,0,2.7-3.8,11.276,11.276,0,0,0,0-9.246,12.219,12.219,0,0,0-2.7-3.8,12.863,12.863,0,0,0-8.947-3.546Z" transform="translate(-734.824 -356.918)" fill="#fff"/>
      </g>
    </g>
    <text id="EDUCATION" transform="translate(745.275 488.72)" fill="#fff" font-size="30" font-family="DINAlternate-Bold, DIN Alternate" font-weight="700"><tspan x="0" y="0">EDUCATION</tspan></text>
    <text id="CLOUD" transform="translate(775.274 524.516)" fill="#fff" font-size="30" font-family="DINAlternate-Bold, DIN Alternate" font-weight="700"><tspan x="0" y="0">CLOUD</tspan></text>
  </g>
</svg>
