<svg xmlns="http://www.w3.org/2000/svg" width="119" height="35.004" viewBox="0 0 119 35.004">
  <g id="グループ_2565" data-name="グループ 2565" transform="translate(-178.928 -189.522)">
    <g id="グループ_2564" data-name="グループ 2564" transform="translate(178.928 191.09)">
      <path id="パス_3480" data-name="パス 3480" d="M218.673,202.766a11.878,11.878,0,0,0-2.349-6.332l-.934,3.237a9.86,9.86,0,0,1,.839,3.276v0c0,.007-.012.01-.011.017,0,.069,0,.139.006.209h.006a1.228,1.228,0,0,0,1.22.955,1.215,1.215,0,0,0,1.245-1.18A1.1,1.1,0,0,0,218.673,202.766Zm-25.853-1.411a10.3,10.3,0,0,0-4.008-.805c-5.459,0-9.883,4.118-9.883,9.288s4.424,9.288,9.883,9.288l2.823.034a1.2,1.2,0,1,0,0-2.394c-.019,0-.037-.006-.056-.006h-2.767a6.968,6.968,0,1,1,0-13.907,7.731,7.731,0,0,1,3,.623L194.7,204.7l.555-2.941a10.421,10.421,0,0,1,10.414-8.238,11.014,11.014,0,0,1,2.609.313l3.247-1.333a13.575,13.575,0,0,0-5.87-1.321A12.869,12.869,0,0,0,192.819,201.355Z" transform="translate(-178.928 -191.183)" fill="#008f73"/>
      <g id="グループ_2562" data-name="グループ 2562" transform="translate(21.473 1.276)">
        <path id="パス_3481" data-name="パス 3481" d="M207,203.239l-.022-2.519,10.346-8.186-2.748,9.532-5.584-.985Z" transform="translate(-201.968 -192.534)" fill="#008f73"/>
        <path id="パス_3482" data-name="パス 3482" d="M204.869,200.061l-3.2-1.2,14.933-6.126Z" transform="translate(-201.671 -192.545)" fill="#008f73"/>
      </g>
      <g id="グループ_2563" data-name="グループ 2563" transform="translate(14.486 15.694)">
        <path id="パス_3483" data-name="パス 3483" d="M210.795,219.08V209.016a1.091,1.091,0,0,1,.356-.824,1.259,1.259,0,0,1,1.716,0,1.13,1.13,0,0,1,.368.824V219.08a1.125,1.125,0,0,1-.368.823,1.259,1.259,0,0,1-1.716,0A1.086,1.086,0,0,1,210.795,219.08Z" transform="translate(-195.194 -207.809)" fill="#008f73"/>
        <path id="パス_3484" data-name="パス 3484" d="M229.15,219.091l-4.2-9.565a1.245,1.245,0,0,1-.116-.521,1.068,1.068,0,0,1,.093-.443,1.207,1.207,0,0,1,.257-.37,1.141,1.141,0,0,1,.385-.248,1.266,1.266,0,0,1,.479-.09,1.282,1.282,0,0,1,.677.194,1.222,1.222,0,0,1,.479.571l3.282,7.419,3.281-7.442a1.307,1.307,0,0,1,.4-.536,1.18,1.18,0,0,1,.742-.206,1.273,1.273,0,0,1,.479.09,1.151,1.151,0,0,1,.385.248,1.294,1.294,0,0,1,.262.37,1.032,1.032,0,0,1,.1.443,1.234,1.234,0,0,1-.128.521l-6.714,15.251a1.327,1.327,0,0,1-.467.559,1.264,1.264,0,0,1-1.559-.118,1.1,1.1,0,0,1-.346-.827,1.169,1.169,0,0,1,.117-.51Z" transform="translate(-195.978 -207.809)" fill="#008f73"/>
        <path id="パス_3485" data-name="パス 3485" d="M223.01,208.861a1.225,1.225,0,0,0-1.387-1c-.01,0-.019.006-.029.007a.137.137,0,0,0-.033,0,7.233,7.233,0,0,0-1.266.3,6.925,6.925,0,0,0-1.923,1.028v-.223a1.089,1.089,0,0,0-.359-.821,1.215,1.215,0,0,0-.867-.341,1.228,1.228,0,0,0-.879.341,1.087,1.087,0,0,0-.36.821v10.187a1.089,1.089,0,0,0,.36.821,1.224,1.224,0,0,0,.879.34,1.21,1.21,0,0,0,.867-.34,1.091,1.091,0,0,0,.359-.821v-5.095a3.663,3.663,0,0,1,.325-1.531,3.949,3.949,0,0,1,.885-1.245,4.232,4.232,0,0,1,1.316-.838,3.815,3.815,0,0,1,1.037-.273v0a.051.051,0,0,0,.017,0A1.18,1.18,0,0,0,223.01,208.861Z" transform="translate(-195.48 -207.806)" fill="#008f73"/>
        <path id="パス_3486" data-name="パス 3486" d="M204.909,219.091v-.22a6.839,6.839,0,0,1-1.9,1.016,6.669,6.669,0,0,1-2.2.354,6.473,6.473,0,0,1-4.623-1.815,5.965,5.965,0,0,1,0-8.758,6.8,6.8,0,0,1,9.248,0,5.807,5.807,0,0,1,1.916,4.378v5.045a1.075,1.075,0,0,1-.356.812,1.2,1.2,0,0,1-.858.338,1.213,1.213,0,0,1-.871-.338A1.075,1.075,0,0,1,204.909,219.091Zm-4.1-8.926a4.191,4.191,0,0,0-1.611.309,4.149,4.149,0,0,0-1.3.836,3.935,3.935,0,0,0-.87,1.233,3.674,3.674,0,0,0,0,3.008,3.939,3.939,0,0,0,.87,1.234,4.231,4.231,0,0,0,5.809-.007,3.985,3.985,0,0,0,.876-1.232,3.662,3.662,0,0,0,0-3,3.985,3.985,0,0,0-.876-1.232,4.176,4.176,0,0,0-2.9-1.15Z" transform="translate(-194.271 -207.809)" fill="#008f73"/>
      </g>
    </g>
    <text id="EDUCATION" transform="translate(237.928 200.522)" fill="#008f73" font-size="12" font-family="DINAlternate-Bold, DIN Alternate" font-weight="700"><tspan x="0" y="0">EDUCATION</tspan></text>
    <text id="CLOUD" transform="translate(238.255 217.088)" fill="#008f73" font-size="12" font-family="DINAlternate-Bold, DIN Alternate" font-weight="700"><tspan x="0" y="0">CLOUD</tspan></text>
  </g>
</svg>
