<svg xmlns="http://www.w3.org/2000/svg" width="214" height="214" viewBox="0 0 214 214">
  <g id="グループ_2048" data-name="グループ 2048" transform="translate(-708.274 -331.4)">
    <g id="長方形_445" data-name="長方形 445" transform="translate(710.274 333.4)" fill="#e44468" stroke="#e44468" stroke-miterlimit="10" stroke-width="2">
      <rect width="210" height="210" rx="8" stroke="none"/>
      <rect x="-1" y="-1" width="212" height="212" rx="9" fill="none"/>
    </g>
    <g id="グループ_2047" data-name="グループ 2047" transform="translate(734.444 351.44)">
      <path id="パス_2049" data-name="パス 2049" d="M836.376,374.185a35.074,35.074,0,0,0-6.93-18.68l-2.755,9.548a29.118,29.118,0,0,1,2.474,9.663v.016c0,.016-.036.03-.033.046.011.2.011.412.019.619l.014,0a3.625,3.625,0,0,0,3.6,2.818,3.579,3.579,0,0,0,3.67-3.48A3.347,3.347,0,0,0,836.376,374.185Zm-76.26-4.161a30.432,30.432,0,0,0-11.821-2.373c-16.1,0-29.151,12.145-29.151,27.4s13.05,27.4,29.151,27.4l8.325.1a3.536,3.536,0,1,0,0-7.063c-.054,0-.106-.016-.164-.016H748.3c-12.047,0-21.849-9.036-21.849-20.448s9.8-20.573,21.849-20.573a22.813,22.813,0,0,1,8.856,1.839l8.518,3.616,1.638-8.676c2.651-14.08,15.595-24.3,30.716-24.3a32.424,32.424,0,0,1,7.695.921l9.578-3.932a40.018,40.018,0,0,0-17.311-3.9C779.054,340.02,763.332,352.972,760.116,370.024Z" transform="translate(-719.144 -340.02)" fill="#fff"/>
      <g id="グループ_2045" data-name="グループ 2045" transform="translate(63.335 3.764)">
        <path id="パス_2050" data-name="パス 2050" d="M747.876,372.975l-.066-7.429L778.328,341.4l-8.106,28.115-16.472-2.905Z" transform="translate(-733.031 -341.401)" fill="#fff"/>
        <path id="パス_2051" data-name="パス 2051" d="M751.821,363.218l-9.434-3.545L786.432,341.6Z" transform="translate(-742.387 -341.051)" fill="#fff"/>
      </g>
      <g id="グループ_2046" data-name="グループ 2046" transform="translate(42.727 46.294)">
        <path id="パス_2052" data-name="パス 2052" d="M751.712,390.171V360.486a3.208,3.208,0,0,1,1.049-2.431,3.711,3.711,0,0,1,5.063,0,3.333,3.333,0,0,1,1.085,2.431v29.685a3.316,3.316,0,0,1-1.085,2.425,3.711,3.711,0,0,1-5.063,0A3.193,3.193,0,0,1,751.712,390.171Z" transform="translate(-705.693 -356.924)" fill="#fff"/>
        <path id="パス_2053" data-name="パス 2053" d="M778.8,390.2l-12.4-28.214a3.651,3.651,0,0,1-.343-1.534,3.154,3.154,0,0,1,.275-1.305,3.571,3.571,0,0,1,.758-1.093,3.326,3.326,0,0,1,1.136-.733,3.823,3.823,0,0,1,3.409.308,3.582,3.582,0,0,1,1.411,1.681l9.679,21.887,9.679-21.952a3.893,3.893,0,0,1,1.188-1.58,3.47,3.47,0,0,1,2.191-.608,3.781,3.781,0,0,1,1.412.264,3.384,3.384,0,0,1,1.136.733,3.771,3.771,0,0,1,.774,1.093,3,3,0,0,1,.292,1.305,3.646,3.646,0,0,1-.376,1.534l-19.8,44.983a3.9,3.9,0,0,1-1.379,1.651,3.727,3.727,0,0,1-4.6-.349,3.237,3.237,0,0,1-1.022-2.442,3.443,3.443,0,0,1,.346-1.5Z" transform="translate(-680.953 -356.924)" fill="#fff"/>
        <path id="パス_2054" data-name="パス 2054" d="M777.887,360.118a3.612,3.612,0,0,0-4.09-2.959.8.8,0,0,1-.087.019.419.419,0,0,0-.1.005,20.983,20.983,0,0,0-3.733.88,20.415,20.415,0,0,0-5.673,3.03v-.657a3.218,3.218,0,0,0-1.057-2.422,3.8,3.8,0,0,0-5.15,0,3.2,3.2,0,0,0-1.063,2.422v30.048A3.209,3.209,0,0,0,758,392.907a3.8,3.8,0,0,0,5.15,0,3.223,3.223,0,0,0,1.057-2.422V375.457a10.815,10.815,0,0,1,.959-4.518,11.644,11.644,0,0,1,2.608-3.671,12.466,12.466,0,0,1,3.883-2.474,11.322,11.322,0,0,1,3.057-.807v0a.3.3,0,0,0,.049,0A3.482,3.482,0,0,0,777.887,360.118Z" transform="translate(-696.684 -357.009)" fill="#fff"/>
        <path id="パス_2055" data-name="パス 2055" d="M766.2,390.2v-.649a20.115,20.115,0,0,1-5.616,3,19.7,19.7,0,0,1-6.474,1.044,19.1,19.1,0,0,1-13.641-5.352,17.6,17.6,0,0,1,0-25.832,20.057,20.057,0,0,1,27.279,0,17.134,17.134,0,0,1,5.652,12.913V390.2a3.182,3.182,0,0,1-1.049,2.4,3.76,3.76,0,0,1-5.1,0A3.172,3.172,0,0,1,766.2,390.2Zm-12.091-26.326a12.352,12.352,0,0,0-4.752.91,12.22,12.22,0,0,0-3.823,2.463,11.634,11.634,0,0,0-2.567,3.638,10.853,10.853,0,0,0,0,8.872,11.646,11.646,0,0,0,2.567,3.641,12.483,12.483,0,0,0,17.134-.019,11.732,11.732,0,0,0,2.583-3.635,10.787,10.787,0,0,0,0-8.845,11.69,11.69,0,0,0-2.583-3.632,12.306,12.306,0,0,0-8.559-3.392Z" transform="translate(-734.824 -356.924)" fill="#fff"/>
      </g>
    </g>
    <text id="ENGAGEMENT" transform="translate(727.494 481.201)" fill="#fff" font-size="28" font-family="DINAlternate-Bold, DIN Alternate" font-weight="700"><tspan x="0" y="0">ENGAGEMENT</tspan></text>
    <text id="CLOUD" transform="translate(772.457 515.447)" fill="#fff" font-size="28" font-family="DINAlternate-Bold, DIN Alternate" font-weight="700"><tspan x="0" y="0">CLOUD</tspan></text>
  </g>
</svg>
