<svg xmlns="http://www.w3.org/2000/svg" xmlns:xlink="http://www.w3.org/1999/xlink" width="54" height="54" viewBox="0 0 54 54">
  <defs>
    <clipPath id="clip-path">
      <rect id="長方形_600" data-name="長方形 600" width="54" height="54" transform="translate(374 2741)" fill="none"/>
    </clipPath>
  </defs>
  <g id="function4" transform="translate(-374 -2741)" clip-path="url(#clip-path)">
    <path id="function4-2" data-name="function4" d="M139.041,583.154a3.524,3.524,0,0,1,3.18,1.98l5.8,11.788L161,598.811a3.554,3.554,0,0,1,1.965,6.058l-9.392,9.175L155.792,627a3.54,3.54,0,0,1-5.142,3.743l-11.609-6.115-11.609,6.115A3.545,3.545,0,0,1,122.29,627l2.215-12.951-9.392-9.175a3.554,3.554,0,0,1,1.965-6.058l12.978-1.889,5.8-11.787A3.524,3.524,0,0,1,139.041,583.154Zm20.118,19.606L147.1,601a3.554,3.554,0,0,1-2.661-1.941l-5.393-10.951-5.392,10.949A3.555,3.555,0,0,1,130.987,601h-.007l-12.058,1.755,8.723,8.522a3.546,3.546,0,0,1,1.021,3.145l-2.058,12.033,10.782-5.68a3.534,3.534,0,0,1,3.3,0l10.778,5.677-2.058-12.035a3.546,3.546,0,0,1,1.021-3.143Z" transform="translate(261.959 2160.846)" fill="#E44468"/>
  </g>
</svg>
