<svg xmlns="http://www.w3.org/2000/svg" width="54" height="54" viewBox="0 0 54 54">
  <g id="function8" transform="translate(-1060 -2774)">
    <g id="グループ_2031" data-name="グループ 2031" transform="translate(502.134 2744.811)">
      <path id="パス_2041" data-name="パス 2041" d="M562.35,44.178l4.238-1.514,4.44,2.22,7.366-6.155,3.834,2.523,5.045-3.027" transform="translate(4.964 5.979)" fill="none" stroke="#e44468" stroke-linecap="round" stroke-linejoin="round" stroke-width="4"/>
      <path id="パス_2042" data-name="パス 2042" d="M580.86,63.787c-.531.645-.732.863-2.174,2.383a4.472,4.472,0,0,1-1.889,1.451,2.34,2.34,0,0,1-.555.066,2.3,2.3,0,0,1-1.574-.621s-5.244-4.116-6.545-5.891c-.75-1.022-1.067-2.812-.2-3.739a2.99,2.99,0,0,1,3.742-.279c1.079.944,4.257,3.859,4.257,3.859a16.54,16.54,0,0,1,3.619-5.133,5,5,0,0,1,3.322-1.361,7.518,7.518,0,1,1,5.993,0,8.676,8.676,0,0,1,5.687,8.14v5.025" transform="translate(15.323 9.502)" fill="none" stroke="#e44468" stroke-linecap="round" stroke-linejoin="round" stroke-width="4"/>
      <line id="線_53" data-name="線 53" x1="5.794" y1="10.225" transform="translate(577.454 55.873)" fill="none" stroke="#e44468" stroke-linecap="round" stroke-linejoin="round" stroke-width="4"/>
      <path id="パス_2043" data-name="パス 2043" d="M603.419,45.969V35.19H559.866v31.47h19.411" transform="translate(0 0)" fill="none" stroke="#e44468" stroke-linecap="round" stroke-linejoin="round" stroke-width="4"/>
    </g>
    <rect id="長方形_600" data-name="長方形 600" width="54" height="54" transform="translate(1060 2774)" fill="none"/>
  </g>
</svg>
