<svg xmlns="http://www.w3.org/2000/svg" width="54" height="54" viewBox="0 0 54 54">
  <g id="グループ_2569" data-name="グループ 2569" transform="translate(-731 -2618)">
    <rect id="長方形_599" data-name="長方形 599" width="54" height="54" transform="translate(731 2618)" fill="none"/>
    <g id="グループ_2032" data-name="グループ 2032" transform="translate(479.295 2157.589)">
      <path id="パス_2044" data-name="パス 2044" d="M301.658,466.411h-45.9a3.945,3.945,0,0,0-2.862,1.206,4.239,4.239,0,0,0-1.188,2.955v33.639a4.156,4.156,0,0,0,4.05,4.2h45.9a3.967,3.967,0,0,0,2.862-1.206,4.242,4.242,0,0,0,1.185-2.955V470.581a4.154,4.154,0,0,0-4.047-4.17Zm-46.575,17.5h7.332v7h-7.332Zm10.7-14h24.765v35H265.787Zm28.137,14h8.4v7h-8.4Zm8.4-11.2v7.7h-8.4v-10.5h5.733a2.744,2.744,0,0,1,2.67,2.8Zm-44.58-2.8h4.662v10.5h-7.332v-7.7a2.754,2.754,0,0,1,2.67-2.8Zm-2.664,32.2v-7.7h7.332v10.5h-4.662a2.75,2.75,0,0,1-2.67-2.8Zm44.583,2.8H293.93v-10.5h8.4v7.7a2.746,2.746,0,0,1-2.661,2.8Zm0,0" transform="translate(0 0)" fill="#e44468"/>
      <path id="パス_2045" data-name="パス 2045" d="M269.7,476.13l-9.005-4.687c-.843-.417-1.481,0-1.481.945v10.568a.967.967,0,0,0,1.52.945l7.656-3.952,1.319-.7c1.61-.843,1.646-2.243-.009-3.116Zm0,0" transform="translate(15.019 9.743)" fill="#e44468"/>
    </g>
  </g>
</svg>
