<svg xmlns="http://www.w3.org/2000/svg" xmlns:xlink="http://www.w3.org/1999/xlink" width="54" height="54" viewBox="0 0 54 54">
  <defs>
    <clipPath id="clip-path">
      <rect id="長方形_601" data-name="長方形 601" width="54" height="54" transform="translate(704 2585)" fill="none"/>
    </clipPath>
  </defs>
  <g id="function2" transform="translate(-704 -2585)" clip-path="url(#clip-path)">
    <g id="function2-2" data-name="function2" transform="translate(601.058 2101.674)">
      <g id="グループ_1720" data-name="グループ 1720" transform="translate(105.442 487.826)">
        <path id="パス_898" data-name="パス 898" d="M124.69,485.826a22.765,22.765,0,0,1,14.915,5.348,18.635,18.635,0,0,1,4.614,5.911,16.55,16.55,0,0,1,1.717,7.343,17.309,17.309,0,0,1-5.98,13.185,20.5,20.5,0,0,1-6.871,3.926,27.069,27.069,0,0,1-8.859,1.408H124.1a4.962,4.962,0,0,0-1.229.656c-.695.452-1.469,1.035-2.29,1.652-2.266,1.7-4.223,3.177-6.006,3.177a3.024,3.024,0,0,1-2.718-1.664,5.261,5.261,0,0,1-.54-1.745,21.5,21.5,0,0,1-.119-3.356c.011-.755.022-1.469-.015-2.079a4.666,4.666,0,0,0-.114-.874,17.706,17.706,0,0,1-7.631-14.285,16.55,16.55,0,0,1,1.717-7.343,18.634,18.634,0,0,1,4.614-5.911A22.768,22.768,0,0,1,124.69,485.826Zm-.463,33.122a23.089,23.089,0,0,0,7.552-1.188,16.523,16.523,0,0,0,5.541-3.153,13.362,13.362,0,0,0,4.617-10.178c0-8.052-7.737-14.6-17.246-14.6s-17.248,6.551-17.248,14.6a13.8,13.8,0,0,0,6.164,11.18c1.669,1.189,1.634,3.583,1.6,6.117-.012.773-.022,1.5.017,2.129.006.093.013.179.02.257.161-.09.352-.205.579-.352.721-.466,1.556-1.094,2.363-1.7,2.564-1.929,4.22-3.111,5.868-3.111h.178Z" transform="translate(-105.442 -487.826)" fill="#E44468"/>
        <path id="パス_899" data-name="パス 899" d="M135.512,527.141c-1.692,0-3.443-1.52-5.583-3.378-.73-.633-1.484-1.288-2.141-1.786a6.486,6.486,0,0,0-1.08-.705,21.083,21.083,0,0,1-7.343.139c-.286-.03-.578-.061-.877-.091a2,2,0,1,1,.4-3.98c.306.031.605.062.9.093a16.815,16.815,0,0,0,6.28-.118c1.99-.475,3.974,1.247,6.485,3.427.615.534,1.2,1.044,1.742,1.474-.043-.307-.09-.606-.129-.853a20.229,20.229,0,0,1-.305-2.736,5.3,5.3,0,0,1,.17-1.511,3.025,3.025,0,0,1,1.147-1.693A12.137,12.137,0,0,0,140.6,505.6a10.066,10.066,0,0,0-2.811-7.6,2,2,0,0,1,2.89-2.765,13.518,13.518,0,0,1,3.04,4.811,16.123,16.123,0,0,1-5.863,18.38,16.737,16.737,0,0,0,.261,2.325,17.9,17.9,0,0,1,.3,2.967c-.047,2.335-1.339,3.076-2.106,3.31A2.736,2.736,0,0,1,135.512,527.141Z" transform="translate(-93.6 -480.139)" fill="#E44468"/>
      </g>
      <g id="グループ_1718" data-name="グループ 1718" transform="translate(115.749 503.379)">
        <circle id="楕円形_13" data-name="楕円形 13" cx="1.875" cy="1.875" r="1.875" fill="#E44468"/>
        <circle id="楕円形_14" data-name="楕円形 14" cx="1.875" cy="1.875" r="1.875" transform="translate(7.149)" fill="#E44468"/>
        <circle id="楕円形_15" data-name="楕円形 15" cx="1.875" cy="1.875" r="1.875" transform="translate(14.298)" fill="#E44468"/>
      </g>
    </g>
  </g>
</svg>
