<svg xmlns="http://www.w3.org/2000/svg" width="133" height="35.004" viewBox="0 0 133 35.004">
  <g id="グループ_2016" data-name="グループ 2016" transform="translate(-178.928 -248.125)">
    <g id="グループ_2015" data-name="グループ 2015" transform="translate(178.928 249.693)">
      <path id="パス_2032" data-name="パス 2032" d="M218.685,261.371a11.885,11.885,0,0,0-2.35-6.334l-.934,3.238a9.857,9.857,0,0,1,.84,3.276v.006c0,.006-.012.009-.011.016,0,.069,0,.139.006.209h.006a1.228,1.228,0,0,0,1.22.956,1.215,1.215,0,0,0,1.246-1.18A1.112,1.112,0,0,0,218.685,261.371Zm-25.862-1.411a10.322,10.322,0,0,0-4.009-.8c-5.461,0-9.886,4.119-9.886,9.291s4.426,9.291,9.886,9.291l2.824.033a1.2,1.2,0,1,0,0-2.4c-.019,0-.037-.006-.056-.006h-2.768a6.97,6.97,0,1,1,0-13.912,7.734,7.734,0,0,1,3,.624l2.889,1.226.555-2.942a10.425,10.425,0,0,1,10.417-8.24,11.017,11.017,0,0,1,2.609.313l3.248-1.334a13.579,13.579,0,0,0-5.872-1.321A12.873,12.873,0,0,0,192.824,259.96Z" transform="translate(-178.928 -249.785)" fill="#e44468"/>
      <g id="グループ_2013" data-name="グループ 2013" transform="translate(21.479 1.277)">
        <path id="パス_2033" data-name="パス 2033" d="M207,261.845l-.022-2.519,10.35-8.188-2.749,9.535-5.586-.985Z" transform="translate(-201.966 -251.137)" fill="#e44468"/>
        <path id="パス_2034" data-name="パス 2034" d="M204.87,258.665l-3.2-1.2,14.937-6.128Z" transform="translate(-201.671 -251.148)" fill="#e44468"/>
      </g>
      <g id="グループ_2014" data-name="グループ 2014" transform="translate(14.491 15.69)">
        <path id="パス_2035" data-name="パス 2035" d="M210.795,277.686V267.619a1.093,1.093,0,0,1,.356-.825,1.262,1.262,0,0,1,1.717,0,1.132,1.132,0,0,1,.368.825v10.068a1.125,1.125,0,0,1-.368.823,1.259,1.259,0,0,1-1.717,0A1.086,1.086,0,0,1,210.795,277.686Z" transform="translate(-195.189 -266.412)" fill="#e44468"/>
        <path id="パス_2036" data-name="パス 2036" d="M229.152,277.7l-4.206-9.568a1.242,1.242,0,0,1-.116-.521,1.061,1.061,0,0,1,.094-.442,1.2,1.2,0,0,1,.257-.371,1.141,1.141,0,0,1,.385-.248,1.268,1.268,0,0,1,.479-.089,1.281,1.281,0,0,1,.677.193,1.227,1.227,0,0,1,.479.571l3.283,7.422,3.282-7.445a1.313,1.313,0,0,1,.4-.536,1.18,1.18,0,0,1,.742-.2,1.274,1.274,0,0,1,.479.089,1.151,1.151,0,0,1,.385.248,1.285,1.285,0,0,1,.263.371,1.024,1.024,0,0,1,.1.442,1.231,1.231,0,0,1-.128.521l-6.716,15.256a1.321,1.321,0,0,1-.467.559,1.266,1.266,0,0,1-1.559-.117,1.1,1.1,0,0,1-.346-.828,1.17,1.17,0,0,1,.117-.51Z" transform="translate(-195.969 -266.412)" fill="#e44468"/>
        <path id="パス_2037" data-name="パス 2037" d="M223.012,267.463a1.226,1.226,0,0,0-1.387-1,.163.163,0,0,1-.029.007.214.214,0,0,0-.033,0,7.149,7.149,0,0,0-1.267.3,6.9,6.9,0,0,0-1.924,1.028v-.223a1.091,1.091,0,0,0-.359-.822,1.219,1.219,0,0,0-.867-.34,1.232,1.232,0,0,0-.879.34,1.089,1.089,0,0,0-.36.822v10.19a1.089,1.089,0,0,0,.36.822,1.225,1.225,0,0,0,.879.341,1.212,1.212,0,0,0,.867-.341,1.091,1.091,0,0,0,.359-.822v-5.1a3.664,3.664,0,0,1,.325-1.532,3.951,3.951,0,0,1,.885-1.246,4.23,4.23,0,0,1,1.317-.839,3.813,3.813,0,0,1,1.037-.273h.017A1.181,1.181,0,0,0,223.012,267.463Z" transform="translate(-195.473 -266.409)" fill="#e44468"/>
        <path id="パス_2038" data-name="パス 2038" d="M204.912,277.7v-.22a6.816,6.816,0,0,1-1.9,1.016,6.671,6.671,0,0,1-2.2.354,6.478,6.478,0,0,1-4.625-1.814,5.968,5.968,0,0,1,0-8.762,6.8,6.8,0,0,1,9.251,0,5.808,5.808,0,0,1,1.916,4.379V277.7a1.074,1.074,0,0,1-.356.812,1.2,1.2,0,0,1-.859.338,1.213,1.213,0,0,1-.871-.338A1.074,1.074,0,0,1,204.912,277.7Zm-4.1-8.929a4.193,4.193,0,0,0-1.611.309,4.15,4.15,0,0,0-1.3.836,3.936,3.936,0,0,0-.87,1.233,3.675,3.675,0,0,0,0,3.009,3.94,3.94,0,0,0,.87,1.234,4.234,4.234,0,0,0,5.811-.006,3.989,3.989,0,0,0,.876-1.233,3.663,3.663,0,0,0,0-3,3.982,3.982,0,0,0-.876-1.232,4.172,4.172,0,0,0-2.9-1.151Z" transform="translate(-194.271 -266.412)" fill="#e44468"/>
      </g>
    </g>
    <text id="ENGAGEMENT" transform="translate(237.928 259.125)" fill="#e44468" font-size="12" font-family="DINAlternate-Bold, DIN Alternate" font-weight="700"><tspan x="0" y="0">ENGAGEMENT</tspan></text>
    <text id="CLOUD" transform="translate(238.272 275.853)" fill="#e44468" font-size="12" font-family="DINAlternate-Bold, DIN Alternate" font-weight="700"><tspan x="0" y="0">CLOUD</tspan></text>
  </g>
</svg>
