<svg height="70" viewBox="0 0 193.052 70" width="193.052" xmlns="http://www.w3.org/2000/svg"><g fill="#fff"><path d="m251.294 569.323a22.217 22.217 0 0 0 -4.391-11.836l-1.746 6.051a18.41 18.41 0 0 1 1.568 6.122v.01c0 .012-.022.019-.021.031.009.129.007.259.012.39h.009a2.3 2.3 0 0 0 2.282 1.786 2.269 2.269 0 0 0 2.327-2.2 2.123 2.123 0 0 0 -.04-.354zm-48.326-2.636a19.249 19.249 0 0 0 -7.49-1.506c-10.2 0-18.473 7.7-18.473 17.362s8.27 17.362 18.473 17.362l5.275.064a2.241 2.241 0 1 0 0-4.477c-.034 0-.067-.01-.1-.01h-5.172c-7.634 0-13.845-5.727-13.845-12.958s6.211-13.037 13.845-13.037a14.438 14.438 0 0 1 5.612 1.166l5.4 2.291 1.039-5.5c1.679-8.924 9.882-15.4 19.466-15.4a20.558 20.558 0 0 1 4.875.584l6.07-2.492a25.361 25.361 0 0 0 -10.971-2.469c-12.002.006-21.965 8.212-24.004 19.02z" transform="translate(-177.005 -540.112)"/><path d="m205.874 569.07-.042-4.708 19.339-15.3-5.136 17.816-10.435-1.84z" transform="translate(-156.331 -539.116)"/><path d="m206.356 562.963-5.978-2.246 27.911-11.45z" transform="translate(-160.242 -538.97)"/><path d="m209.755 585.789v-18.812a2.041 2.041 0 0 1 .666-1.54 2.356 2.356 0 0 1 3.208 0 2.114 2.114 0 0 1 .689 1.54v18.811a2.1 2.1 0 0 1 -.689 1.539 2.351 2.351 0 0 1 -3.208 0 2.03 2.03 0 0 1 -.666-1.538z" transform="translate(-153.518 -527.882)"/><path d="m232.255 585.81-7.855-17.879a2.354 2.354 0 0 1 -.216-.974 2.016 2.016 0 0 1 .173-.828 2.273 2.273 0 0 1 .483-.692 2.126 2.126 0 0 1 .719-.464 2.353 2.353 0 0 1 .893-.167 2.4 2.4 0 0 1 1.267.361 2.285 2.285 0 0 1 .895 1.066l6.134 13.869 6.132-13.911a2.471 2.471 0 0 1 .754-1 2.208 2.208 0 0 1 1.387-.383 2.369 2.369 0 0 1 .895.167 2.161 2.161 0 0 1 .72.464 2.429 2.429 0 0 1 .491.692 1.922 1.922 0 0 1 .185.828 2.315 2.315 0 0 1 -.24.974l-12.549 28.506a2.463 2.463 0 0 1 -.874 1.044 2.361 2.361 0 0 1 -2.914-.22 2.054 2.054 0 0 1 -.646-1.547 2.164 2.164 0 0 1 .22-.951z" transform="translate(-143.174 -527.882)"/><path d="m228.285 566.728a2.288 2.288 0 0 0 -2.593-1.875c-.017 0-.034.01-.053.012a.254.254 0 0 0 -.062 0 13.307 13.307 0 0 0 -2.366.556 12.922 12.922 0 0 0 -3.6 1.92v-.416a2.036 2.036 0 0 0 -.671-1.535 2.274 2.274 0 0 0 -1.619-.637 2.3 2.3 0 0 0 -1.643.637 2.032 2.032 0 0 0 -.673 1.535v19.042a2.037 2.037 0 0 0 .673 1.535 2.288 2.288 0 0 0 1.643.637 2.26 2.26 0 0 0 1.619-.637 2.041 2.041 0 0 0 .671-1.535v-9.522a6.838 6.838 0 0 1 .608-2.864 7.371 7.371 0 0 1 1.652-2.327 7.886 7.886 0 0 1 2.461-1.568 7.155 7.155 0 0 1 1.939-.51.18.18 0 0 0 .031 0 2.206 2.206 0 0 0 1.983-2.448z" transform="translate(-149.751 -527.918)"/><path d="m212.656 585.81v-.41a12.723 12.723 0 0 1 -3.558 1.9 12.5 12.5 0 0 1 -4.1.661 12.106 12.106 0 0 1 -8.642-3.391 11.15 11.15 0 0 1 0-16.37 12.71 12.71 0 0 1 17.287 0 10.851 10.851 0 0 1 3.58 8.182v9.429a2.014 2.014 0 0 1 -.665 1.518 2.24 2.24 0 0 1 -1.606.632 2.263 2.263 0 0 1 -1.626-.632 2.01 2.01 0 0 1 -.67-1.519zm-7.662-16.684a7.8 7.8 0 0 0 -5.433 2.14 7.36 7.36 0 0 0 -1.626 2.3 6.874 6.874 0 0 0 0 5.622 7.368 7.368 0 0 0 1.626 2.306 7.909 7.909 0 0 0 10.858-.01 7.449 7.449 0 0 0 1.638-2.3 6.852 6.852 0 0 0 0-5.6 7.444 7.444 0 0 0 -1.638-2.3 7.8 7.8 0 0 0 -5.424-2.15z" transform="translate(-165.697 -527.882)"/><text font-family="Seravek-Medium, Seravek" font-size="25" font-weight="500" transform="translate(111.052 54.136)"><tspan x="0" y="0">Alumni</tspan></text><circle cx="112.704" cy="13.717" r="13.717"/><path d="m239.347 555.563 1.829 12.8 5.487-13.717z" transform="translate(-132.133 -535.13)"/></g><text fill="#00216a" font-family="Seravek-Medium, Seravek" font-size="14" font-weight="500" transform="translate(103.48 17.913)"><tspan x="0" y="0">for</tspan></text></svg>