<svg height="16" viewBox="0 0 16 16" width="16" xmlns="http://www.w3.org/2000/svg"><g fill="#0087ce" transform="translate(-394.498 -496.131)"><path d="m409.115 512.131h-13.234a1.383 1.383 0 0 1 -1.383-1.383v-13.234a1.382 1.382 0 0 1 1.383-1.383h6.274a.843.843 0 1 1 0 1.686h-5.971v12.629h12.628v-6.493a.843.843 0 0 1 1.686 0v6.8a1.382 1.382 0 0 1 -1.383 1.383z"/><path d="m767.7 758.989a1.115 1.115 0 0 1 -.785-.323l-3.464-3.436a1.115 1.115 0 0 1 .781-1.907 1.115 1.115 0 0 1 .785.324l2.629 2.608 5.7-6.377a1.115 1.115 0 0 1 1.664 1.486l-6.478 7.254a1.115 1.115 0 0 1 -.8.372z" transform="translate(-365.41 -251.166)"/></g></svg>