<svg height="70" viewBox="0 0 239.421 70" width="239.421" xmlns="http://www.w3.org/2000/svg"><g fill="#fff"><path d="m258.109 93.332a23.665 23.665 0 0 0 -4.68-12.616l-1.86 6.448a19.655 19.655 0 0 1 1.672 6.527v.009c0 .011-.024.019-.023.032.007.137.006.277.011.416h.011a2.446 2.446 0 0 0 2.43 1.9 2.419 2.419 0 0 0 2.481-2.349 2.211 2.211 0 0 0 -.042-.367zm-51.509-2.81a20.527 20.527 0 0 0 -7.985-1.6c-10.876 0-19.69 8.2-19.69 18.505s8.814 18.507 19.69 18.507l5.624.066a2.388 2.388 0 1 0 0-4.77c-.038 0-.073-.011-.111-.011h-5.513c-8.137 0-14.758-6.1-14.758-13.81s6.621-13.9 14.758-13.9a15.37 15.37 0 0 1 5.985 1.241l5.754 2.441 1.106-5.859c1.791-9.512 10.533-16.411 20.747-16.411a21.941 21.941 0 0 1 5.2.623l6.469-2.656a27.044 27.044 0 0 0 -11.694-2.632c-12.789 0-23.409 8.744-25.582 20.266z" transform="translate(-178.928 -66.867)"/><path d="m207.022 92.934-.044-5.018 20.613-16.308-5.475 18.992-11.125-1.962z" transform="translate(-154.217 -65.676)"/><path d="m208.043 86.4-6.372-2.394 29.749-12.2z" transform="translate(-158.892 -65.501)"/><path d="m210.795 109.291v-20.049a2.176 2.176 0 0 1 .705-1.642 2.513 2.513 0 0 1 3.42 0 2.255 2.255 0 0 1 .734 1.642v20.049a2.241 2.241 0 0 1 -.734 1.64 2.507 2.507 0 0 1 -3.42 0 2.164 2.164 0 0 1 -.705-1.64z" transform="translate(-150.854 -52.182)"/><path d="m233.437 109.313-8.376-19.056a2.481 2.481 0 0 1 -.231-1.038 2.129 2.129 0 0 1 .186-.882 2.4 2.4 0 0 1 .512-.737 2.274 2.274 0 0 1 .767-.495 2.523 2.523 0 0 1 .954-.177 2.553 2.553 0 0 1 1.349.384 2.436 2.436 0 0 1 .954 1.138l6.538 14.781 6.536-14.831a2.6 2.6 0 0 1 .8-1.068 2.352 2.352 0 0 1 1.478-.408 2.537 2.537 0 0 1 .954.177 2.294 2.294 0 0 1 .767.495 2.58 2.58 0 0 1 .523.737 2.055 2.055 0 0 1 .2.882 2.453 2.453 0 0 1 -.256 1.038l-13.376 30.383a2.643 2.643 0 0 1 -.931 1.114 2.519 2.519 0 0 1 -3.106-.235 2.183 2.183 0 0 1 -.688-1.648 2.329 2.329 0 0 1 .233-1.016z" transform="translate(-138.489 -52.182)"/><path d="m230.058 88.98a2.441 2.441 0 0 0 -2.763-2c-.021 0-.038.011-.058.013a.272.272 0 0 0 -.066 0 14.235 14.235 0 0 0 -2.522.594 13.738 13.738 0 0 0 -3.832 2.047v-.444a2.17 2.17 0 0 0 -.715-1.636 2.421 2.421 0 0 0 -1.727-.679 2.448 2.448 0 0 0 -1.751.679 2.166 2.166 0 0 0 -.717 1.636v20.3a2.169 2.169 0 0 0 .717 1.636 2.44 2.44 0 0 0 1.751.679 2.413 2.413 0 0 0 1.727-.679 2.173 2.173 0 0 0 .715-1.636v-10.15a7.3 7.3 0 0 1 .647-3.051 7.866 7.866 0 0 1 1.762-2.481 8.43 8.43 0 0 1 2.622-1.67 7.6 7.6 0 0 1 2.065-.544.1.1 0 0 0 .034 0 2.351 2.351 0 0 0 2.111-2.614z" transform="translate(-146.35 -52.225)"/><path d="m215.464 109.313v-.438a13.627 13.627 0 0 1 -3.792 2.024 13.286 13.286 0 0 1 -4.375.705 12.9 12.9 0 0 1 -9.211-3.613 11.885 11.885 0 0 1 0-17.45 13.55 13.55 0 0 1 18.424 0 11.568 11.568 0 0 1 3.816 8.722v10.05a2.139 2.139 0 0 1 -.709 1.618 2.387 2.387 0 0 1 -1.71.673 2.417 2.417 0 0 1 -1.734-.673 2.139 2.139 0 0 1 -.709-1.618zm-8.164-17.782a8.348 8.348 0 0 0 -3.209.615 8.265 8.265 0 0 0 -2.583 1.665 7.84 7.84 0 0 0 -1.732 2.457 7.319 7.319 0 0 0 0 5.993 7.848 7.848 0 0 0 1.732 2.458 8.433 8.433 0 0 0 11.574-.011 7.949 7.949 0 0 0 1.745-2.457 7.3 7.3 0 0 0 0-5.974 7.941 7.941 0 0 0 -1.745-2.455 8.32 8.32 0 0 0 -5.782-2.291z" transform="translate(-165.411 -52.182)"/><g font-family="DINAlternate-Bold, DIN Alternate" font-size="27" font-weight="700"><text transform="translate(118.421 25)"><tspan x="0" y="0">DIVERSITY</tspan></text><text transform="translate(119.072 59.647)"><tspan x="0" y="0">CLOUD</tspan></text></g></g></svg>