<svg height="70" viewBox="0 0 257.822 70" width="257.822" xmlns="http://www.w3.org/2000/svg"><g fill="#fff"><path d="m259.032 214.528a23.94 23.94 0 0 0 -4.734-12.763l-1.882 6.523a19.874 19.874 0 0 1 1.692 6.6v.01c0 .013-.025.021-.023.034.008.139.006.28.011.421h.011a2.474 2.474 0 0 0 2.459 1.926 2.448 2.448 0 0 0 2.51-2.379 2.213 2.213 0 0 0 -.044-.372zm-52.107-2.843a20.765 20.765 0 0 0 -8.078-1.623c-11 0-19.919 8.3-19.919 18.721s8.917 18.721 19.919 18.721l5.69.069a2.416 2.416 0 1 0 0-4.826c-.038 0-.074-.011-.112-.011h-5.577c-8.232 0-14.93-6.175-14.93-13.971s6.7-14.059 14.93-14.059a15.582 15.582 0 0 1 6.051 1.256l5.821 2.472 1.119-5.927c1.812-9.623 10.656-16.6 20.989-16.6a22.2 22.2 0 0 1 5.258.63l6.544-2.687a27.359 27.359 0 0 0 -11.83-2.662c-12.935-.005-23.679 8.843-25.875 20.497z" transform="translate(-178.928 -188.516)"/><path d="m207.023 214.109-.045-5.076 20.853-16.5-5.538 19.211-11.255-1.985z" transform="translate(-153.602 -187.296)"/><path d="m208.117 207.5-6.446-2.422 30.1-12.347z" transform="translate(-158.394 -187.117)"/><path d="m210.795 230.479v-20.279a2.2 2.2 0 0 1 .717-1.661 2.537 2.537 0 0 1 3.459 0 2.278 2.278 0 0 1 .742 1.661v20.283a2.268 2.268 0 0 1 -.742 1.659 2.537 2.537 0 0 1 -3.459 0 2.189 2.189 0 0 1 -.717-1.663z" transform="translate(-150.156 -173.52)"/><path d="m233.538 230.5-8.474-19.278a2.509 2.509 0 0 1 -.234-1.05 2.153 2.153 0 0 1 .188-.892 2.432 2.432 0 0 1 .518-.746 2.3 2.3 0 0 1 .776-.5 2.553 2.553 0 0 1 .965-.181 2.584 2.584 0 0 1 1.364.39 2.463 2.463 0 0 1 .965 1.151l6.614 14.953 6.613-15a2.634 2.634 0 0 1 .813-1.081 2.379 2.379 0 0 1 1.5-.415 2.567 2.567 0 0 1 .965.181 2.319 2.319 0 0 1 .776.5 2.608 2.608 0 0 1 .529.746 2.078 2.078 0 0 1 .2.892 2.487 2.487 0 0 1 -.259 1.05l-13.531 30.737a2.673 2.673 0 0 1 -.942 1.126 2.548 2.548 0 0 1 -3.142-.238 2.209 2.209 0 0 1 -.7-1.667 2.355 2.355 0 0 1 .236-1.028z" transform="translate(-137.484 -173.52)"/><path d="m230.222 209.932a2.469 2.469 0 0 0 -2.8-2.023c-.021 0-.038.011-.059.013a.274.274 0 0 0 -.067 0 14.572 14.572 0 0 0 -2.552.6 13.954 13.954 0 0 0 -3.876 2.072v-.449a2.2 2.2 0 0 0 -.723-1.655 2.449 2.449 0 0 0 -1.747-.687 2.476 2.476 0 0 0 -1.772.687 2.191 2.191 0 0 0 -.725 1.655v20.532a2.194 2.194 0 0 0 .725 1.656 2.467 2.467 0 0 0 1.772.685 2.44 2.44 0 0 0 1.747-.685 2.2 2.2 0 0 0 .723-1.656v-10.264a7.383 7.383 0 0 1 .655-3.086 7.96 7.96 0 0 1 1.783-2.51 8.53 8.53 0 0 1 2.653-1.69 7.694 7.694 0 0 1 2.089-.55.1.1 0 0 0 .034 0 2.378 2.378 0 0 0 2.14-2.645z" transform="translate(-145.54 -173.563)"/><path d="m215.711 230.5v-.443a13.782 13.782 0 0 1 -3.836 2.048 13.441 13.441 0 0 1 -4.426.714 13.047 13.047 0 0 1 -9.318-3.657 12.021 12.021 0 0 1 0-17.651 13.7 13.7 0 0 1 18.639 0 11.7 11.7 0 0 1 3.861 8.824v10.165a2.166 2.166 0 0 1 -.717 1.636 2.415 2.415 0 0 1 -1.73.681 2.445 2.445 0 0 1 -1.754-.681 2.166 2.166 0 0 1 -.719-1.636zm-8.262-17.99a8.446 8.446 0 0 0 -3.246.622 8.362 8.362 0 0 0 -2.613 1.684 7.93 7.93 0 0 0 -1.753 2.485 7.405 7.405 0 0 0 0 6.063 7.939 7.939 0 0 0 1.753 2.487 8.527 8.527 0 0 0 11.708-.013 8.032 8.032 0 0 0 1.766-2.483 7.381 7.381 0 0 0 0-6.044 8.032 8.032 0 0 0 -1.766-2.483 8.417 8.417 0 0 0 -5.849-2.318z" transform="translate(-165.075 -173.52)"/><g font-family="DINAlternate-Bold, DIN Alternate" font-size="28" font-weight="700"><text transform="translate(118.822 26)"><tspan x="0" y="0">EDUCATION</tspan></text><text transform="translate(119.435 58.838)"><tspan x="0" y="0">CLOUD</tspan></text></g></g></svg>