<svg height="70" viewBox="0 0 277.382 70" width="277.382" xmlns="http://www.w3.org/2000/svg"><g fill="#fff"><path d="m258.473 272.967a23.779 23.779 0 0 0 -4.7-12.674l-1.869 6.48a19.724 19.724 0 0 1 1.68 6.555v.011c0 .011-.025.019-.023.032.008.138.006.278.011.418h.011a2.457 2.457 0 0 0 2.441 1.912 2.431 2.431 0 0 0 2.492-2.36 2.22 2.22 0 0 0 -.043-.374zm-51.743-2.823a20.654 20.654 0 0 0 -8.021-1.61c-10.926 0-19.781 8.241-19.781 18.59s8.855 18.59 19.781 18.59l5.65.066a2.4 2.4 0 1 0 0-4.792c-.038 0-.074-.011-.111-.011h-5.538c-8.174 0-14.826-6.13-14.826-13.874s6.651-13.961 14.826-13.961a15.475 15.475 0 0 1 6.009 1.249l5.78 2.453 1.111-5.886c1.8-9.554 10.582-16.487 20.842-16.487a22.043 22.043 0 0 1 5.221.625l6.5-2.668a27.168 27.168 0 0 0 -11.748-2.644c-12.846.001-23.514 8.788-25.695 20.36z" transform="translate(-178.928 -246.648)"/><path d="m207.023 272.561-.045-5.041 20.707-16.383-5.5 19.077-11.177-1.971z" transform="translate(-153.974 -245.446)"/><path d="m208.072 266-6.4-2.405 29.886-12.261z" transform="translate(-158.695 -245.269)"/><path d="m210.795 288.924v-20.143a2.186 2.186 0 0 1 .712-1.65 2.524 2.524 0 0 1 3.435 0 2.265 2.265 0 0 1 .737 1.65v20.143a2.251 2.251 0 0 1 -.737 1.646 2.519 2.519 0 0 1 -3.435 0 2.172 2.172 0 0 1 -.712-1.646z" transform="translate(-150.579 -231.873)"/><path d="m233.477 288.945-8.415-19.145a2.485 2.485 0 0 1 -.232-1.043 2.124 2.124 0 0 1 .187-.884 2.4 2.4 0 0 1 .514-.743 2.284 2.284 0 0 1 .771-.5 2.534 2.534 0 0 1 .958-.178 2.564 2.564 0 0 1 1.355.386 2.454 2.454 0 0 1 .958 1.143l6.568 14.85 6.566-14.9a2.627 2.627 0 0 1 .807-1.073 2.362 2.362 0 0 1 1.485-.41 2.548 2.548 0 0 1 .958.178 2.3 2.3 0 0 1 .771.5 2.573 2.573 0 0 1 .525.743 2.049 2.049 0 0 1 .2.884 2.464 2.464 0 0 1 -.257 1.043l-13.437 30.523a2.644 2.644 0 0 1 -.935 1.119 2.533 2.533 0 0 1 -3.12-.234 2.2 2.2 0 0 1 -.692-1.657 2.339 2.339 0 0 1 .234-1.02z" transform="translate(-138.093 -231.873)"/><path d="m230.123 268.518a2.454 2.454 0 0 0 -2.776-2.009.331.331 0 0 1 -.059.013.419.419 0 0 0 -.066 0 14.306 14.306 0 0 0 -2.534.6 13.8 13.8 0 0 0 -3.849 2.056v-.446a2.183 2.183 0 0 0 -.718-1.644 2.438 2.438 0 0 0 -1.735-.68 2.465 2.465 0 0 0 -1.759.68 2.178 2.178 0 0 0 -.72 1.644v20.389a2.179 2.179 0 0 0 .72 1.644 2.451 2.451 0 0 0 1.759.682 2.424 2.424 0 0 0 1.735-.682 2.183 2.183 0 0 0 .718-1.644v-10.2a7.331 7.331 0 0 1 .65-3.065 7.9 7.9 0 0 1 1.771-2.492 8.469 8.469 0 0 1 2.634-1.678 7.637 7.637 0 0 1 2.075-.546.2.2 0 0 0 .034 0 2.363 2.363 0 0 0 2.12-2.622z" transform="translate(-146.031 -231.916)"/><path d="m215.561 288.945v-.44a13.64 13.64 0 0 1 -3.809 2.033 13.348 13.348 0 0 1 -4.4.709 12.962 12.962 0 0 1 -9.253-3.63 11.94 11.94 0 0 1 0-17.53 13.612 13.612 0 0 1 18.509 0 11.621 11.621 0 0 1 3.834 8.762v10.1a2.148 2.148 0 0 1 -.712 1.625 2.4 2.4 0 0 1 -1.718.676 2.428 2.428 0 0 1 -1.742-.676 2.149 2.149 0 0 1 -.709-1.629zm-8.2-17.864a8.389 8.389 0 0 0 -3.224.618 8.3 8.3 0 0 0 -2.594 1.672 7.876 7.876 0 0 0 -1.74 2.468 7.353 7.353 0 0 0 0 6.02 7.884 7.884 0 0 0 1.74 2.47 8.472 8.472 0 0 0 11.627-.011 7.983 7.983 0 0 0 1.754-2.468 7.329 7.329 0 0 0 0-6 7.966 7.966 0 0 0 -1.754-2.464 8.349 8.349 0 0 0 -5.809-2.3z" transform="translate(-165.279 -231.873)"/><g font-family="DINAlternate-Bold, DIN Alternate" font-size="26" font-weight="700"><text transform="translate(118.382 24)"><tspan x="0" y="0">ENGAGEMENT</tspan></text><text transform="translate(118.951 57.433)"><tspan x="0" y="0">CLOUD</tspan></text></g></g></svg>