<svg height="70" viewBox="0 0 204.147 70" width="204.147" xmlns="http://www.w3.org/2000/svg"><g fill="#fff"><path d="m259.942 333.9a24.218 24.218 0 0 0 -4.788-12.91l-1.9 6.6a20.088 20.088 0 0 1 1.711 6.676v.012c0 .012-.025.021-.023.033.008.141.006.283.012.425h.012a2.5 2.5 0 0 0 2.486 1.948 2.474 2.474 0 0 0 2.538-2.4 2.221 2.221 0 0 0 -.048-.384zm-52.7-2.877a21.035 21.035 0 0 0 -8.17-1.64c-11.127 0-20.146 8.393-20.146 18.933s9.018 18.933 20.146 18.933l5.754.069a2.444 2.444 0 1 0 0-4.882c-.039 0-.075-.012-.114-.012h-5.641c-8.325 0-15.1-6.243-15.1-14.13s6.774-14.218 15.1-14.218a15.76 15.76 0 0 1 6.12 1.272l5.887 2.5 1.132-5.995c1.832-9.73 10.777-16.789 21.227-16.789a22.45 22.45 0 0 1 5.317.635l6.618-2.715a27.643 27.643 0 0 0 -11.965-2.694c-13.077.002-23.943 8.951-26.164 20.737z" transform="translate(-178.928 -308.459)"/><path d="m207.024 333.463-.045-5.134 21.09-16.686-5.6 19.429-11.383-2.008z" transform="translate(-152.996 -307.209)"/><path d="m208.19 326.779-6.519-2.45 30.438-12.487z" transform="translate(-157.902 -307.025)"/><path d="m210.8 349.846v-20.515a2.219 2.219 0 0 1 .726-1.678 2.565 2.565 0 0 1 3.5 0 2.3 2.3 0 0 1 .751 1.678v20.515a2.289 2.289 0 0 1 -.751 1.676 2.565 2.565 0 0 1 -3.5 0 2.209 2.209 0 0 1 -.726-1.676z" transform="translate(-149.467 -293.036)"/><path d="m233.637 349.867-8.57-19.5a2.532 2.532 0 0 1 -.237-1.062 2.163 2.163 0 0 1 .191-.9 2.415 2.415 0 0 1 .523-.754 2.332 2.332 0 0 1 .785-.508 2.654 2.654 0 0 1 2.356.214 2.486 2.486 0 0 1 .976 1.162l6.69 15.125 6.688-15.171a2.677 2.677 0 0 1 .822-1.093 2.406 2.406 0 0 1 1.513-.418 2.6 2.6 0 0 1 .976.181 2.351 2.351 0 0 1 .785.508 2.585 2.585 0 0 1 .535.754 2.087 2.087 0 0 1 .2.9 2.5 2.5 0 0 1 -.262 1.062l-13.685 31.086a2.681 2.681 0 0 1 -.953 1.139 2.573 2.573 0 0 1 -3.177-.239 2.238 2.238 0 0 1 -.7-1.688 2.388 2.388 0 0 1 .239-1.039z" transform="translate(-136.491 -293.036)"/><path d="m230.385 329.066a2.5 2.5 0 0 0 -2.827-2.046c-.021 0-.038.012-.06.013a.407.407 0 0 0 -.067 0 14.562 14.562 0 0 0 -2.581.608 14.1 14.1 0 0 0 -3.92 2.094v-.454a2.217 2.217 0 0 0 -.731-1.672 2.477 2.477 0 0 0 -1.767-.695 2.5 2.5 0 0 0 -1.792.695 2.212 2.212 0 0 0 -.733 1.672v20.765a2.219 2.219 0 0 0 .733 1.674 2.5 2.5 0 0 0 1.792.695 2.469 2.469 0 0 0 1.767-.695 2.223 2.223 0 0 0 .731-1.674v-10.382a7.467 7.467 0 0 1 .662-3.122 8.04 8.04 0 0 1 1.8-2.536 8.6 8.6 0 0 1 2.683-1.711 7.776 7.776 0 0 1 2.113-.556.212.212 0 0 0 .035 0 2.406 2.406 0 0 0 2.162-2.673z" transform="translate(-144.741 -293.08)"/><path d="m215.954 349.867v-.448a13.839 13.839 0 0 1 -3.88 2.071 13.593 13.593 0 0 1 -4.476.722 13.193 13.193 0 0 1 -9.424-3.7 12.16 12.16 0 0 1 0-17.854 13.863 13.863 0 0 1 18.85 0 11.836 11.836 0 0 1 3.9 8.924v10.283a2.188 2.188 0 0 1 -.726 1.655 2.443 2.443 0 0 1 -1.749.689 2.473 2.473 0 0 1 -1.774-.689 2.188 2.188 0 0 1 -.721-1.653zm-8.354-18.192a8.5 8.5 0 0 0 -5.926 2.331 8.021 8.021 0 0 0 -1.772 2.513 7.493 7.493 0 0 0 0 6.133 8.021 8.021 0 0 0 1.772 2.513 8.628 8.628 0 0 0 11.841-.012 8.132 8.132 0 0 0 1.786-2.513 7.464 7.464 0 0 0 0-6.112 8.116 8.116 0 0 0 -1.786-2.51 8.49 8.49 0 0 0 -5.916-2.344z" transform="translate(-164.743 -293.036)"/><g font-family="DINAlternate-Bold, DIN Alternate" font-weight="700"><text font-size="29" transform="translate(120 27)"><tspan x="0" y="0">1on1</tspan></text><text font-size="28" transform="translate(120.147 59.752)"><tspan x="0" y="0">CLOUD</tspan></text></g></g></svg>