<svg height="70" viewBox="0 0 244.324 70" width="244.324" xmlns="http://www.w3.org/2000/svg"><g fill="#fff"><path d="m258.434 155.366a23.762 23.762 0 0 0 -4.7-12.667l-1.868 6.474a19.725 19.725 0 0 1 1.679 6.554v.009c0 .013-.025.021-.023.034.008.138.006.278.011.417h.011a2.456 2.456 0 0 0 2.44 1.911 2.43 2.43 0 0 0 2.491-2.361 2.2 2.2 0 0 0 -.041-.371zm-51.718-2.822a20.61 20.61 0 0 0 -8.018-1.611c-10.92 0-19.771 8.238-19.771 18.581s8.851 18.586 19.773 18.586l5.647.068a2.4 2.4 0 1 0 0-4.79c-.038 0-.074-.011-.111-.011h-5.536c-8.17 0-14.819-6.129-14.819-13.867s6.648-13.954 14.819-13.954a15.466 15.466 0 0 1 6.006 1.247l5.777 2.453 1.111-5.883c1.8-9.551 10.577-16.479 20.832-16.479a22.032 22.032 0 0 1 5.218.625l6.5-2.667a27.155 27.155 0 0 0 -11.744-2.642c-12.841 0-23.5 8.778-25.684 20.345z" transform="translate(-178.928 -129.06)"/><path d="m207.023 154.961-.045-5.038 20.7-16.375-5.5 19.068-11.171-1.97z" transform="translate(-154 -127.859)"/><path d="m208.069 148.4-6.4-2.4 29.872-12.255z" transform="translate(-158.716 -127.683)"/><path d="m210.795 171.323v-20.132a2.185 2.185 0 0 1 .712-1.649 2.523 2.523 0 0 1 3.434 0 2.264 2.264 0 0 1 .737 1.649v20.132a2.251 2.251 0 0 1 -.737 1.647 2.518 2.518 0 0 1 -3.434 0 2.172 2.172 0 0 1 -.712-1.647z" transform="translate(-150.608 -114.265)"/><path d="m233.473 171.345-8.41-19.134a2.491 2.491 0 0 1 -.232-1.043 2.138 2.138 0 0 1 .187-.886 2.414 2.414 0 0 1 .514-.74 2.283 2.283 0 0 1 .771-.5 2.533 2.533 0 0 1 .958-.178 2.563 2.563 0 0 1 1.354.385 2.445 2.445 0 0 1 .958 1.143l6.565 14.841 6.563-14.887a2.614 2.614 0 0 1 .806-1.073 2.361 2.361 0 0 1 1.485-.41 2.547 2.547 0 0 1 .958.178 2.3 2.3 0 0 1 .771.5 2.59 2.59 0 0 1 .525.74 2.063 2.063 0 0 1 .2.886 2.469 2.469 0 0 1 -.257 1.043l-13.43 30.508a2.654 2.654 0 0 1 -.935 1.118 2.529 2.529 0 0 1 -3.118-.236 2.192 2.192 0 0 1 -.691-1.654 2.338 2.338 0 0 1 .234-1.02z" transform="translate(-138.136 -114.265)"/><path d="m230.116 150.929a2.451 2.451 0 0 0 -2.774-2.008c-.021 0-.038.011-.059.013a.274.274 0 0 0 -.066 0 14.468 14.468 0 0 0 -2.533.595 13.85 13.85 0 0 0 -3.847 2.057v-.446a2.18 2.18 0 0 0 -.718-1.643 2.431 2.431 0 0 0 -1.734-.682 2.458 2.458 0 0 0 -1.758.682 2.175 2.175 0 0 0 -.72 1.643v20.379a2.177 2.177 0 0 0 .72 1.643 2.45 2.45 0 0 0 1.758.682 2.423 2.423 0 0 0 1.734-.682 2.182 2.182 0 0 0 .718-1.643v-10.187a7.328 7.328 0 0 1 .65-3.063 7.9 7.9 0 0 1 1.77-2.491 8.465 8.465 0 0 1 2.633-1.677 7.633 7.633 0 0 1 2.074-.546.1.1 0 0 0 .034 0 2.36 2.36 0 0 0 2.118-2.626z" transform="translate(-146.065 -114.309)"/><path d="m215.551 171.345v-.44a13.68 13.68 0 0 1 -3.808 2.032 13.34 13.34 0 0 1 -4.393.708 12.95 12.95 0 0 1 -9.249-3.63 11.932 11.932 0 0 1 0-17.52 13.605 13.605 0 0 1 18.5 0 11.615 11.615 0 0 1 3.832 8.758v10.091a2.15 2.15 0 0 1 -.712 1.624 2.4 2.4 0 0 1 -1.717.676 2.427 2.427 0 0 1 -1.741-.676 2.15 2.15 0 0 1 -.712-1.623zm-8.2-17.856a8.383 8.383 0 0 0 -3.222.618 8.3 8.3 0 0 0 -2.593 1.672 7.872 7.872 0 0 0 -1.739 2.467 7.349 7.349 0 0 0 0 6.017 7.881 7.881 0 0 0 1.739 2.469 8.468 8.468 0 0 0 11.621-.011 7.981 7.981 0 0 0 1.753-2.467 7.325 7.325 0 0 0 0-6 7.972 7.972 0 0 0 -1.753-2.465 8.354 8.354 0 0 0 -5.806-2.3z" transform="translate(-165.293 -114.265)"/><g font-family="DINAlternate-Bold, DIN Alternate" font-size="27" font-weight="700"><text transform="translate(118.324 25)"><tspan x="0" y="0">FRESHERS</tspan></text><text transform="translate(118.893 57.547)"><tspan x="0" y="0">CLOUD</tspan></text></g></g></svg>