<svg height="35.002" viewBox="0 0 218 35.002" width="218" xmlns="http://www.w3.org/2000/svg"><g fill="#e62f8b"><path d="m845.539 162.65a12.484 12.484 0 0 0 -2.469-6.655l-.981 3.4a10.368 10.368 0 0 1 .881 3.442v.006c0 .006-.013.011-.011.017 0 .073 0 .146.006.22h.005a1.291 1.291 0 0 0 1.282 1 1.276 1.276 0 0 0 1.308-1.24 1.158 1.158 0 0 0 -.021-.19zm-27.169-1.482a10.825 10.825 0 0 0 -4.212-.846c-5.736 0-10.386 4.328-10.386 9.761s4.65 9.761 10.386 9.761l2.967.036a1.26 1.26 0 1 0 0-2.516c-.02 0-.038-.006-.058-.006h-2.908a7.322 7.322 0 1 1 0-14.615 8.114 8.114 0 0 1 3.155.656l3.035 1.287.583-3.09a10.951 10.951 0 0 1 10.944-8.656 11.576 11.576 0 0 1 2.741.328l3.412-1.4a14.25 14.25 0 0 0 -6.168-1.389 13.525 13.525 0 0 0 -13.492 10.689z" transform="translate(-803.771 -150.478)"/><path d="m847.527 163.834-.023-2.647 10.873-8.6-2.889 10.013-5.868-1.035z" transform="translate(-819.672 -151.244)"/><path d="m842.59 160.6-3.361-1.263 15.692-6.438z" transform="translate(-816.663 -151.357)"/><path d="m853.454 188.267v-10.576a1.145 1.145 0 0 1 .374-.866 1.323 1.323 0 0 1 1.8 0 1.185 1.185 0 0 1 .387.866v10.576a1.18 1.18 0 0 1 -.387.865 1.323 1.323 0 0 1 -1.8 0 1.14 1.14 0 0 1 -.374-.865z" transform="translate(-821.835 -160.064)"/><path d="m879.875 188.278-4.418-10.052a1.316 1.316 0 0 1 -.122-.547 1.134 1.134 0 0 1 .1-.465 1.267 1.267 0 0 1 .271-.389 1.192 1.192 0 0 1 .4-.262 1.332 1.332 0 0 1 .5-.094 1.348 1.348 0 0 1 .712.2 1.287 1.287 0 0 1 .5.6l3.449 7.8 3.448-7.821a1.383 1.383 0 0 1 .423-.564 1.242 1.242 0 0 1 .78-.216 1.341 1.341 0 0 1 .5.094 1.2 1.2 0 0 1 .4.262 1.344 1.344 0 0 1 .276.389 1.08 1.08 0 0 1 .1.465 1.3 1.3 0 0 1 -.134.547l-7.056 16.026a1.389 1.389 0 0 1 -.491.588 1.328 1.328 0 0 1 -1.638-.124 1.153 1.153 0 0 1 -.363-.869 1.229 1.229 0 0 1 .123-.536z" transform="translate(-829.791 -160.064)"/><path d="m868.887 177.5a1.287 1.287 0 0 0 -1.457-1.055.215.215 0 0 1 -.031.007.172.172 0 0 0 -.035 0 7.455 7.455 0 0 0 -1.33.313 7.258 7.258 0 0 0 -2.021 1.079v-.234a1.143 1.143 0 0 0 -.377-.863 1.275 1.275 0 0 0 -.911-.358 1.289 1.289 0 0 0 -.924.358 1.14 1.14 0 0 0 -.379.863v10.706a1.144 1.144 0 0 0 .379.863 1.286 1.286 0 0 0 .924.358 1.272 1.272 0 0 0 .911-.358 1.147 1.147 0 0 0 .377-.863v-5.354a3.851 3.851 0 0 1 .341-1.609 4.157 4.157 0 0 1 .93-1.308 4.422 4.422 0 0 1 1.383-.881 4.006 4.006 0 0 1 1.09-.288h.017a1.241 1.241 0 0 0 1.113-1.376z" transform="translate(-824.733 -160.037)"/><path d="m838.871 188.278v-.231a7.187 7.187 0 0 1 -2 1.068 7.033 7.033 0 0 1 -2.308.372 6.8 6.8 0 0 1 -4.859-1.907 6.267 6.267 0 0 1 0-9.2 7.145 7.145 0 0 1 9.719 0 6.1 6.1 0 0 1 2.014 4.6v5.3a1.131 1.131 0 0 1 -.374.853 1.34 1.34 0 0 1 -1.817 0 1.131 1.131 0 0 1 -.375-.855zm-4.308-9.38a4.395 4.395 0 0 0 -3.055 1.2 4.157 4.157 0 0 0 -.914 1.3 3.867 3.867 0 0 0 0 3.162 4.162 4.162 0 0 0 .914 1.3 4.449 4.449 0 0 0 6.105-.007 4.177 4.177 0 0 0 .921-1.3 3.848 3.848 0 0 0 0-3.151 4.174 4.174 0 0 0 -.921-1.294 4.391 4.391 0 0 0 -3.05-1.209z" transform="translate(-812.468 -160.064)"/><text font-family="DINAlternate-Bold, DIN Alternate" font-size="16" font-weight="700" transform="translate(61 25.584)"><tspan x="0" y="0">MANAGEMENT CLOUD</tspan></text></g></svg>