<svg height="35.002" viewBox="0 0 184.922 35.002" width="184.922" xmlns="http://www.w3.org/2000/svg"><g fill="#e56920"><path d="m903.442 70.6a12.439 12.439 0 0 0 -2.46-6.629l-.977 3.389a10.339 10.339 0 0 1 .879 3.429v.005c0 .007-.013.011-.012.017 0 .072 0 .146.006.219h.006a1.285 1.285 0 0 0 1.277 1 1.271 1.271 0 0 0 1.3-1.235 1.241 1.241 0 0 0 -.019-.195zm-27.065-1.477a10.813 10.813 0 0 0 -4.2-.842c-5.714 0-10.346 4.311-10.346 9.724s4.632 9.723 10.346 9.723l2.955.035a1.255 1.255 0 1 0 0-2.506c-.019 0-.037-.006-.058-.006h-2.9a7.294 7.294 0 1 1 0-14.559 8.073 8.073 0 0 1 3.143.654l3.023 1.282.581-3.078a10.91 10.91 0 0 1 10.9-8.624 11.5 11.5 0 0 1 2.73.327l3.4-1.4a14.2 14.2 0 0 0 -6.143-1.383 13.473 13.473 0 0 0 -13.431 10.648z" transform="translate(-861.835 -58.47)"/><path d="m889.468 71.006-.023-2.637 10.83-8.569-2.875 9.978-5.846-1.031z" transform="translate(-861.72 -58.464)"/><path d="m887.569 67.667-3.348-1.258 15.632-6.409z" transform="translate(-861.742 -58.463)"/><path d="m893.2 86.631v-10.531a1.141 1.141 0 0 1 .374-.863 1.318 1.318 0 0 1 1.8 0 1.185 1.185 0 0 1 .385.863v10.531a1.176 1.176 0 0 1 -.385.862 1.318 1.318 0 0 1 -1.8 0 1.133 1.133 0 0 1 -.374-.862z" transform="translate(-861.704 -58.402)"/><path d="m911.538 86.642-4.4-10.012a1.316 1.316 0 0 1 -.121-.545 1.135 1.135 0 0 1 .1-.464 1.267 1.267 0 0 1 .27-.388 1.19 1.19 0 0 1 .4-.26 1.36 1.36 0 0 1 1.21.109 1.275 1.275 0 0 1 .5.6l3.435 7.767 3.435-7.791a1.368 1.368 0 0 1 .422-.561 1.239 1.239 0 0 1 .776-.215 1.34 1.34 0 0 1 .5.093 1.208 1.208 0 0 1 .4.26 1.354 1.354 0 0 1 .275.388 1.078 1.078 0 0 1 .1.464 1.313 1.313 0 0 1 -.134.545l-7.029 15.964a1.386 1.386 0 0 1 -.49.586 1.324 1.324 0 0 1 -1.631-.123 1.151 1.151 0 0 1 -.362-.867 1.231 1.231 0 0 1 .122-.533z" transform="translate(-861.647 -58.402)"/><path d="m905.668 75.936a1.282 1.282 0 0 0 -1.452-1.05.262.262 0 0 1 -.03.007.147.147 0 0 0 -.035 0 7.4 7.4 0 0 0 -1.324.311 7.25 7.25 0 0 0 -2.013 1.075v-.233a1.142 1.142 0 0 0 -.377-.86 1.27 1.27 0 0 0 -.907-.356 1.285 1.285 0 0 0 -.92.356 1.139 1.139 0 0 0 -.378.86v10.666a1.138 1.138 0 0 0 .378.86 1.277 1.277 0 0 0 .92.357 1.263 1.263 0 0 0 .907-.357 1.14 1.14 0 0 0 .377-.86v-5.333a3.836 3.836 0 0 1 .339-1.6 4.143 4.143 0 0 1 .926-1.3 4.413 4.413 0 0 1 1.378-.878 3.981 3.981 0 0 1 1.086-.286.107.107 0 0 0 .018 0 1.236 1.236 0 0 0 1.107-1.379z" transform="translate(-861.683 -58.402)"/><path d="m888.073 86.642v-.23a7.157 7.157 0 0 1 -1.993 1.063 6.978 6.978 0 0 1 -2.3.371 6.776 6.776 0 0 1 -4.84-1.9 6.244 6.244 0 0 1 0-9.168 7.116 7.116 0 0 1 9.681 0 6.078 6.078 0 0 1 2.005 4.582v5.281a1.124 1.124 0 0 1 -.373.851 1.255 1.255 0 0 1 -.9.353 1.27 1.27 0 0 1 -.911-.353 1.124 1.124 0 0 1 -.369-.85zm-4.292-9.342a4.378 4.378 0 0 0 -3.044 1.2 4.133 4.133 0 0 0 -.91 1.291 3.843 3.843 0 0 0 0 3.149 4.144 4.144 0 0 0 .91 1.291 4.433 4.433 0 0 0 6.082-.006 4.169 4.169 0 0 0 .917-1.291 3.83 3.83 0 0 0 0-3.139 4.156 4.156 0 0 0 -.917-1.288 4.371 4.371 0 0 0 -3.039-1.2z" transform="translate(-861.772 -58.402)"/><text font-family="DINAlternate-Bold, DIN Alternate" font-size="16" font-weight="700" transform="translate(61.922 26.095)"><tspan x="0" y="0">DIVERSITY CLOUD</tspan></text></g></svg>