<svg height="35.002" viewBox="0 0 201.92 35.002" width="201.92" xmlns="http://www.w3.org/2000/svg"><g fill="#008f73"><path d="m903.441 166a12.439 12.439 0 0 0 -2.46-6.629l-.981 3.386a10.345 10.345 0 0 1 .879 3.429v.006c0 .006-.013.01-.012.017 0 .072 0 .146.006.219h.006a1.285 1.285 0 0 0 1.277 1 1.271 1.271 0 0 0 1.3-1.235 1.228 1.228 0 0 0 -.015-.193zm-27.064-1.477a10.8 10.8 0 0 0 -4.2-.842c-5.714 0-10.346 4.311-10.346 9.723s4.632 9.723 10.346 9.723l2.955.036a1.255 1.255 0 1 0 0-2.507c-.019 0-.037-.006-.058-.006h-2.9a7.294 7.294 0 1 1 0-14.558 8.091 8.091 0 0 1 3.143.653l3.023 1.283.581-3.079a10.908 10.908 0 0 1 10.9-8.622 11.5 11.5 0 0 1 2.73.326l3.4-1.395a14.191 14.191 0 0 0 -6.143-1.384 13.472 13.472 0 0 0 -13.431 10.647z" transform="translate(-861.835 -153.872)"/><path d="m889.468 166.408-.023-2.637 10.831-8.569-2.877 9.978-5.846-1.031z" transform="translate(-861.721 -153.867)"/><path d="m887.569 163.069-3.348-1.258 15.631-6.413z" transform="translate(-861.743 -153.866)"/><path d="m893.2 182.033v-10.533a1.138 1.138 0 0 1 .374-.863 1.318 1.318 0 0 1 1.8 0 1.181 1.181 0 0 1 .385.863v10.535a1.175 1.175 0 0 1 -.385.861 1.315 1.315 0 0 1 -1.8 0 1.132 1.132 0 0 1 -.374-.863z" transform="translate(-861.706 -153.804)"/><path d="m911.538 182.044-4.4-10.013a1.31 1.31 0 0 1 -.121-.545 1.13 1.13 0 0 1 .1-.463 1.266 1.266 0 0 1 .27-.388 1.189 1.189 0 0 1 .4-.26 1.328 1.328 0 0 1 .5-.093 1.343 1.343 0 0 1 .709.2 1.274 1.274 0 0 1 .5.6l3.435 7.767 3.435-7.79a1.361 1.361 0 0 1 .422-.561 1.233 1.233 0 0 1 .776-.215 1.341 1.341 0 0 1 .5.093 1.209 1.209 0 0 1 .4.26 1.354 1.354 0 0 1 .275.388 1.074 1.074 0 0 1 .1.463 1.307 1.307 0 0 1 -.134.545l-7.02 15.968a1.378 1.378 0 0 1 -.49.585 1.32 1.32 0 0 1 -1.631-.124 1.149 1.149 0 0 1 -.363-.867 1.234 1.234 0 0 1 .122-.533z" transform="translate(-861.649 -153.804)"/><path d="m905.668 171.339a1.283 1.283 0 0 0 -1.452-1.051.147.147 0 0 1 -.03.007.227.227 0 0 0 -.035 0 7.48 7.48 0 0 0 -1.324.312 7.2 7.2 0 0 0 -2.013 1.075v-.233a1.138 1.138 0 0 0 -.377-.86 1.267 1.267 0 0 0 -.907-.357 1.281 1.281 0 0 0 -.92.357 1.136 1.136 0 0 0 -.378.86v10.664a1.139 1.139 0 0 0 .378.86 1.28 1.28 0 0 0 .92.356 1.266 1.266 0 0 0 .907-.356 1.141 1.141 0 0 0 .377-.86v-5.333a3.842 3.842 0 0 1 .339-1.6 4.154 4.154 0 0 1 .926-1.3 4.45 4.45 0 0 1 1.378-.878 4.016 4.016 0 0 1 1.085-.286.107.107 0 0 0 .018 0 1.235 1.235 0 0 0 1.108-1.377z" transform="translate(-861.685 -153.804)"/><path d="m888.073 182.044v-.23a7.156 7.156 0 0 1 -1.993 1.063 6.978 6.978 0 0 1 -2.3.371 6.779 6.779 0 0 1 -4.84-1.9 6.245 6.245 0 0 1 0-9.169 7.119 7.119 0 0 1 9.681 0 6.08 6.08 0 0 1 2.005 4.583v5.281a1.123 1.123 0 0 1 -.372.849 1.251 1.251 0 0 1 -.9.354 1.267 1.267 0 0 1 -.911-.354 1.124 1.124 0 0 1 -.37-.848zm-4.292-9.343a4.378 4.378 0 0 0 -3.044 1.2 4.14 4.14 0 0 0 -.91 1.29 3.843 3.843 0 0 0 0 3.149 4.16 4.16 0 0 0 .91 1.292 4.434 4.434 0 0 0 6.082-.007 4.166 4.166 0 0 0 .917-1.29 3.83 3.83 0 0 0 0-3.139 4.149 4.149 0 0 0 -.917-1.289 4.376 4.376 0 0 0 -3.039-1.2z" transform="translate(-861.773 -153.804)"/><text font-family="DINAlternate-Bold, DIN Alternate" font-size="17" font-weight="700" transform="translate(61.92 27.095)"><tspan x="0" y="0">EDUCATION CLOUD</tspan></text></g></svg>