<svg height="70.001" viewBox="0 0 297.587 70.001" width="297.587" xmlns="http://www.w3.org/2000/svg"><g fill="#fff"><path d="m258.764 394.712a24.228 24.228 0 0 0 -4.789-12.912l-1.9 6.6a20.054 20.054 0 0 1 1.709 6.679v.01c0 .013-.023.021-.021.035.008.141.006.283.012.425h.01a2.5 2.5 0 0 0 2.489 1.948 2.474 2.474 0 0 0 2.537-2.406 2.245 2.245 0 0 0 -.047-.379zm-52.707-2.876a21 21 0 0 0 -8.171-1.642c-11.129 0-20.149 8.4-20.149 18.936s9.02 18.936 20.149 18.936l5.753.069a2.444 2.444 0 1 0 0-4.881c-.037 0-.073-.012-.112-.012h-5.642c-8.327 0-15.1-6.246-15.1-14.132s6.775-14.22 15.1-14.22a15.762 15.762 0 0 1 6.121 1.27l5.886 2.5 1.134-5.994c1.832-9.734 10.779-16.794 21.231-16.794a22.454 22.454 0 0 1 5.318.637l6.619-2.718a27.674 27.674 0 0 0 -11.967-2.693c-13.081.002-23.949 8.95-26.17 20.738z" transform="translate(-177.737 -369.263)"/><path d="m205.832 394.273-.045-5.135 21.093-16.688-5.6 19.432-11.385-2.008z" transform="translate(-151.796 -368.013)"/><path d="m207 387.587-6.52-2.45 30.443-12.489z" transform="translate(-156.704 -367.83)"/><path d="m209.6 410.655v-20.517a2.224 2.224 0 0 1 .726-1.68 2.566 2.566 0 0 1 3.5 0 2.3 2.3 0 0 1 .751 1.68v20.517a2.294 2.294 0 0 1 -.751 1.678 2.566 2.566 0 0 1 -3.5 0 2.214 2.214 0 0 1 -.726-1.678z" transform="translate(-148.266 -353.846)"/><path d="m232.448 410.678-8.571-19.5a2.541 2.541 0 0 1 -.239-1.063 2.209 2.209 0 0 1 .191-.9 2.5 2.5 0 0 1 .525-.755 2.326 2.326 0 0 1 .785-.506 2.58 2.58 0 0 1 .976-.183 2.624 2.624 0 0 1 1.38.395 2.482 2.482 0 0 1 .976 1.164l6.691 15.125 6.689-15.171a2.665 2.665 0 0 1 .822-1.093 2.407 2.407 0 0 1 1.513-.42 2.6 2.6 0 0 1 .976.183 2.344 2.344 0 0 1 .785.506 2.637 2.637 0 0 1 .535.755 2.1 2.1 0 0 1 .2.9 2.546 2.546 0 0 1 -.262 1.063l-13.687 31.089a2.7 2.7 0 0 1 -.955 1.141 2.575 2.575 0 0 1 -3.176-.241 2.234 2.234 0 0 1 -.7-1.686 2.383 2.383 0 0 1 .239-1.039z" transform="translate(-135.288 -353.846)"/><path d="m229.2 389.871a2.5 2.5 0 0 0 -2.828-2.046c-.021 0-.039.012-.06.014a.282.282 0 0 0 -.067 0 14.745 14.745 0 0 0 -2.581.606 14.115 14.115 0 0 0 -3.921 2.1v-.454a2.228 2.228 0 0 0 -.731-1.675 2.626 2.626 0 0 0 -3.559 0 2.218 2.218 0 0 0 -.735 1.675v20.769a2.214 2.214 0 0 0 .735 1.673 2.626 2.626 0 0 0 3.559 0 2.224 2.224 0 0 0 .731-1.673v-10.387a7.467 7.467 0 0 1 .662-3.122 8.028 8.028 0 0 1 1.8-2.539 8.62 8.62 0 0 1 2.681-1.709 7.792 7.792 0 0 1 2.115-.556.106.106 0 0 0 .035 0 2.406 2.406 0 0 0 2.164-2.676z" transform="translate(-143.54 -353.89)"/><path d="m214.768 410.678v-.448a13.943 13.943 0 0 1 -3.88 2.071 13.6 13.6 0 0 1 -4.477.722 13.194 13.194 0 0 1 -9.426-3.7 12.156 12.156 0 0 1 0-17.855 13.86 13.86 0 0 1 18.854 0 11.844 11.844 0 0 1 3.905 8.925v10.284a2.2 2.2 0 0 1 -.726 1.655 2.443 2.443 0 0 1 -1.75.689 2.474 2.474 0 0 1 -1.775-.689 2.192 2.192 0 0 1 -.725-1.654zm-8.358-18.2a8.543 8.543 0 0 0 -3.284.629 8.437 8.437 0 0 0 -2.643 1.7 8.023 8.023 0 0 0 -1.773 2.514 7.49 7.49 0 0 0 0 6.132 8.031 8.031 0 0 0 1.773 2.516 8.625 8.625 0 0 0 11.843-.013 8.125 8.125 0 0 0 1.786-2.512 7.465 7.465 0 0 0 0-6.113 8.125 8.125 0 0 0 -1.786-2.512 8.514 8.514 0 0 0 -5.917-2.344z" transform="translate(-163.549 -353.846)"/><g font-family="DINAlternate-Bold, DIN Alternate" font-weight="700"><text font-size="28" transform="translate(120.587 26)"><tspan x="0" y="0">MANAGEMENT</tspan></text><text font-size="27" transform="translate(120.586 58.748)"><tspan x="0" y="0">CLOUD</tspan></text></g></g></svg>