<svg height="40" viewBox="0 0 45 40" width="45" xmlns="http://www.w3.org/2000/svg"><path d="m2566.479 2469.345a2.444 2.444 0 1 1 -2.445-2.445 2.445 2.445 0 0 1 2.445 2.445z" fill="#fff" transform="translate(-2524.858 -2444.015)"/><path d="m2539.148 2564.4h9.175s.922-7.071-4.6-7.071-4.575 7.071-4.575 7.071z" fill="#fff" transform="translate(-2504.532 -2525.696)"/><circle cx="3.621" cy="3.621" fill="#ffe1af" r="3.621" transform="matrix(.99984371 -.01767926 .01767926 .99984371 1.994 .128)"/><path d="m2186.747 2321.184a5.706 5.706 0 0 0 -5.718 5.722v2.437a1.012 1.012 0 0 0 1.064 1.087h9.176a1.151 1.151 0 0 0 1.19-1.122l.033-2.284a5.79 5.79 0 0 0 -5.745-5.84z" fill="#ffe1af" transform="translate(-2181.029 -2312.399)"/><path d="m2553.053 2461.983a3.621 3.621 0 1 1 3.621-3.62 3.624 3.624 0 0 1 -3.621 3.62zm0-4.889a1.268 1.268 0 1 0 1.268 1.268 1.27 1.27 0 0 0 -1.268-1.267z" fill="#323232" transform="translate(-2513.876 -2433.034)"/><path d="m2537.724 2554.718a1.205 1.205 0 0 1 -1.209-1.177v-2.672a3.33 3.33 0 0 0 -3.4-3.34 3.51 3.51 0 0 0 -3.413 3.517l.023 2.368a1.175 1.175 0 1 1 -2.35.019l-.019-2.378a5.844 5.844 0 0 1 5.79-5.879 5.687 5.687 0 0 1 5.791 5.693v2.672a1.205 1.205 0 0 1 -1.213 1.177z" fill="#323232" transform="translate(-2493.933 -2514.717)"/><path d="m2344.913 2247.738h-16.469c-2.6 0-5.14 1.609-5.14 4.208v.941l-4.47 1.882 4.47 2v1.294a5.5 5.5 0 0 0 5.14 5.157h16.469c2.6 0 4.227-2.558 4.227-5.157v-6.117a3.916 3.916 0 0 0 -4.227-4.208z" fill="#fff" transform="translate(-2305.591 -2246.06)"/><path d="m2336.038 2250.543h-16.469a6.105 6.105 0 0 1 -6.011-6.028v-.531l-3.827-1.688a1.2 1.2 0 0 1 -.722-1.086 1.217 1.217 0 0 1 .759-1.072l3.791-1.579v-.16a5.817 5.817 0 0 1 6.011-5.66h16.469a5.5 5.5 0 0 1 5.678 5.66v6.117a5.848 5.848 0 0 1 -5.679 6.027zm-22.926-9.289 2.035.893a1.212 1.212 0 0 1 .733 1.074v1.294a3.843 3.843 0 0 0 3.688 3.706h16.469a3.492 3.492 0 0 0 3.26-3.706v-6.115a3.159 3.159 0 0 0 -3.26-3.337h-16.469a3.539 3.539 0 0 0 -3.688 3.337v.941a1.213 1.213 0 0 1 -.757 1.084z" fill="#323232" transform="translate(-2296.716 -2232.511)"/><path d="m2426.091 2311.815a1.137 1.137 0 1 1 -1.137-1.137 1.137 1.137 0 0 1 1.137 1.137z" fill="#494949" transform="translate(-2400.373 -2302.91)"/><path d="m2469.856 2311.815a1.137 1.137 0 1 1 -1.138-1.137 1.137 1.137 0 0 1 1.138 1.137z" fill="#494949" transform="translate(-2439.913 -2302.91)"/><path d="m2513.62 2311.815a1.137 1.137 0 1 1 -1.137-1.137 1.137 1.137 0 0 1 1.137 1.137z" fill="#494949" transform="translate(-2479.452 -2302.91)"/><path d="m2557.386 2311.815a1.137 1.137 0 1 1 -1.137-1.137 1.137 1.137 0 0 1 1.137 1.137z" fill="#494949" transform="translate(-2519.006 -2302.91)"/><path d="m2212.919 2463.2-3.732-1.579v-.16a6 6 0 0 0 -6.155-5.726h-16.469a5.437 5.437 0 0 0 -5.534 5.726v6.117c0 3.373 2.421 6.155 5.534 6.155h16.469a6.344 6.344 0 0 0 6.155-6.155v-.532l3.76-1.688a1.185 1.185 0 0 0 -.029-2.158z" fill="#ffe1af" transform="translate(-2181.029 -2433.933)"/><g fill="#fff"><path d="m2379.244 2535.5a1.137 1.137 0 1 0 1.137-1.138 1.137 1.137 0 0 0 -1.137 1.138z" transform="translate(-2360.105 -2504.952)"/><path d="m2335.479 2535.5a1.137 1.137 0 1 0 1.137-1.138 1.137 1.137 0 0 0 -1.137 1.138z" transform="translate(-2320.566 -2504.952)"/><path d="m2291.714 2535.5a1.137 1.137 0 1 0 1.137-1.138 1.137 1.137 0 0 0 -1.137 1.138z" transform="translate(-2281.027 -2504.952)"/><path d="m2247.949 2535.5a1.137 1.137 0 1 0 1.137-1.138 1.137 1.137 0 0 0 -1.137 1.138z" transform="translate(-2241.474 -2504.952)"/></g></svg>