<svg height="40" viewBox="0 0 48 40" width="48" xmlns="http://www.w3.org/2000/svg"><path d="m347.979 26.89v22.647h-40.622v-22.647a2.721 2.721 0 0 1 2.709-2.73h35.205a2.721 2.721 0 0 1 2.708 2.73z" fill="#fff" transform="translate(-303.667 -22.938)"/><path d="m348.978 29.75v20.808h-37.211v-18.086a2.721 2.721 0 0 1 2.722-2.722z" fill="#ffe1af" transform="translate(-304.667 -23.959)"/><path d="m347.052 67.365h-39.87a2.846 2.846 0 0 1 -2.734-3.606l2.35-8.552h40.639l2.349 8.552a2.846 2.846 0 0 1 -2.734 3.606z" fill="#fff" transform="translate(-303.117 -28.591)"/><path d="m346.782 68.317h-39.882a4.071 4.071 0 0 1 -3.911-5.158l2.35-8.552a1.222 1.222 0 0 1 1.178-.9h40.647a1.221 1.221 0 0 1 1.177.9l2.351 8.552a4.072 4.072 0 0 1 -3.912 5.158zm-39.333-12.158-2.1 7.652a1.621 1.621 0 0 0 1.557 2.054h39.88a1.621 1.621 0 0 0 1.558-2.054l-2.1-7.652z" fill="#323232" transform="translate(-302.842 -28.317)"/><path d="m337.57 69.224h-13.508l.3-3.845h12.905z" fill="#fff" transform="translate(-306.816 -30.449)"/><path d="m337.3 70.175h-13.511a1.224 1.224 0 0 1 -1.222-1.322l.3-3.845a1.225 1.225 0 0 1 1.222-1.13h12.905a1.225 1.225 0 0 1 1.222 1.13l.3 3.845a1.224 1.224 0 0 1 -1.222 1.322zm-12.182-2.452h10.856l-.109-1.393h-10.642z" fill="#323232" transform="translate(-306.542 -30.175)"/><path d="m347.708 50.487h-40.629a1.224 1.224 0 0 1 -1.22-1.226v-22.648a3.944 3.944 0 0 1 3.931-3.948h35.21a3.944 3.944 0 0 1 3.931 3.948v22.648a1.224 1.224 0 0 1 -1.223 1.226zm-39.408-2.452h38.188v-21.422a1.494 1.494 0 0 0 -1.49-1.5h-35.208a1.494 1.494 0 0 0 -1.49 1.5z" fill="#323232" transform="translate(-303.393 -22.665)"/><path d="m326.839 32.837a4.078 4.078 0 1 1 -4.078-4.078 4.078 4.078 0 0 1 4.078 4.078z" fill="#fff" transform="translate(-305.799 -23.778)"/><path d="m328.582 52.531h-12.646v-5.646a6.323 6.323 0 0 1 6.323-6.323 6.323 6.323 0 0 1 6.323 6.323z" fill="#fff" transform="translate(-305.293 -25.925)"/><g fill="#323232"><path d="m322.486 37.867a5.3 5.3 0 1 1 5.3-5.3 5.31 5.31 0 0 1 -5.3 5.3zm0-8.157a2.852 2.852 0 1 0 2.852 2.852 2.855 2.855 0 0 0 -2.852-2.851z" transform="translate(-305.523 -23.504)"/><path d="m328.307 53.483h-12.645a1.226 1.226 0 0 1 -1.226-1.226v-5.646a7.549 7.549 0 0 1 15.1 0v5.647a1.226 1.226 0 0 1 -1.229 1.225zm-11.419-2.452h10.193v-4.42a5.1 5.1 0 1 0 -10.193 0z" transform="translate(-305.016 -25.651)"/><path d="m345.594 29.783h-13.152a.817.817 0 0 1 0-1.635h13.152a.817.817 0 1 1 0 1.635z" transform="translate(-308.237 -23.667)"/><path d="m345.594 34.079h-13.152a.817.817 0 0 1 0-1.635h13.152a.817.817 0 1 1 0 1.635z" transform="translate(-308.237 -24.448)"/><path d="m345.594 38.374h-13.152a.817.817 0 0 1 0-1.635h13.152a.817.817 0 1 1 0 1.635z" transform="translate(-308.237 -25.23)"/><path d="m331.134 50.142a1.226 1.226 0 0 1 -.866-2.093l7.238-7.238a1.226 1.226 0 1 1 1.733 1.733l-7.239 7.238a1.223 1.223 0 0 1 -.866.36z" transform="translate(-307.899 -25.905)"/></g></svg>