<svg xmlns="http://www.w3.org/2000/svg" xmlns:xlink="http://www.w3.org/1999/xlink" width="54" height="54" viewBox="0 0 54 54">
  <defs>
    <clipPath id="clip-path">
      <rect id="長方形_603" data-name="長方形 603" width="54" height="54" transform="translate(1032 2741)" fill="none"/>
    </clipPath>
  </defs>
  <g id="funtion6" transform="translate(-1032 -2741)" clip-path="url(#clip-path)">
    <g id="funtion6-2" data-name="funtion6" transform="translate(369.169 2814.32)">
      <g id="グループ_2710" data-name="グループ 2710" transform="translate(663.831 -73.32)">
        <path id="パス_4592" data-name="パス 4592" d="M676.653-46.269a3.42,3.42,0,0,1-1.361-.266,3.727,3.727,0,0,1-1.989-2l0-.009a4.855,4.855,0,0,0-.493-.944,6.182,6.182,0,0,0-.962.259l-.021.007-.04.014-.071.025a3.709,3.709,0,0,1-2.722-.053,3.728,3.728,0,0,1-1.026-.67l-.018-.015c-.033-.028-.085-.073-.135-.123l-.044-.045c-.577-.621-1.876-2.366-2.1-2.665l-.042-.052-.04-.061A3.621,3.621,0,0,1,666-57.4a2.016,2.016,0,0,0,.186-.24.726.726,0,0,0-.393-.928l-.155-.066-.086-.049a3.372,3.372,0,0,1-1.639-3.734l.021-.1.033-.15.012-.028,0-.009a15.394,15.394,0,0,1,.69-2.279,15.619,15.619,0,0,1,1.148-2.107l.017-.042.113-.167a3.4,3.4,0,0,1,2.828-1.658,3.069,3.069,0,0,1,1.188.241l.119.05a.7.7,0,0,0,.269.054.732.732,0,0,0,.671-.439,1.427,1.427,0,0,0,.03-.295l0-.06a3.548,3.548,0,0,1,2.864-3.55l.126-.017,3.5-.357.233.006a3.8,3.8,0,0,1,1.254.266,3.735,3.735,0,0,1,1.99,2l0,.008a3.954,3.954,0,0,0,.48.821,4.009,4.009,0,0,0,.924-.236,3.705,3.705,0,0,1,1.395-.265,3.737,3.737,0,0,1,1.427.276,3.8,3.8,0,0,1,1.044.682l.091.082.1.1,2.095,2.71a3.718,3.718,0,0,1,.818,2.353,3.323,3.323,0,0,1-.986,2.319,1.945,1.945,0,0,0-.185.237.728.728,0,0,0,.389.932l.118.049a3.29,3.29,0,0,1,1.821,3.824l-.021.1-.034.153-.013.03v.005a14.886,14.886,0,0,1-.695,2.277,14.3,14.3,0,0,1-1.134,2.084l-.014.038-.137.2a3.393,3.393,0,0,1-2.82,1.648h0a3.07,3.07,0,0,1-1.188-.241l-.127-.053a.7.7,0,0,0-.268-.053.732.732,0,0,0-.675.447l-.062.152-.01.016c0,.021,0,.044-.005.064l0,.084a3.561,3.561,0,0,1-2.608,3.5l-.092.043-3.656.4C676.869-46.272,676.757-46.269,676.653-46.269Zm-.344-3.508a.462.462,0,0,0,.237.239.218.218,0,0,0,.108.015l.111,0,3.177-.355a.355.355,0,0,0,.154-.243,3.211,3.211,0,0,1,.017-.566,3.214,3.214,0,0,1,.338-1.172A3.978,3.978,0,0,1,684.1-54.24a3.938,3.938,0,0,1,1.526.307l.033.014a.731.731,0,0,0,.07-.078l.024-.066.124-.156,0-.007a11.749,11.749,0,0,0,.905-1.639l0-.01a11.367,11.367,0,0,0,.53-1.781l.005-.023.015-.142.032-.073a.681.681,0,0,0,0-.136l-.016-.007a3.986,3.986,0,0,1-2.129-5.209,4.485,4.485,0,0,1,.857-1.242l.03-.03c.049-.048.022-.2-.1-.347L686-64.882l-1.917-2.48a1.336,1.336,0,0,0-.11-.087.553.553,0,0,0-.165-.022.5.5,0,0,0-.159.022l-.008,0a6.8,6.8,0,0,1-2.318.487,2.846,2.846,0,0,1-1.112-.2,5.3,5.3,0,0,1-2.21-2.644.468.468,0,0,0-.234-.24.992.992,0,0,0-.131-.016l-3.191.326a.364.364,0,0,0-.147.244v.039a4.277,4.277,0,0,1-.275,1.65,3.979,3.979,0,0,1-3.679,2.452,3.938,3.938,0,0,1-1.526-.307l-.026-.011a.837.837,0,0,0-.114.138,2,2,0,0,1-.107.172l0,0a12.811,12.811,0,0,0-.9,1.633,11.871,11.871,0,0,0-.53,1.793l-.01.142-.042.1a.314.314,0,0,0,.007.131.111.111,0,0,0,.023.022,3.984,3.984,0,0,1,2.058,5.179,4.558,4.558,0,0,1-.853,1.236l-.045.044a.407.407,0,0,0,0,.388c.519.7,1.43,1.9,1.817,2.332.055.048.124.106.157.127a.4.4,0,0,0,.15.031.607.607,0,0,0,.2-.041l.053-.019c.044-.016.1-.036.155-.054a7.329,7.329,0,0,1,2.194-.445,2.8,2.8,0,0,1,1.086.2A5,5,0,0,1,676.309-49.777Zm.893-4.632a5.3,5.3,0,0,1-2.055-.414,5.3,5.3,0,0,1-2.881-2.907,5.33,5.33,0,0,1,.019-4.1,5.345,5.345,0,0,1,4.94-3.3,5.3,5.3,0,0,1,2.055.413,5.356,5.356,0,0,1,2.863,7A5.346,5.346,0,0,1,677.2-54.409Zm.023-7.457a2.1,2.1,0,0,0-1.937,1.3,2.1,2.1,0,0,0-.009,1.61,2.067,2.067,0,0,0,1.123,1.134,2.062,2.062,0,0,0,.8.162,2.1,2.1,0,0,0,1.938-1.3,2.1,2.1,0,0,0-1.115-2.745A2.062,2.062,0,0,0,677.225-61.866Z" transform="translate(-663.831 73.32)" fill="#ea8030"/>
      </g>
      <g id="グループ_2711" data-name="グループ 2711" transform="translate(693.458 -69.734)">
        <path id="パス_4593" data-name="パス 4593" d="M706.1-47.172a3,3,0,0,1-.762-.1,3.31,3.31,0,0,1-2-1.5l-.005-.009a4.247,4.247,0,0,0-.32-.475c-.119.048-.278.119-.486.224l-.006,0-.058.032-.023.012a3.331,3.331,0,0,1-1.583.405,3.291,3.291,0,0,1-.818-.1l-.007,0a3.363,3.363,0,0,1-.983-.456l-.008,0c-.048-.03-.09-.059-.108-.071l-.044-.031-.042-.034c-.513-.412-1.612-1.511-1.952-1.854l-.048-.039-.086-.1a3.228,3.228,0,0,1-.217-4.043c.022-.033.053-.085.073-.124a.261.261,0,0,0-.035-.162.244.244,0,0,0-.151-.116l-.149-.039-.093-.037a3.047,3.047,0,0,1-1.932-3.091l.006-.09.012-.156.006-.021a12.158,12.158,0,0,1,.294-1.917,12.568,12.568,0,0,1,.669-1.815l.013-.053.09-.18a2.971,2.971,0,0,1,2.684-1.838,2.826,2.826,0,0,1,.707.091l.095.024a.242.242,0,0,0,.062.008.265.265,0,0,0,.241-.167,1.072,1.072,0,0,0-.01-.133l-.007-.037a3.169,3.169,0,0,1,2.085-3.5l.116-.033,2.743-.686.182-.024.05,0c.1-.007.223-.016.369-.016a2.99,2.99,0,0,1,.758.093,3.314,3.314,0,0,1,2,1.5l0,.007a2.84,2.84,0,0,0,.291.391,2.827,2.827,0,0,0,.446-.2,3.36,3.36,0,0,1,1.686-.447,3.2,3.2,0,0,1,.8.1,3.36,3.36,0,0,1,1,.461l.087.058.118.08,1.991,1.927a3.3,3.3,0,0,1,1.016,1.965,2.984,2.984,0,0,1-.57,2.175c-.023.034-.056.09-.077.13a.263.263,0,0,0,.036.159.245.245,0,0,0,.152.116l.1.025a2.95,2.95,0,0,1,2.125,3.154l-.015.208-.005.022,0,.02a11.915,11.915,0,0,1-.3,1.931,11.788,11.788,0,0,1-.681,1.841l-.008.029-.081.166a2.975,2.975,0,0,1-2.689,1.847h0a2.822,2.822,0,0,1-.707-.091l-.1-.027a.238.238,0,0,0-.059-.007.265.265,0,0,0-.247.185l-.024.105,0,.029a3.185,3.185,0,0,1-1.847,3.416l-.086.055-2.912.754A3.648,3.648,0,0,1,706.1-47.172Zm.033-3.264,0,0,.039-.007,2.3-.6a3.221,3.221,0,0,1-.035-.377,2.9,2.9,0,0,1,.15-1.088,3.515,3.515,0,0,1,3.379-2.554,3.5,3.5,0,0,1,.651.061l0-.009.011-.023a8.982,8.982,0,0,0,.511-1.349l0-.011a8.824,8.824,0,0,0,.206-1.406l0-.044a3.477,3.477,0,0,1-1.915-1.554,3.5,3.5,0,0,1-.372-2.658,3.826,3.826,0,0,1,.511-1.079l-1.761-1.7-.017,0a5.347,5.347,0,0,1-2.325.719,2.386,2.386,0,0,1-.6-.073,4.473,4.473,0,0,1-2.249-1.988l0,0-2.281.571a3.637,3.637,0,0,1-.048,1.391,3.516,3.516,0,0,1-3.4,2.64,3.493,3.493,0,0,1-.643-.06l-.014.03v0a9.985,9.985,0,0,0-.511,1.35,9.525,9.525,0,0,0-.2,1.384l.008.087a3.475,3.475,0,0,1,1.859,1.536,3.5,3.5,0,0,1,.372,2.657,3.885,3.885,0,0,1-.561,1.153c.514.518,1.3,1.286,1.63,1.569l.041.026.03-.014c.044-.024.112-.061.159-.084a5.184,5.184,0,0,1,2.21-.669,2.37,2.37,0,0,1,.595.073A4.094,4.094,0,0,1,706.13-50.437Zm-.708-3.24a4.6,4.6,0,0,1-1.149-.146,4.615,4.615,0,0,1-3.3-5.617,4.61,4.61,0,0,1,4.46-3.465,4.606,4.606,0,0,1,1.15.146,4.565,4.565,0,0,1,2.815,2.125,4.591,4.591,0,0,1,.488,3.493A4.609,4.609,0,0,1,705.422-53.676Zm.006-5.974a1.356,1.356,0,0,0-1.309,1.023,1.356,1.356,0,0,0,.966,1.654,1.349,1.349,0,0,0,.337.043,1.355,1.355,0,0,0,1.308-1.023,1.357,1.357,0,0,0-.143-1.033,1.332,1.332,0,0,0-.821-.621A1.35,1.35,0,0,0,705.428-59.65Z" transform="translate(-694.248 69.433)" fill="#ea8030"/>
      </g>
      <g id="グループ_2712" data-name="グループ 2712" transform="translate(676.288 -50.913)">
        <path id="パス_4594" data-name="パス 4594" d="M691.267-17.182a3.755,3.755,0,0,1-1.5-.294,4.127,4.127,0,0,1-2.2-2.209l0-.01a5.3,5.3,0,0,0-.734-1.334,6.17,6.17,0,0,0-1.383.344l-.011,0c-.04.013-.1.036-.133.048l-.008,0a4.112,4.112,0,0,1-3.026-.053,4.179,4.179,0,0,1-1.14-.748l-.016-.014a2.155,2.155,0,0,1-.192-.18c-.665-.714-2.154-2.713-2.461-3.126l-.047-.053-.059-.089a4,4,0,0,1,.452-5.01,2.443,2.443,0,0,0,.28-.366,1.176,1.176,0,0,0-.629-1.528l-.165-.07-.086-.05a3.716,3.716,0,0,1-1.8-4.118l.025-.115.032-.14.008-.019.01-.039a17.046,17.046,0,0,1,.809-2.678,18.074,18.074,0,0,1,1.334-2.449l.02-.032.015-.023.021-.046.1-.154a3.742,3.742,0,0,1,3.109-1.838,3.345,3.345,0,0,1,1.3.264l.14.059a1.141,1.141,0,0,0,.44.088,1.182,1.182,0,0,0,1.092-.728,1.789,1.789,0,0,0,.054-.473l0-.06a3.9,3.9,0,0,1,3.154-3.914l.127-.017,4.142-.423.245.006a4.175,4.175,0,0,1,1.4.293,4.133,4.133,0,0,1,2.2,2.209l0,.006a4.8,4.8,0,0,0,.724,1.184,4.81,4.81,0,0,0,1.357-.317,4.1,4.1,0,0,1,1.54-.292,4.134,4.134,0,0,1,1.582.306,4.262,4.262,0,0,1,1.165.767l.092.083.106.1,2.48,3.208a4.114,4.114,0,0,1,.909,2.605,3.648,3.648,0,0,1-1.083,2.547,2.449,2.449,0,0,0-.282.37,1.176,1.176,0,0,0,.629,1.528l.135.056a3.615,3.615,0,0,1,1.986,4.209l-.025.113-.032.131c-.006.025-.013.05-.02.076a17.436,17.436,0,0,1-.812,2.666,17.007,17.007,0,0,1-1.362,2.493l-.012.029-.123.181a3.74,3.74,0,0,1-3.106,1.834h0a3.345,3.345,0,0,1-1.3-.264l-.143-.059a1.148,1.148,0,0,0-.448-.092,1.18,1.18,0,0,0-1.089.722l-.075.184-.023.034a1.1,1.1,0,0,0-.019.183l.005.1a3.923,3.923,0,0,1-2.919,3.867l-.088.039-4.269.472C691.515-17.186,691.387-17.182,691.267-17.182Zm-.694-3.749a.862.862,0,0,0,.451.453.536.536,0,0,0,.243.041c.045,0,.1,0,.164-.006l3.759-.418.055-.009a.672.672,0,0,0,.435-.591,3.408,3.408,0,0,1,.017-.645,3.5,3.5,0,0,1,.379-1.306,4.426,4.426,0,0,1,4.058-2.644,4.378,4.378,0,0,1,1.7.342l.142.059a.145.145,0,0,0,.045.013c.037,0,.182-.074.346-.306l.023-.055.106-.143.013-.021a14.392,14.392,0,0,0,1.114-2.016l0-.01a13.811,13.811,0,0,0,.648-2.173l.008-.033.01-.11.04-.1a.721.721,0,0,0-.051-.5h0l-.008,0-.135-.056a4.435,4.435,0,0,1-2.373-5.8,5.106,5.106,0,0,1,.951-1.376l.036-.036c.221-.215.11-.58-.088-.828l-.014-.017-2.3-2.979a1.372,1.372,0,0,0-.228-.17.873.873,0,0,0-.326-.054.866.866,0,0,0-.307.049l-.007,0a7.751,7.751,0,0,1-2.643.558,3.084,3.084,0,0,1-1.208-.217c-1.443-.6-2.355-2.719-2.463-2.98a.865.865,0,0,0-.452-.456,1.077,1.077,0,0,0-.27-.042l-3.87.4a.7.7,0,0,0-.415.6l0,.044a4.753,4.753,0,0,1-.3,1.841,4.428,4.428,0,0,1-4.094,2.727,4.379,4.379,0,0,1-1.7-.341l-.139-.059a.127.127,0,0,0-.039-.011c-.039,0-.2.084-.379.354-.044.081-.086.142-.11.179l-.021.033a15.558,15.558,0,0,0-1.089,1.977,14.334,14.334,0,0,0-.649,2.191v0l-.009.143-.051.12c-.046.333.059.455.172.531A4.434,4.434,0,0,1,682.08-29a5.108,5.108,0,0,1-.951,1.375l-.046.045a.764.764,0,0,0-.045.848c.624.844,1.749,2.323,2.214,2.84a1.875,1.875,0,0,0,.269.209.792.792,0,0,0,.31.065,1.038,1.038,0,0,0,.349-.068c.075-.028.159-.058.232-.082a8.459,8.459,0,0,1,2.522-.516,2.981,2.981,0,0,1,1.171.215C689.284-23.582,690.1-22.095,690.573-20.931Zm1.35-5.945a6,6,0,0,1-2.327-.468,6.067,6.067,0,0,1-3.241-7.933,6.054,6.054,0,0,1,5.6-3.733,6,6,0,0,1,2.327.469,6.067,6.067,0,0,1,3.24,7.933A6.055,6.055,0,0,1,691.923-26.876Zm.028-8.881a2.808,2.808,0,0,0-2.593,1.734,2.809,2.809,0,0,0,1.494,3.676,2.764,2.764,0,0,0,1.071.216,2.809,2.809,0,0,0,2.594-1.734,2.809,2.809,0,0,0-1.494-3.676A2.765,2.765,0,0,0,691.952-35.756Z" transform="translate(-676.313 48.775)" fill="#ea8030"/>
      </g>
    </g>
  </g>
</svg>
