<svg xmlns="http://www.w3.org/2000/svg" width="134.03" height="40" viewBox="0 0 134.03 40">
  <g id="グループ_2502" data-name="グループ 2502" transform="translate(-178.928 -68.598)">
    <g id="グループ_2504" data-name="グループ 2504" transform="translate(178.928 70.387)">
      <path id="パス_3316" data-name="パス 3316" d="M224.338,83.49a13.572,13.572,0,0,0-2.684-7.235l-1.067,3.7a11.272,11.272,0,0,1,.959,3.743V83.7c0,.006-.014.011-.013.018,0,.079,0,.159.006.238h.006a1.4,1.4,0,0,0,1.394,1.092,1.388,1.388,0,0,0,1.423-1.347A1.269,1.269,0,0,0,224.338,83.49ZM194.8,81.878a11.772,11.772,0,0,0-4.579-.92c-6.237,0-11.292,4.705-11.292,10.613s5.055,10.614,11.292,10.614l3.225.038a1.37,1.37,0,1,0,0-2.736c-.022,0-.042-.006-.064-.006H190.22a7.961,7.961,0,1,1,0-15.89,8.815,8.815,0,0,1,3.43.713l3.3,1.4.634-3.36a11.906,11.906,0,0,1,11.9-9.412,12.584,12.584,0,0,1,2.981.357l3.71-1.523a15.509,15.509,0,0,0-6.706-1.509A14.7,14.7,0,0,0,194.8,81.878Z" transform="translate(-178.928 -70.256)" fill="#ea8030"/>
      <g id="グループ_2502-2" data-name="グループ 2502" transform="translate(24.534 1.458)">
        <path id="パス_3317" data-name="パス 3317" d="M207,83.838l-.025-2.878L218.8,71.607,215.66,82.5l-6.38-1.125Z" transform="translate(-201.253 -71.607)" fill="#ea8030"/>
        <path id="パス_3318" data-name="パス 3318" d="M205.325,80.178l-3.654-1.373,17.061-7Z" transform="translate(-201.671 -71.592)" fill="#ea8030"/>
      </g>
      <g id="グループ_2503" data-name="グループ 2503" transform="translate(16.551 17.941)">
        <path id="パス_3319" data-name="パス 3319" d="M210.795,99.753v-11.5a1.248,1.248,0,0,1,.407-.942,1.441,1.441,0,0,1,1.961,0,1.293,1.293,0,0,1,.421.942v11.5a1.285,1.285,0,0,1-.421.941,1.438,1.438,0,0,1-1.961,0A1.241,1.241,0,0,1,210.795,99.753Z" transform="translate(-192.97 -86.875)" fill="#ea8030"/>
        <path id="パス_3320" data-name="パス 3320" d="M229.766,99.766l-4.8-10.929a1.422,1.422,0,0,1-.133-.6,1.221,1.221,0,0,1,.107-.506,1.378,1.378,0,0,1,.293-.423,1.3,1.3,0,0,1,.44-.284,1.447,1.447,0,0,1,.547-.1,1.464,1.464,0,0,1,.773.22,1.4,1.4,0,0,1,.547.653l3.75,8.477,3.749-8.5a1.493,1.493,0,0,1,.461-.613,1.349,1.349,0,0,1,.848-.234,1.455,1.455,0,0,1,.547.1,1.314,1.314,0,0,1,.44.284,1.478,1.478,0,0,1,.3.423,1.178,1.178,0,0,1,.113.506,1.406,1.406,0,0,1-.147.6l-7.671,17.425a1.515,1.515,0,0,1-.534.639,1.445,1.445,0,0,1-1.781-.135,1.252,1.252,0,0,1-.395-.945,1.335,1.335,0,0,1,.134-.583Z" transform="translate(-191.865 -86.875)" fill="#ea8030"/>
        <path id="パス_3321" data-name="パス 3321" d="M224.022,88.084a1.4,1.4,0,0,0-1.585-1.147c-.012,0-.022.006-.033.008a.156.156,0,0,0-.038,0,8.165,8.165,0,0,0-1.447.341,7.879,7.879,0,0,0-2.2,1.174v-.255a1.245,1.245,0,0,0-.41-.938,1.388,1.388,0,0,0-.99-.389,1.4,1.4,0,0,0-1,.389,1.242,1.242,0,0,0-.411.938V99.846a1.244,1.244,0,0,0,.411.938,1.4,1.4,0,0,0,1,.389,1.384,1.384,0,0,0,.99-.389,1.246,1.246,0,0,0,.41-.938V94.026a4.185,4.185,0,0,1,.371-1.75,4.512,4.512,0,0,1,1.011-1.423,4.835,4.835,0,0,1,1.5-.958,4.361,4.361,0,0,1,1.184-.312v0a.059.059,0,0,0,.019,0A1.348,1.348,0,0,0,224.022,88.084Z" transform="translate(-192.568 -86.879)" fill="#ea8030"/>
        <path id="パス_3322" data-name="パス 3322" d="M206.425,99.766v-.251a7.814,7.814,0,0,1-2.175,1.161,7.619,7.619,0,0,1-2.509.4,7.4,7.4,0,0,1-5.283-2.072,6.816,6.816,0,0,1,0-10.007,7.771,7.771,0,0,1,10.566,0,6.634,6.634,0,0,1,2.189,5v5.764a1.227,1.227,0,0,1-.407.928,1.369,1.369,0,0,1-.981.386,1.386,1.386,0,0,1-.995-.386A1.227,1.227,0,0,1,206.425,99.766Zm-4.684-10.2a4.788,4.788,0,0,0-1.84.353,4.74,4.74,0,0,0-1.481.955,4.5,4.5,0,0,0-.994,1.409,4.2,4.2,0,0,0,0,3.437,4.5,4.5,0,0,0,.994,1.41,4.836,4.836,0,0,0,6.637-.006,4.557,4.557,0,0,0,1-1.409,4.184,4.184,0,0,0,0-3.426,4.553,4.553,0,0,0-1-1.408,4.772,4.772,0,0,0-3.316-1.314Z" transform="translate(-194.271 -86.875)" fill="#ea8030"/>
      </g>
    </g>
    <text id="DIVERSITY" transform="translate(245.958 82.598)" fill="#ea8030" font-size="15" font-family="DINAlternate-Bold, DIN Alternate" font-weight="700"><tspan x="0" y="0">DIVERSITY</tspan></text>
    <text id="CLOUD" transform="translate(246.727 101.657)" fill="#ea8030" font-size="15" font-family="DINAlternate-Bold, DIN Alternate" font-weight="700"><tspan x="0" y="0">CLOUD</tspan></text>
  </g>
</svg>
