<svg id="グループ_1522" data-name="グループ 1522" xmlns="http://www.w3.org/2000/svg" width="114.508" height="61.343" viewBox="0 0 114.508 61.343">
  <path id="パス_789" data-name="パス 789" d="M251.912,72.16V43.25a3.133,3.133,0,0,1,1.024-2.368,3.618,3.618,0,0,1,4.93,0,3.252,3.252,0,0,1,1.058,2.368V72.16a3.234,3.234,0,0,1-1.058,2.364,3.612,3.612,0,0,1-4.93,0A3.115,3.115,0,0,1,251.912,72.16Z" transform="translate(-207.444 -29.315)" fill="#fff"/>
  <path id="パス_790" data-name="パス 790" d="M297.975,72.192,285.9,44.714a3.582,3.582,0,0,1-.335-1.5,3.088,3.088,0,0,1,.269-1.27,3.486,3.486,0,0,1,.739-1.064,3.28,3.28,0,0,1,1.106-.714,3.64,3.64,0,0,1,1.374-.256,3.693,3.693,0,0,1,1.947.554,3.512,3.512,0,0,1,1.374,1.64L301.8,63.422l9.426-21.379a3.765,3.765,0,0,1,1.157-1.541,3.4,3.4,0,0,1,2.132-.589,3.663,3.663,0,0,1,1.375.256,3.314,3.314,0,0,1,1.106.714,3.678,3.678,0,0,1,.753,1.064,2.93,2.93,0,0,1,.285,1.27,3.557,3.557,0,0,1-.368,1.5l-19.288,43.81a3.789,3.789,0,0,1-1.343,1.607,3.633,3.633,0,0,1-4.477-.338,3.159,3.159,0,0,1-.993-2.379,3.358,3.358,0,0,1,.336-1.464Z" transform="translate(-203.527 -29.404)" fill="#fff"/>
  <path id="パス_791" data-name="パス 791" d="M284.573,42.826a3.519,3.519,0,0,0-3.984-2.883.674.674,0,0,1-.083.019.475.475,0,0,0-.1,0,20.6,20.6,0,0,0-3.637.856,19.882,19.882,0,0,0-5.525,2.951v-.639a3.132,3.132,0,0,0-1.032-2.36,3.7,3.7,0,0,0-5.013,0,3.123,3.123,0,0,0-1.035,2.36V72.4a3.125,3.125,0,0,0,1.035,2.36,3.7,3.7,0,0,0,5.013,0,3.133,3.133,0,0,0,1.032-2.36V57.765a10.514,10.514,0,0,1,.933-4.4,11.337,11.337,0,0,1,2.541-3.576,12.114,12.114,0,0,1,3.78-2.409,10.972,10.972,0,0,1,2.98-.785v0a.332.332,0,0,0,.048,0A3.391,3.391,0,0,0,284.573,42.826Z" transform="translate(-206.01 -29.33)" fill="#fff"/>
  <path id="パス_792" data-name="パス 792" d="M242.852,72.192V71.56a19.6,19.6,0,0,1-5.467,2.92,19.184,19.184,0,0,1-6.308,1.017,18.6,18.6,0,0,1-13.284-5.211,17.135,17.135,0,0,1,0-25.16,19.534,19.534,0,0,1,26.566,0,16.677,16.677,0,0,1,5.5,12.576V72.192a3.092,3.092,0,0,1-1.021,2.333,3.66,3.66,0,0,1-4.967,0A3.087,3.087,0,0,1,242.852,72.192ZM231.077,46.551a12.033,12.033,0,0,0-4.629.887,11.91,11.91,0,0,0-3.723,2.4,11.338,11.338,0,0,0-2.5,3.542,10.573,10.573,0,0,0,0,8.641,11.353,11.353,0,0,0,2.5,3.545,12.157,12.157,0,0,0,16.688-.018,11.435,11.435,0,0,0,2.518-3.541,10.533,10.533,0,0,0,0-8.614,11.425,11.425,0,0,0-2.518-3.538,11.991,11.991,0,0,0-8.336-3.3Z" transform="translate(-212.292 -29.315)" fill="#fff"/>
  <circle id="楕円形_7" data-name="楕円形 7" cx="3.506" cy="3.506" r="3.506" transform="translate(44.467 0)" fill="#fff"/>
</svg>
