<svg id="グループ_1663" data-name="グループ 1663" xmlns="http://www.w3.org/2000/svg" width="324" height="198" viewBox="0 0 324 198">
  <path id="パス_890" data-name="パス 890" d="M414.783,200.931a70.489,70.489,0,0,0-13.94-37.578L395.3,182.559A58.514,58.514,0,0,1,400.283,202v.028c0,.039-.073.062-.067.1.022.409.017.824.034,1.238l.034-.006a7.285,7.285,0,0,0,7.239,5.67,7.208,7.208,0,0,0,7.39-7A6.527,6.527,0,0,0,414.783,200.931ZM261.362,192.56a61.141,61.141,0,0,0-23.784-4.779c-32.4,0-58.65,24.439-58.65,55.12s26.255,55.12,58.65,55.12l16.752.2a7.113,7.113,0,1,0,0-14.209c-.112,0-.218-.034-.331-.034H237.578c-24.238,0-43.959-18.181-43.959-41.136s19.722-41.393,43.959-41.393a45.881,45.881,0,0,1,17.817,3.7l17.139,7.278,3.294-17.453c5.334-28.333,31.376-48.884,61.8-48.884a65.359,65.359,0,0,1,15.481,1.855l19.268-7.911a80.554,80.554,0,0,0-34.832-7.838C299.461,132.2,267.827,158.249,261.362,192.56Z" transform="translate(-178.928 -132.196)" fill="#fff"/>
  <g id="グループ_1661" data-name="グループ 1661" transform="translate(127.285 7.572)">
    <path id="パス_891" data-name="パス 891" d="M207.11,197.071l-.132-14.946,61.4-48.577-16.307,56.564-33.139-5.845Z" transform="translate(-177.244 -133.547)" fill="#fff"/>
    <path id="パス_892" data-name="パス 892" d="M220.65,177.231,201.671,170.1l88.614-36.353Z" transform="translate(-201.671 -132.633)" fill="#fff"/>
  </g>
  <g id="グループ_1662" data-name="グループ 1662" transform="translate(85.708 92.718)">
    <path id="パス_893" data-name="パス 893" d="M210.795,215.479v-59.72a6.482,6.482,0,0,1,2.112-4.891,7.484,7.484,0,0,1,10.186,0,6.717,6.717,0,0,1,2.185,4.891v59.72a6.676,6.676,0,0,1-2.185,4.886,7.469,7.469,0,0,1-10.186,0A6.444,6.444,0,0,1,210.795,215.479Z" transform="translate(-118.215 -148.593)" fill="#fff"/>
    <path id="パス_894" data-name="パス 894" d="M250.468,215.547l-24.949-56.762a7.39,7.39,0,0,1-.689-3.093,6.339,6.339,0,0,1,.555-2.628,7.159,7.159,0,0,1,1.524-2.2,6.771,6.771,0,0,1,2.286-1.474,7.513,7.513,0,0,1,2.841-.527,7.6,7.6,0,0,1,4.017,1.143,7.253,7.253,0,0,1,2.841,3.39l19.475,44.027,19.47-44.161a7.752,7.752,0,0,1,2.392-3.182,7,7,0,0,1,4.4-1.216,7.555,7.555,0,0,1,2.841.527,6.829,6.829,0,0,1,2.286,1.474,7.676,7.676,0,0,1,1.558,2.2,6.12,6.12,0,0,1,.588,2.628,7.324,7.324,0,0,1-.762,3.093l-39.842,90.5a7.871,7.871,0,0,1-2.773,3.317,7.5,7.5,0,0,1-9.25-.7A6.5,6.5,0,0,1,237.229,247a6.937,6.937,0,0,1,.695-3.026Z" transform="translate(-53.614 -148.593)" fill="#fff"/>
    <path id="パス_895" data-name="パス 895" d="M258.057,155.077a7.271,7.271,0,0,0-8.23-5.956c-.062.011-.112.034-.174.039a.808.808,0,0,0-.2.011,42.91,42.91,0,0,0-7.513,1.765,41.086,41.086,0,0,0-11.413,6.1v-1.322a6.466,6.466,0,0,0-2.129-4.874,7.212,7.212,0,0,0-5.143-2.023,7.29,7.29,0,0,0-5.216,2.023,6.451,6.451,0,0,0-2.135,4.874V216.17a6.46,6.46,0,0,0,2.135,4.874,7.267,7.267,0,0,0,5.216,2.023,7.188,7.188,0,0,0,5.143-2.023,6.474,6.474,0,0,0,2.129-4.874V185.937a21.737,21.737,0,0,1,1.927-9.088,23.431,23.431,0,0,1,5.25-7.39,25.111,25.111,0,0,1,7.81-4.975,22.646,22.646,0,0,1,6.152-1.619v-.011a.307.307,0,0,0,.1,0A7,7,0,0,0,258.057,155.077Z" transform="translate(-94.685 -148.819)" fill="#fff"/>
    <path id="パス_896" data-name="パス 896" d="M257.4,215.547v-1.305a40.584,40.584,0,0,1-11.3,6.029,39.574,39.574,0,0,1-13.032,2.1A38.414,38.414,0,0,1,205.633,211.6a35.4,35.4,0,0,1,0-51.971,40.359,40.359,0,0,1,54.879,0,34.457,34.457,0,0,1,11.368,25.98v29.936a6.379,6.379,0,0,1-2.112,4.818,7.112,7.112,0,0,1-5.093,2.006,7.2,7.2,0,0,1-5.166-2.006A6.379,6.379,0,0,1,257.4,215.547ZM233.07,162.578a24.868,24.868,0,0,0-9.558,1.832,24.619,24.619,0,0,0-7.693,4.958,23.352,23.352,0,0,0-5.16,7.317,21.8,21.8,0,0,0,0,17.851,23.376,23.376,0,0,0,5.16,7.323,25.12,25.12,0,0,0,34.474-.034,23.673,23.673,0,0,0,5.2-7.317,21.73,21.73,0,0,0,0-17.794,23.649,23.649,0,0,0-5.2-7.312,24.782,24.782,0,0,0-17.223-6.824Z" transform="translate(-194.271 -148.593)" fill="#fff"/>
  </g>
</svg>
