<svg xmlns="http://www.w3.org/2000/svg" width="102" height="100" viewBox="0 0 102 100">
  <g id="グループ_1947" data-name="グループ 1947" transform="translate(-253.168 -593.256)">
    <path id="パス_1990" data-name="パス 1990" d="M341.239,595.562a1.821,1.821,0,0,0,.066-.277,2.332,2.332,0,0,0-.021-.584c-.007-.037,0-.076-.011-.113-.015-.055-.049-.1-.069-.151a1.732,1.732,0,0,0-.127-.277,1.713,1.713,0,0,0-.174-.242c-.036-.043-.057-.1-.1-.137s-.065-.042-.1-.068a1.719,1.719,0,0,0-.244-.173,1.692,1.692,0,0,0-.256-.137,1.731,1.731,0,0,0-.262-.078,1.769,1.769,0,0,0-.31-.051c-.038,0-.072-.018-.111-.018H284.54a1.8,1.8,0,0,0-.9,3.355l26.589,15.264v30.53a1.8,1.8,0,0,0,1.34,1.737,1.817,1.817,0,0,0,2.034-.838l27.493-47.352c.02-.034.024-.073.041-.109A1.785,1.785,0,0,0,341.239,595.562Zm-10.424,2.416-18.478,10.608a.611.611,0,0,1-.608,0L293.25,597.978a.6.6,0,0,1,.3-1.126h36.957A.6.6,0,0,1,330.815,597.978ZM314.143,611.7l18.492-10.616a.6.6,0,0,1,.825.82l-18.492,31.85a.6.6,0,0,1-1.127-.3V612.222A.6.6,0,0,1,314.143,611.7Z" transform="translate(-7.855)" fill="#fff"/>
    <path id="パス_1991" data-name="パス 1991" d="M253.168,690.893h17.057v3.931H257.21v7.888h13.015v3.7H257.21v8.115h13.015v3.931H253.168Z" transform="translate(0 -25.43)" fill="#fff"/>
    <path id="パス_1992" data-name="パス 1992" d="M290.866,690.893h9.343a8.921,8.921,0,0,1,8.134,4.65,8.483,8.483,0,0,1,1.226,3.252,58.086,58.086,0,0,1,.2,5.88,41.418,41.418,0,0,1-.311,6.2,7.146,7.146,0,0,1-.44,1.588,14.958,14.958,0,0,1-.751,1.417,9.437,9.437,0,0,1-3.26,3.215,9.04,9.04,0,0,1-5.074,1.361h-9.067Zm4.043,23.635h4.84a5.438,5.438,0,0,0,4.951-2.406,4.679,4.679,0,0,0,.862-2.254,49.929,49.929,0,0,0,.165-5.039q0-3.6-.165-5.154a4.828,4.828,0,0,0-1.045-2.519,5.309,5.309,0,0,0-4.768-2.331h-4.84Z" transform="translate(-9.906 -25.43)" fill="#fff"/>
    <path id="パス_1993" data-name="パス 1993" d="M348.16,703.215v5.607a9.91,9.91,0,0,1-2.745,6.93,9.294,9.294,0,0,1-6.772,2.851,9.6,9.6,0,0,1-8.365-4.954q-.293-.623-.531-1.19a8.014,8.014,0,0,1-.366-1.475,74.927,74.927,0,0,1,0-12.819,7.78,7.78,0,0,1,.9-2.629,9.4,9.4,0,0,1,3.112-3.4,9.618,9.618,0,0,1,11.55.812,10.505,10.505,0,0,1,3.075,5.8h-4.29a6.116,6.116,0,0,0-1.8-2.851,5.179,5.179,0,0,0-3.3-1.159,5.463,5.463,0,0,0-2.457.587,5.16,5.16,0,0,0-1.686,1.421,4.642,4.642,0,0,0-1.045,2.293,34.113,34.113,0,0,0-.293,5.551,33.349,33.349,0,0,0,.293,5.514,4.672,4.672,0,0,0,1.046,2.33,4.762,4.762,0,0,0,1.687,1.383,4.638,4.638,0,0,0,2.458.626,5.087,5.087,0,0,0,3.907-1.669,5.9,5.9,0,0,0,1.578-4.191v-1.441Z" transform="translate(-19.954 -25.348)" fill="#fff"/>
    <path id="パス_1994" data-name="パス 1994" d="M368.4,690.893h17.057v3.931H372.441v7.888h13.015v3.7H372.441v8.115h13.015v3.931H368.4Z" transform="translate(-30.288 -25.43)" fill="#fff"/>
    <path id="パス_1995" data-name="パス 1995" d="M343.195,707.786h7.627l-4.043,3.929h-7.657Z" transform="translate(-22.607 -29.918)" fill="#e17000"/>
  </g>
</svg>
