<svg xmlns="http://www.w3.org/2000/svg" width="20" height="12.004" viewBox="0 0 20 12.004">
  <g id="グループ_1655" data-name="グループ 1655" transform="translate(-0.623 0.353)">
    <path id="パス_14_-_アウトライン" data-name="パス 14 - アウトライン" d="M6.958,8.485a.823.823,0,0,1-.907-.907l.405-5.546L.91,2.437A.823.823,0,0,1,0,1.53,1.171,1.171,0,0,1,1.053.48L7.578,0A.823.823,0,0,1,8.485.91L8.009,7.435A1.171,1.171,0,0,1,6.958,8.485Z" transform="translate(6.625 -0.353) rotate(45)" fill="#E62E8B"/>
    <path id="パス_15_-_アウトライン" data-name="パス 15 - アウトライン" d="M6.958,8.485a.823.823,0,0,1-.907-.907l.405-5.546L.91,2.437A.823.823,0,0,1,0,1.53,1.171,1.171,0,0,1,1.053.48L7.578,0A.823.823,0,0,1,8.485.91L8.009,7.435A1.171,1.171,0,0,1,6.958,8.485Z" transform="translate(14.621 -0.353) rotate(45)" fill="#E62E8B"/>
  </g>
</svg>
