<svg xmlns="http://www.w3.org/2000/svg" width="184" height="50" viewBox="0 0 184 50">
  <g id="グループ_1630" data-name="グループ 1630" transform="translate(-178.928 -189.522)">
    <g id="グループ_1629" data-name="グループ 1629" transform="translate(178.928 191.763)">
      <path id="パス_865" data-name="パス 865" d="M235.729,207.737a16.976,16.976,0,0,0-3.357-9.05l-1.334,4.625a14.092,14.092,0,0,1,1.2,4.682V208c0,.009-.018.015-.016.024.005.1,0,.2.008.3h.008a1.755,1.755,0,0,0,1.743,1.366A1.736,1.736,0,0,0,235.76,208,1.57,1.57,0,0,0,235.729,207.737Zm-36.949-2.016a14.724,14.724,0,0,0-5.728-1.151c-7.8,0-14.125,5.886-14.125,13.275s6.323,13.275,14.125,13.275l4.034.049a1.713,1.713,0,1,0,0-3.422c-.027,0-.053-.008-.08-.008h-3.955c-5.837,0-10.587-4.379-10.587-9.907s4.75-9.969,10.587-9.969a11.05,11.05,0,0,1,4.291.891l4.128,1.753.793-4.2c1.285-6.824,7.556-11.773,14.883-11.773a15.74,15.74,0,0,1,3.728.447l4.64-1.905a19.4,19.4,0,0,0-8.389-1.888C207.956,191.183,200.338,197.457,198.781,205.721Z" transform="translate(-178.928 -191.183)" fill="#008f73"/>
      <g id="グループ_1627" data-name="グループ 1627" transform="translate(30.688 1.823)">
        <path id="パス_866" data-name="パス 866" d="M207.01,207.833l-.032-3.6,14.787-11.7-3.927,13.622-7.981-1.408Z" transform="translate(-199.817 -192.534)" fill="#008f73"/>
        <path id="パス_867" data-name="パス 867" d="M206.242,203.205l-4.571-1.718,21.341-8.755Z" transform="translate(-201.671 -192.465)" fill="#008f73"/>
      </g>
      <g id="グループ_1628" data-name="グループ 1628" transform="translate(20.703 22.404)">
        <path id="パス_868" data-name="パス 868" d="M210.795,223.9V209.515a1.559,1.559,0,0,1,.509-1.178,1.8,1.8,0,0,1,2.453,0,1.615,1.615,0,0,1,.526,1.178V223.9a1.608,1.608,0,0,1-.526,1.177,1.8,1.8,0,0,1-2.453,0A1.552,1.552,0,0,1,210.795,223.9Z" transform="translate(-188.499 -207.789)" fill="#008f73"/>
        <path id="パス_869" data-name="パス 869" d="M231,223.914,225,210.244a1.779,1.779,0,0,1-.166-.745,1.527,1.527,0,0,1,.134-.633,1.725,1.725,0,0,1,.367-.529,1.631,1.631,0,0,1,.55-.355,1.81,1.81,0,0,1,.684-.128,1.833,1.833,0,0,1,.967.277,1.747,1.747,0,0,1,.684.816l4.69,10.6,4.689-10.635a1.867,1.867,0,0,1,.576-.766,1.687,1.687,0,0,1,1.061-.294,1.82,1.82,0,0,1,.684.128,1.644,1.644,0,0,1,.551.355,1.85,1.85,0,0,1,.375.529,1.474,1.474,0,0,1,.142.633,1.763,1.763,0,0,1-.184.745l-9.6,21.8a1.9,1.9,0,0,1-.668.8,1.807,1.807,0,0,1-2.228-.169,1.566,1.566,0,0,1-.494-1.182,1.67,1.67,0,0,1,.167-.729Z" transform="translate(-183.596 -207.789)" fill="#008f73"/>
        <path id="パス_870" data-name="パス 870" d="M226.058,209.313a1.751,1.751,0,0,0-1.982-1.434c-.015,0-.027.008-.042.009a.2.2,0,0,0-.047,0,10.332,10.332,0,0,0-1.809.425,9.9,9.9,0,0,0-2.749,1.469v-.318a1.557,1.557,0,0,0-.513-1.174,1.737,1.737,0,0,0-1.239-.487,1.756,1.756,0,0,0-1.256.487,1.554,1.554,0,0,0-.514,1.174v14.559a1.556,1.556,0,0,0,.514,1.174,1.749,1.749,0,0,0,1.256.486,1.73,1.73,0,0,0,1.239-.486,1.559,1.559,0,0,0,.513-1.174v-7.281a5.235,5.235,0,0,1,.464-2.189,5.644,5.644,0,0,1,1.264-1.78,6.048,6.048,0,0,1,1.881-1.2,5.454,5.454,0,0,1,1.482-.39v0a.074.074,0,0,0,.024,0A1.686,1.686,0,0,0,226.058,209.313Z" transform="translate(-186.713 -207.806)" fill="#008f73"/>
        <path id="パス_871" data-name="パス 871" d="M209.474,223.914V223.6a9.773,9.773,0,0,1-2.72,1.452,9.531,9.531,0,0,1-3.139.506,9.251,9.251,0,0,1-6.608-2.593,8.524,8.524,0,0,1,0-12.516,9.716,9.716,0,0,1,13.217,0,8.3,8.3,0,0,1,2.738,6.257v7.209a1.536,1.536,0,0,1-.509,1.16,1.713,1.713,0,0,1-1.227.483,1.734,1.734,0,0,1-1.244-.483A1.536,1.536,0,0,1,209.474,223.914Zm-5.859-12.757a5.989,5.989,0,0,0-2.3.441,5.929,5.929,0,0,0-1.853,1.194,5.623,5.623,0,0,0-1.243,1.762,5.251,5.251,0,0,0,0,4.3,5.629,5.629,0,0,0,1.243,1.764,6.046,6.046,0,0,0,8.3-.009,5.7,5.7,0,0,0,1.252-1.761,5.234,5.234,0,0,0,0-4.285,5.7,5.7,0,0,0-1.252-1.761,5.969,5.969,0,0,0-4.148-1.643Z" transform="translate(-194.271 -207.789)" fill="#008f73"/>
      </g>
    </g>
    <text id="EDUCATION" transform="translate(262.928 208.522)" fill="#008f73" font-size="20" font-family="DINAlternate-Bold, DIN Alternate" font-weight="700"><tspan x="0" y="0">EDUCATION</tspan></text>
    <text id="CLOUD" transform="translate(263.619 232.171)" fill="#008f73" font-size="20" font-family="DINAlternate-Bold, DIN Alternate" font-weight="700"><tspan x="0" y="0">CLOUD</tspan></text>
  </g>
</svg>
