<svg xmlns="http://www.w3.org/2000/svg" width="213.142" height="50" viewBox="0 0 213.142 50">
  <g id="グループ_2019" data-name="グループ 2019" transform="translate(-177.737 -370.144)">
    <g id="グループ_2018" data-name="グループ 2018" transform="translate(177.737 371.456)">
      <path id="パス_936" data-name="パス 936" d="M235.619,387.966a17.308,17.308,0,0,0-3.421-9.224l-1.36,4.715a14.325,14.325,0,0,1,1.221,4.771v.007c0,.01-.017.015-.015.025.005.1,0,.2.008.3h.007a1.789,1.789,0,0,0,1.778,1.392,1.768,1.768,0,0,0,1.812-1.719A1.6,1.6,0,0,0,235.619,387.966Zm-37.652-2.054a15.005,15.005,0,0,0-5.837-1.173c-7.95,0-14.393,6-14.393,13.527s6.443,13.527,14.393,13.527l4.11.049a1.746,1.746,0,1,0,0-3.487c-.026,0-.052-.008-.08-.008h-4.03c-5.948,0-10.788-4.462-10.788-10.1s4.84-10.158,10.788-10.158A11.26,11.26,0,0,1,196.5,389l4.2,1.785.81-4.282c1.309-6.953,7.7-12,15.166-12a16.041,16.041,0,0,1,3.8.455l4.729-1.941a19.769,19.769,0,0,0-8.548-1.924C207.317,371.1,199.554,377.492,197.967,385.912Z" transform="translate(-177.737 -371.098)" fill="#d91579"/>
      <g id="グループ_2016" data-name="グループ 2016" transform="translate(31.271 1.858)">
        <path id="パス_937" data-name="パス 937" d="M205.819,388.039l-.032-3.668,15.068-11.921-4,13.882L208.72,384.9Z" transform="translate(-198.49 -372.449)" fill="#d91579"/>
        <path id="パス_938" data-name="パス 938" d="M205.138,383.32l-4.658-1.75,21.747-8.921Z" transform="translate(-200.48 -372.375)" fill="#d91579"/>
      </g>
      <g id="グループ_2017" data-name="グループ 2017" transform="translate(21.095 22.851)">
        <path id="パス_939" data-name="パス 939" d="M209.6,404.118V389.462a1.589,1.589,0,0,1,.518-1.2,1.833,1.833,0,0,1,2.5,0,1.646,1.646,0,0,1,.536,1.2v14.656a1.638,1.638,0,0,1-.536,1.2,1.833,1.833,0,0,1-2.5,0A1.582,1.582,0,0,1,209.6,404.118Z" transform="translate(-186.882 -387.703)" fill="#d91579"/>
        <path id="パス_940" data-name="パス 940" d="M229.931,404.134l-6.123-13.93a1.815,1.815,0,0,1-.171-.759,1.578,1.578,0,0,1,.136-.645,1.785,1.785,0,0,1,.375-.539,1.661,1.661,0,0,1,.561-.362,1.843,1.843,0,0,1,.7-.131,1.874,1.874,0,0,1,.986.282,1.773,1.773,0,0,1,.7.832l4.78,10.8,4.778-10.838a1.9,1.9,0,0,1,.587-.781,1.719,1.719,0,0,1,1.081-.3,1.859,1.859,0,0,1,.7.131,1.674,1.674,0,0,1,.561.362,1.884,1.884,0,0,1,.382.539,1.5,1.5,0,0,1,.144.645,1.818,1.818,0,0,1-.187.759l-9.778,22.209a1.931,1.931,0,0,1-.682.815,1.839,1.839,0,0,1-2.269-.172,1.6,1.6,0,0,1-.5-1.2,1.7,1.7,0,0,1,.171-.743Z" transform="translate(-181.62 -387.703)" fill="#d91579"/>
        <path id="パス_941" data-name="パス 941" d="M225.06,389.257a1.784,1.784,0,0,0-2.02-1.462c-.015,0-.027.008-.043.01a.2.2,0,0,0-.048,0,10.535,10.535,0,0,0-1.844.433,10.086,10.086,0,0,0-2.8,1.5v-.324a1.591,1.591,0,0,0-.523-1.2,1.876,1.876,0,0,0-2.542,0,1.584,1.584,0,0,0-.525,1.2V404.25a1.582,1.582,0,0,0,.525,1.195,1.876,1.876,0,0,0,2.542,0,1.589,1.589,0,0,0,.523-1.195V396.83a5.334,5.334,0,0,1,.473-2.23,5.735,5.735,0,0,1,1.288-1.814,6.157,6.157,0,0,1,1.915-1.221,5.567,5.567,0,0,1,1.511-.4v0a.075.075,0,0,0,.025,0A1.718,1.718,0,0,0,225.06,389.257Z" transform="translate(-184.966 -387.721)" fill="#d91579"/>
        <path id="パス_942" data-name="パス 942" d="M208.572,404.134v-.32a9.96,9.96,0,0,1-2.772,1.48,9.717,9.717,0,0,1-3.2.516,9.425,9.425,0,0,1-6.733-2.643,8.684,8.684,0,0,1,0-12.754,9.9,9.9,0,0,1,13.468,0,8.461,8.461,0,0,1,2.79,6.376v7.347a1.57,1.57,0,0,1-.518,1.183,1.745,1.745,0,0,1-1.25.492,1.767,1.767,0,0,1-1.268-.492A1.565,1.565,0,0,1,208.572,404.134Zm-5.97-13a6.1,6.1,0,0,0-2.346.45,6.027,6.027,0,0,0-1.888,1.217,5.73,5.73,0,0,0-1.266,1.8,5.351,5.351,0,0,0,0,4.381,5.736,5.736,0,0,0,1.266,1.8,6.161,6.161,0,0,0,8.46-.01,5.8,5.8,0,0,0,1.276-1.794,5.333,5.333,0,0,0,0-4.367,5.8,5.8,0,0,0-1.276-1.794,6.082,6.082,0,0,0-4.227-1.675Z" transform="translate(-193.079 -387.703)" fill="#d91579"/>
      </g>
    </g>
    <text id="MANAGEMENT" transform="translate(263.879 389.144)" fill="#d91579" font-size="20" font-family="DINAlternate-Bold, DIN Alternate" font-weight="700"><tspan x="0" y="0">MANAGEMENT</tspan></text>
    <text id="CLOUD" transform="translate(263.878 413.247)" fill="#d91579" font-size="20" font-family="DINAlternate-Bold, DIN Alternate" font-weight="700"><tspan x="0" y="0">CLOUD</tspan></text>
  </g>
</svg>
