<svg xmlns="http://www.w3.org/2000/svg" width="215" height="35.001" viewBox="0 0 215 35.001">
  <g id="logoe" transform="translate(-803.771 -150.478)">
    <g id="グループ_1536" data-name="グループ 1536" transform="translate(803.771 150.478)">
      <path id="パス_803" data-name="パス 803" d="M845.537,162.65a12.484,12.484,0,0,0-2.469-6.655l-.981,3.4a10.366,10.366,0,0,1,.881,3.442v.006c0,.006-.013.011-.011.017,0,.073,0,.146.006.22h.005a1.291,1.291,0,0,0,1.282,1,1.276,1.276,0,0,0,1.308-1.24A1.164,1.164,0,0,0,845.537,162.65Zm-27.168-1.482a10.825,10.825,0,0,0-4.212-.846c-5.736,0-10.386,4.327-10.386,9.761s4.65,9.761,10.386,9.761l2.967.036a1.26,1.26,0,1,0,0-2.516c-.02,0-.038-.006-.059-.006h-2.908a7.322,7.322,0,1,1,0-14.615,8.114,8.114,0,0,1,3.155.655l3.035,1.287.584-3.09a10.951,10.951,0,0,1,10.944-8.656,11.574,11.574,0,0,1,2.741.328l3.412-1.4a14.25,14.25,0,0,0-6.168-1.389A13.524,13.524,0,0,0,818.369,161.168Z" transform="translate(-803.771 -150.478)" fill="#ec2959"/>
      <g id="グループ_1534" data-name="グループ 1534" transform="translate(22.565 1.341)">
        <path id="パス_804" data-name="パス 804" d="M847.527,163.834l-.023-2.647,10.872-8.6L855.488,162.6l-5.868-1.035Z" transform="translate(-842.238 -152.585)" fill="#ec2959"/>
        <path id="パス_805" data-name="パス 805" d="M842.59,160.6l-3.361-1.263,15.692-6.438Z" transform="translate(-839.229 -152.698)" fill="#ec2959"/>
      </g>
      <g id="グループ_1535" data-name="グループ 1535" transform="translate(15.222 16.358)">
        <path id="パス_806" data-name="パス 806" d="M853.454,188.267V177.691a1.145,1.145,0,0,1,.374-.865,1.322,1.322,0,0,1,1.8,0,1.186,1.186,0,0,1,.387.865v10.576a1.18,1.18,0,0,1-.387.865,1.322,1.322,0,0,1-1.8,0A1.14,1.14,0,0,1,853.454,188.267Z" transform="translate(-837.059 -176.422)" fill="#ec2959"/>
        <path id="パス_807" data-name="パス 807" d="M879.875,188.278l-4.418-10.052a1.315,1.315,0,0,1-.122-.547,1.134,1.134,0,0,1,.1-.465,1.267,1.267,0,0,1,.27-.389,1.193,1.193,0,0,1,.4-.262,1.333,1.333,0,0,1,.5-.094,1.348,1.348,0,0,1,.712.2,1.289,1.289,0,0,1,.5.6l3.448,7.8,3.448-7.82a1.384,1.384,0,0,1,.423-.564,1.242,1.242,0,0,1,.78-.216,1.341,1.341,0,0,1,.5.094,1.2,1.2,0,0,1,.4.262,1.344,1.344,0,0,1,.276.389,1.082,1.082,0,0,1,.1.465,1.3,1.3,0,0,1-.134.547l-7.056,16.026a1.389,1.389,0,0,1-.491.588,1.328,1.328,0,0,1-1.638-.124,1.153,1.153,0,0,1-.363-.869,1.228,1.228,0,0,1,.123-.536Z" transform="translate(-845.015 -176.422)" fill="#ec2959"/>
        <path id="パス_808" data-name="パス 808" d="M868.887,177.5a1.287,1.287,0,0,0-1.457-1.054.22.22,0,0,1-.031.007.173.173,0,0,0-.035,0,7.448,7.448,0,0,0-1.33.313,7.256,7.256,0,0,0-2.021,1.079v-.234a1.143,1.143,0,0,0-.377-.863,1.276,1.276,0,0,0-.911-.358,1.289,1.289,0,0,0-.923.358,1.14,1.14,0,0,0-.379.863v10.705a1.144,1.144,0,0,0,.379.863,1.286,1.286,0,0,0,.923.358,1.273,1.273,0,0,0,.911-.358,1.147,1.147,0,0,0,.377-.863v-5.354a3.85,3.85,0,0,1,.341-1.609,4.156,4.156,0,0,1,.93-1.308,4.424,4.424,0,0,1,1.383-.881,4.006,4.006,0,0,1,1.09-.288h.017A1.241,1.241,0,0,0,868.887,177.5Z" transform="translate(-839.956 -176.395)" fill="#ec2959"/>
        <path id="パス_809" data-name="パス 809" d="M838.87,188.278v-.231a7.183,7.183,0,0,1-2,1.068,7.03,7.03,0,0,1-2.307.372,6.8,6.8,0,0,1-4.859-1.907,6.266,6.266,0,0,1,0-9.2,7.145,7.145,0,0,1,9.718,0,6.1,6.1,0,0,1,2.013,4.6v5.3a1.131,1.131,0,0,1-.374.853,1.339,1.339,0,0,1-1.817,0A1.131,1.131,0,0,1,838.87,188.278Zm-4.308-9.38a4.4,4.4,0,0,0-3.055,1.2,4.157,4.157,0,0,0-.914,1.3,3.866,3.866,0,0,0,0,3.162,4.162,4.162,0,0,0,.914,1.3,4.449,4.449,0,0,0,6.1-.007,4.177,4.177,0,0,0,.921-1.3,3.849,3.849,0,0,0,0-3.151,4.174,4.174,0,0,0-.921-1.294,4.39,4.39,0,0,0-3.05-1.208Z" transform="translate(-827.691 -176.422)" fill="#ec2959"/>
      </g>
    </g>
    <text id="ENGAGEMENT_CLOUD_" data-name="ENGAGEMENT CLOUD " transform="translate(864.771 176.062)" fill="#ec2959" font-size="16" font-family="DINAlternate-Bold, DIN Alternate" font-weight="700"><tspan x="0" y="0">ENGAGEMENT CLOUD </tspan></text>
  </g>
</svg>
