<svg xmlns="http://www.w3.org/2000/svg" width="150.918" height="35" viewBox="0 0 150.918 35">
  <g id="グループ_2015" data-name="グループ 2015" transform="translate(-861.835 -251.423)">
    <g id="グループ_2014" data-name="グループ 2014" transform="translate(861.835 251.423)">
      <path id="パス_929" data-name="パス 929" d="M903.44,263.548a12.445,12.445,0,0,0-2.46-6.629L900,260.307a10.338,10.338,0,0,1,.879,3.429v.006c0,.006-.013.01-.012.017,0,.072,0,.145.006.218h.006a1.285,1.285,0,0,0,1.277,1,1.2,1.2,0,0,0,1.281-1.429Zm-27.064-1.476a10.8,10.8,0,0,0-4.2-.843c-5.713,0-10.345,4.311-10.345,9.724s4.632,9.723,10.345,9.723l2.955.035a1.255,1.255,0,1,0,0-2.506c-.019,0-.037-.006-.058-.006h-2.9a7.293,7.293,0,1,1,0-14.558,8.072,8.072,0,0,1,3.143.653l3.023,1.283.581-3.079a10.909,10.909,0,0,1,10.9-8.623,11.5,11.5,0,0,1,2.73.327l3.4-1.4a14.2,14.2,0,0,0-6.143-1.383A13.472,13.472,0,0,0,876.376,262.072Z" transform="translate(-861.835 -251.423)" fill="#423c81"/>
      <g id="グループ_2012" data-name="グループ 2012" transform="translate(22.478 1.336)">
        <path id="パス_930" data-name="パス 930" d="M889.468,263.959l-.023-2.637,10.83-8.569-2.876,9.978-5.846-1.031Z" transform="translate(-884.199 -252.753)" fill="#423c81"/>
        <path id="パス_931" data-name="パス 931" d="M887.568,260.619l-3.348-1.258,15.631-6.413Z" transform="translate(-884.221 -252.752)" fill="#423c81"/>
      </g>
      <g id="グループ_2013" data-name="グループ 2013" transform="translate(15.164 16.429)">
        <path id="パス_932" data-name="パス 932" d="M893.2,279.583V269.049a1.138,1.138,0,0,1,.374-.863,1.318,1.318,0,0,1,1.8,0,1.181,1.181,0,0,1,.385.863v10.534a1.176,1.176,0,0,1-.385.862,1.315,1.315,0,0,1-1.8,0A1.133,1.133,0,0,1,893.2,279.583Z" transform="translate(-876.87 -267.785)" fill="#423c81"/>
        <path id="パス_933" data-name="パス 933" d="M911.537,279.6l-4.4-10.013a1.314,1.314,0,0,1-.121-.545,1.125,1.125,0,0,1,.1-.463,1.24,1.24,0,0,1,.27-.388,1.192,1.192,0,0,1,.4-.261,1.327,1.327,0,0,1,.5-.092,1.343,1.343,0,0,1,.709.2,1.274,1.274,0,0,1,.5.6l3.435,7.767,3.435-7.79a1.362,1.362,0,0,1,.422-.561,1.233,1.233,0,0,1,.776-.215,1.34,1.34,0,0,1,.5.092,1.212,1.212,0,0,1,.4.261,1.326,1.326,0,0,1,.275.388,1.07,1.07,0,0,1,.1.463,1.31,1.31,0,0,1-.134.545l-7.029,15.964a1.383,1.383,0,0,1-.49.585,1.323,1.323,0,0,1-1.631-.124,1.149,1.149,0,0,1-.362-.867,1.233,1.233,0,0,1,.122-.533Z" transform="translate(-876.814 -267.785)" fill="#423c81"/>
        <path id="パス_934" data-name="パス 934" d="M905.667,268.888a1.283,1.283,0,0,0-1.452-1.05.265.265,0,0,1-.03.007.147.147,0,0,0-.035,0,7.485,7.485,0,0,0-1.324.311,7.226,7.226,0,0,0-2.013,1.076V269a1.142,1.142,0,0,0-.377-.859,1.271,1.271,0,0,0-.907-.356,1.285,1.285,0,0,0-.92.356,1.139,1.139,0,0,0-.378.859v10.665a1.14,1.14,0,0,0,.378.859,1.28,1.28,0,0,0,.92.356,1.266,1.266,0,0,0,.907-.356,1.143,1.143,0,0,0,.377-.859v-5.333a3.838,3.838,0,0,1,.339-1.6,4.143,4.143,0,0,1,.926-1.3,4.414,4.414,0,0,1,1.378-.878,3.978,3.978,0,0,1,1.085-.286h0a.105.105,0,0,0,.018,0A1.236,1.236,0,0,0,905.667,268.888Z" transform="translate(-876.85 -267.785)" fill="#423c81"/>
        <path id="パス_935" data-name="パス 935" d="M888.072,279.6v-.231a7.158,7.158,0,0,1-1.993,1.064,7,7,0,0,1-2.3.371,6.776,6.776,0,0,1-4.84-1.9,6.244,6.244,0,0,1,0-9.167,7.119,7.119,0,0,1,9.681,0,6.078,6.078,0,0,1,2.005,4.582V279.6a1.123,1.123,0,0,1-.372.849,1.251,1.251,0,0,1-.9.354,1.267,1.267,0,0,1-.911-.354A1.124,1.124,0,0,1,888.072,279.6Zm-4.292-9.343a4.371,4.371,0,0,0-3.043,1.2,4.145,4.145,0,0,0-.91,1.291,3.843,3.843,0,0,0,0,3.149,4.145,4.145,0,0,0,.91,1.291,4.433,4.433,0,0,0,6.082-.006,4.164,4.164,0,0,0,.917-1.29,3.83,3.83,0,0,0,0-3.139,4.148,4.148,0,0,0-.917-1.289,4.363,4.363,0,0,0-3.038-1.2Z" transform="translate(-876.937 -267.785)" fill="#423c81"/>
      </g>
    </g>
    <text id="_1on1_CLOUD" data-name="1on1 CLOUD" transform="translate(923.753 279.216)" fill="#423c81" font-size="17" font-family="DINAlternate-Bold, DIN Alternate" font-weight="700"><tspan x="0" y="0">1on1 CLOUD</tspan></text>
  </g>
</svg>
