<svg xmlns="http://www.w3.org/2000/svg" width="175" height="50" viewBox="0 0 175 50">
  <g id="グループ_1622" data-name="グループ 1622" transform="translate(-178.928 -68.596)">
    <g id="グループ_1621" data-name="グループ 1621" transform="translate(178.928 70.836)">
      <path id="パス_850" data-name="パス 850" d="M235.722,86.808a16.974,16.974,0,0,0-3.357-9.049l-1.334,4.625a14.1,14.1,0,0,1,1.2,4.682v.008c0,.008-.018.013-.016.023.005.1,0,.2.008.3h.008a1.754,1.754,0,0,0,1.743,1.365,1.735,1.735,0,0,0,1.78-1.685A1.586,1.586,0,0,0,235.722,86.808Zm-36.944-2.016a14.723,14.723,0,0,0-5.727-1.151c-7.8,0-14.123,5.885-14.123,13.273s6.322,13.274,14.123,13.274l4.034.047a1.713,1.713,0,1,0,0-3.421c-.027,0-.053-.008-.08-.008h-3.954c-5.836,0-10.586-4.378-10.586-9.906s4.749-9.968,10.586-9.968a11.025,11.025,0,0,1,4.29.892l4.127,1.751.793-4.2c1.284-6.823,7.555-11.771,14.881-11.771a15.738,15.738,0,0,1,3.728.447l4.64-1.905a19.4,19.4,0,0,0-8.388-1.887C207.953,70.256,200.335,76.53,198.778,84.792Z" transform="translate(-178.928 -70.256)" fill="#e56920"/>
      <g id="グループ_1619" data-name="グループ 1619" transform="translate(30.684 1.823)">
        <path id="パス_851" data-name="パス 851" d="M207.01,86.9l-.032-3.6,14.785-11.7-3.927,13.621-7.98-1.407Z" transform="translate(-199.818 -71.607)" fill="#e56920"/>
        <path id="パス_852" data-name="パス 852" d="M206.241,82.277l-4.57-1.717,21.338-8.754Z" transform="translate(-201.671 -71.538)" fill="#e56920"/>
      </g>
      <g id="グループ_1620" data-name="グループ 1620" transform="translate(20.7 22.408)">
        <path id="パス_853" data-name="パス 853" d="M210.795,102.968V88.587a1.561,1.561,0,0,1,.509-1.178,1.8,1.8,0,0,1,2.453,0,1.617,1.617,0,0,1,.526,1.178v14.381a1.608,1.608,0,0,1-.526,1.176,1.8,1.8,0,0,1-2.453,0A1.552,1.552,0,0,1,210.795,102.968Z" transform="translate(-188.501 -86.862)" fill="#e56920"/>
        <path id="パス_854" data-name="パス 854" d="M231,102.984,225,89.316a1.78,1.78,0,0,1-.166-.745,1.527,1.527,0,0,1,.134-.633,1.724,1.724,0,0,1,.367-.529,1.631,1.631,0,0,1,.55-.355,1.81,1.81,0,0,1,.684-.127,1.831,1.831,0,0,1,.967.275,1.747,1.747,0,0,1,.684.816l4.69,10.6,4.688-10.634a1.867,1.867,0,0,1,.576-.766,1.687,1.687,0,0,1,1.06-.293,1.82,1.82,0,0,1,.684.127,1.645,1.645,0,0,1,.55.355,1.85,1.85,0,0,1,.375.529,1.474,1.474,0,0,1,.142.633,1.759,1.759,0,0,1-.183.745L231.2,111.109a1.9,1.9,0,0,1-.668.8,1.807,1.807,0,0,1-2.227-.169,1.566,1.566,0,0,1-.494-1.182,1.67,1.67,0,0,1,.167-.729Z" transform="translate(-183.601 -86.862)" fill="#e56920"/>
        <path id="パス_855" data-name="パス 855" d="M226.057,88.386a1.751,1.751,0,0,0-1.982-1.434c-.015,0-.027.008-.042.009a.2.2,0,0,0-.047,0,10.21,10.21,0,0,0-1.809.426,9.854,9.854,0,0,0-2.748,1.468V88.54a1.557,1.557,0,0,0-.513-1.174,1.737,1.737,0,0,0-1.239-.487,1.756,1.756,0,0,0-1.256.487,1.554,1.554,0,0,0-.514,1.174V103.1a1.556,1.556,0,0,0,.514,1.174,1.75,1.75,0,0,0,1.256.487,1.731,1.731,0,0,0,1.239-.487,1.559,1.559,0,0,0,.513-1.174v-7.28a5.234,5.234,0,0,1,.464-2.188,5.642,5.642,0,0,1,1.264-1.78,6.047,6.047,0,0,1,1.881-1.2,5.453,5.453,0,0,1,1.481-.39v0a.073.073,0,0,0,.024,0A1.686,1.686,0,0,0,226.057,88.386Z" transform="translate(-186.717 -86.879)" fill="#e56920"/>
        <path id="パス_856" data-name="パス 856" d="M209.472,102.984v-.314a9.774,9.774,0,0,1-2.72,1.452,9.53,9.53,0,0,1-3.138.506,9.255,9.255,0,0,1-6.607-2.592,8.525,8.525,0,0,1,0-12.516,9.719,9.719,0,0,1,13.215,0,8.3,8.3,0,0,1,2.737,6.256v7.209a1.534,1.534,0,0,1-.509,1.16,1.712,1.712,0,0,1-1.226.483,1.734,1.734,0,0,1-1.244-.483A1.534,1.534,0,0,1,209.472,102.984Zm-5.858-12.755a5.988,5.988,0,0,0-2.3.441,5.928,5.928,0,0,0-1.852,1.194,5.623,5.623,0,0,0-1.243,1.762,5.25,5.25,0,0,0,0,4.3,5.629,5.629,0,0,0,1.243,1.763,6.049,6.049,0,0,0,8.3-.008,5.7,5.7,0,0,0,1.252-1.762,5.233,5.233,0,0,0,0-4.285,5.7,5.7,0,0,0-1.252-1.761,5.968,5.968,0,0,0-4.147-1.643Z" transform="translate(-194.271 -86.862)" fill="#e56920"/>
      </g>
    </g>
    <text id="DIVERSITY" transform="translate(263.928 87.596)" fill="#e56920" font-size="20" font-family="DINAlternate-Bold, DIN Alternate" font-weight="700"><tspan x="0" y="0">DIVERSITY</tspan></text>
    <text id="CLOUD" transform="translate(264.334 112.238)" fill="#e56920" font-size="20" font-family="DINAlternate-Bold, DIN Alternate" font-weight="700"><tspan x="0" y="0">CLOUD</tspan></text>
  </g>
</svg>
