<svg xmlns="http://www.w3.org/2000/svg" width="122.518" height="38.819" viewBox="0 0 122.518 38.819">
  <g id="logoa" transform="translate(-175.344 -610.564)">
    <g id="グループ_1637" data-name="グループ 1637" transform="translate(175.344 614.364)">
      <path id="パス_880" data-name="パス 880" d="M216.812,627.186a12.4,12.4,0,0,0-2.451-6.608l-.974,3.378a10.3,10.3,0,0,1,.875,3.418v.006c0,.006-.013.011-.012.018,0,.072,0,.144.007.218h0a1.281,1.281,0,0,0,1.273,1,1.266,1.266,0,0,0,1.3-1.231A1.125,1.125,0,0,0,216.812,627.186Zm-26.975-1.472a10.754,10.754,0,0,0-4.182-.84c-5.695,0-10.312,4.3-10.312,9.691s4.617,9.691,10.312,9.691l2.945.035a1.251,1.251,0,1,0,0-2.5c-.02,0-.038-.006-.058-.006h-2.887a7.27,7.27,0,1,1,0-14.51,8.061,8.061,0,0,1,3.132.651l3.014,1.279.579-3.068a10.873,10.873,0,0,1,10.865-8.594,11.493,11.493,0,0,1,2.722.325l3.388-1.391a14.161,14.161,0,0,0-6.124-1.378A13.428,13.428,0,0,0,189.837,625.714Z" transform="translate(-175.344 -615.1)" fill="#00226b"/>
      <g id="グループ_1635" data-name="グループ 1635" transform="translate(22.61 1.332)">
        <path id="パス_881" data-name="パス 881" d="M205.274,627.71l-.023-2.628,10.795-8.541-2.867,9.945-5.826-1.028Z" transform="translate(-200.023 -616.541)" fill="#00226b"/>
        <path id="パス_882" data-name="パス 882" d="M202.93,624.4l-3.337-1.254,15.58-6.392Z" transform="translate(-199.593 -616.557)" fill="#00226b"/>
      </g>
      <g id="グループ_1636" data-name="グループ 1636" transform="translate(15.491 16.509)">
        <path id="パス_883" data-name="パス 883" d="M209.321,644.588v-10.5a1.137,1.137,0,0,1,.371-.86,1.314,1.314,0,0,1,1.791,0,1.184,1.184,0,0,1,.384.86v10.5a1.178,1.178,0,0,1-.384.858,1.312,1.312,0,0,1-1.791,0A1.132,1.132,0,0,1,209.321,644.588Z" transform="translate(-193.043 -632.828)" fill="#00226b"/>
        <path id="パス_884" data-name="パス 884" d="M228.792,644.6l-4.386-9.98a1.3,1.3,0,0,1-.122-.543,1.121,1.121,0,0,1,.1-.462,1.273,1.273,0,0,1,.268-.386,1.221,1.221,0,0,1,.4-.26,1.33,1.33,0,0,1,.5-.092,1.344,1.344,0,0,1,.707.2,1.28,1.28,0,0,1,.5.595l3.424,7.741,3.423-7.765a1.367,1.367,0,0,1,.42-.559,1.229,1.229,0,0,1,.774-.214,1.333,1.333,0,0,1,.5.092,1.23,1.23,0,0,1,.4.26,1.34,1.34,0,0,1,.273.386,1.071,1.071,0,0,1,.1.462,1.294,1.294,0,0,1-.133.543l-7.006,15.912a1.372,1.372,0,0,1-.488.584,1.319,1.319,0,0,1-1.626-.123,1.148,1.148,0,0,1-.36-.864,1.221,1.221,0,0,1,.122-.531Z" transform="translate(-194.181 -632.828)" fill="#00226b"/>
        <path id="パス_885" data-name="パス 885" d="M222.182,633.924a1.278,1.278,0,0,0-1.447-1.047c-.011,0-.019.005-.031.006a.152.152,0,0,0-.035,0,7.382,7.382,0,0,0-1.32.311,7.194,7.194,0,0,0-2.007,1.072v-.233a1.135,1.135,0,0,0-.375-.856,1.267,1.267,0,0,0-.9-.356,1.283,1.283,0,0,0-.916.356,1.132,1.132,0,0,0-.375.856v10.63a1.135,1.135,0,0,0,.375.856,1.279,1.279,0,0,0,.916.356,1.263,1.263,0,0,0,.9-.356,1.138,1.138,0,0,0,.375-.856v-5.315a3.825,3.825,0,0,1,.338-1.6,4.129,4.129,0,0,1,.923-1.3,4.43,4.43,0,0,1,1.373-.875,3.98,3.98,0,0,1,1.083-.284v0a.054.054,0,0,0,.018,0A1.231,1.231,0,0,0,222.182,633.924Z" transform="translate(-193.457 -632.824)" fill="#00226b"/>
        <path id="パス_886" data-name="パス 886" d="M202.8,644.6v-.23a7.093,7.093,0,0,1-1.985,1.061,6.969,6.969,0,0,1-2.291.37,6.752,6.752,0,0,1-4.824-1.893,6.222,6.222,0,0,1,0-9.138,7.093,7.093,0,0,1,9.648,0,6.054,6.054,0,0,1,2,4.567V644.6a1.123,1.123,0,0,1-.371.847,1.328,1.328,0,0,1-1.8,0A1.121,1.121,0,0,1,202.8,644.6Zm-4.277-9.313a4.366,4.366,0,0,0-3.033,1.194,4.14,4.14,0,0,0-.907,1.287,3.839,3.839,0,0,0,0,3.138,4.129,4.129,0,0,0,.907,1.287,4.415,4.415,0,0,0,6.062-.007,4.147,4.147,0,0,0,.914-1.286,3.825,3.825,0,0,0,0-3.128,4.157,4.157,0,0,0-.914-1.285,4.363,4.363,0,0,0-3.029-1.2Z" transform="translate(-191.702 -632.828)" fill="#00226b"/>
      </g>
    </g>
    <text id="Alumni" transform="translate(238.862 642.864)" fill="#00226b" font-size="18" font-family="Seravek-Medium, Seravek" font-weight="500"><tspan x="0" y="0">Alumni</tspan></text>
    <circle id="楕円形_10" data-name="楕円形 10" cx="7.618" cy="7.618" r="7.618" transform="translate(230.344 610.564)" fill="#00226b"/>
    <path id="パス_887" data-name="パス 887" d="M240.021,622.844l1.016,7.11,3.047-7.618Z" transform="translate(-5.222 -0.953)" fill="#00226b"/>
    <text id="for" transform="translate(233.144 620.564)" fill="#fff" font-size="8" font-family="Seravek-Medium, Seravek" font-weight="500"><tspan x="0" y="0">for</tspan></text>
  </g>
</svg>
