<svg xmlns="http://www.w3.org/2000/svg" width="189" height="35" viewBox="0 0 189 35">
  <g id="logof" transform="translate(-803.771 -95.478)">
    <g id="グループ_1528" data-name="グループ 1528" transform="translate(803.771 95.478)">
      <path id="パス_795" data-name="パス 795" d="M845.535,107.65A12.487,12.487,0,0,0,843.066,101l-.981,3.4a10.38,10.38,0,0,1,.881,3.443v.005c0,.006-.013.011-.012.017,0,.073,0,.146.007.22h.005a1.29,1.29,0,0,0,1.282,1,1.275,1.275,0,0,0,1.308-1.24A1.171,1.171,0,0,0,845.535,107.65Zm-27.167-1.482a10.833,10.833,0,0,0-4.211-.846c-5.736,0-10.385,4.327-10.385,9.76s4.65,9.76,10.385,9.76l2.966.036a1.26,1.26,0,1,0,0-2.516c-.02,0-.038-.006-.058-.006h-2.908a7.321,7.321,0,1,1,0-14.613,8.118,8.118,0,0,1,3.155.655l3.034,1.287.584-3.09a10.95,10.95,0,0,1,10.943-8.656,11.573,11.573,0,0,1,2.741.328l3.412-1.4a14.26,14.26,0,0,0-6.168-1.389A13.523,13.523,0,0,0,818.368,106.168Z" transform="translate(-803.771 -95.478)" fill="#0087ce"/>
      <g id="グループ_1526" data-name="グループ 1526" transform="translate(22.564 1.341)">
        <path id="パス_796" data-name="パス 796" d="M847.526,108.834l-.023-2.647,10.872-8.6L855.487,107.6l-5.868-1.035Z" transform="translate(-842.237 -97.586)" fill="#0087ce"/>
        <path id="パス_797" data-name="パス 797" d="M842.589,105.6l-3.361-1.263L854.919,97.9Z" transform="translate(-839.228 -97.698)" fill="#0087ce"/>
      </g>
      <g id="グループ_1527" data-name="グループ 1527" transform="translate(15.222 16.358)">
        <path id="パス_798" data-name="パス 798" d="M853.453,133.266V122.691a1.146,1.146,0,0,1,.374-.865,1.323,1.323,0,0,1,1.8,0,1.19,1.19,0,0,1,.387.865v10.576a1.183,1.183,0,0,1-.387.864,1.321,1.321,0,0,1-1.8,0A1.139,1.139,0,0,1,853.453,133.266Z" transform="translate(-837.059 -121.422)" fill="#0087ce"/>
        <path id="パス_799" data-name="パス 799" d="M879.873,133.277l-4.418-10.051a1.313,1.313,0,0,1-.122-.547,1.133,1.133,0,0,1,.1-.465,1.268,1.268,0,0,1,.27-.389,1.2,1.2,0,0,1,.4-.262,1.369,1.369,0,0,1,1.215.109,1.284,1.284,0,0,1,.5.6l3.448,7.8,3.448-7.82a1.384,1.384,0,0,1,.423-.564,1.242,1.242,0,0,1,.78-.216,1.34,1.34,0,0,1,.5.094,1.216,1.216,0,0,1,.4.262,1.331,1.331,0,0,1,.276.389,1.074,1.074,0,0,1,.1.465,1.3,1.3,0,0,1-.134.547l-7.055,16.025a1.385,1.385,0,0,1-.491.587,1.329,1.329,0,0,1-1.638-.123,1.154,1.154,0,0,1-.363-.87,1.23,1.23,0,0,1,.123-.536Z" transform="translate(-845.016 -121.422)" fill="#0087ce"/>
        <path id="パス_800" data-name="パス 800" d="M868.886,122.5a1.288,1.288,0,0,0-1.458-1.054.227.227,0,0,1-.03.007.169.169,0,0,0-.035,0,7.458,7.458,0,0,0-1.331.313,7.263,7.263,0,0,0-2.02,1.079v-.234a1.143,1.143,0,0,0-.377-.863,1.353,1.353,0,0,0-1.834,0,1.14,1.14,0,0,0-.379.863v10.7a1.142,1.142,0,0,0,.379.863,1.353,1.353,0,0,0,1.834,0,1.145,1.145,0,0,0,.377-.863v-5.353a3.851,3.851,0,0,1,.341-1.609,4.164,4.164,0,0,1,.929-1.308,4.44,4.44,0,0,1,1.383-.881,4.007,4.007,0,0,1,1.09-.288h.018A1.241,1.241,0,0,0,868.886,122.5Z" transform="translate(-839.957 -121.395)" fill="#0087ce"/>
        <path id="パス_801" data-name="パス 801" d="M838.869,133.277v-.231a7.166,7.166,0,0,1-2,1.068,7.015,7.015,0,0,1-2.307.372,6.8,6.8,0,0,1-4.859-1.907,6.267,6.267,0,0,1,0-9.2,7.145,7.145,0,0,1,9.718,0,6.1,6.1,0,0,1,2.013,4.6v5.3a1.129,1.129,0,0,1-.373.853,1.338,1.338,0,0,1-1.817,0A1.13,1.13,0,0,1,838.869,133.277Zm-4.308-9.379a4.4,4.4,0,0,0-1.693.325,4.348,4.348,0,0,0-1.362.878,4.147,4.147,0,0,0-.914,1.3,3.866,3.866,0,0,0,0,3.161,4.142,4.142,0,0,0,.914,1.3,4.447,4.447,0,0,0,6.1-.006,4.17,4.17,0,0,0,.921-1.3,3.847,3.847,0,0,0,0-3.151,4.165,4.165,0,0,0-.921-1.294,4.39,4.39,0,0,0-3.049-1.208Z" transform="translate(-827.691 -121.422)" fill="#0087ce"/>
      </g>
    </g>
    <text id="FRESHERS_CLOUD" data-name="FRESHERS CLOUD" transform="translate(865.771 121.062)" fill="#0087ce" font-size="16" font-family="DINAlternate-Bold, DIN Alternate" font-weight="700"><tspan x="0" y="0">FRESHERS CLOUD</tspan></text>
  </g>
</svg>
