<svg xmlns="http://www.w3.org/2000/svg" width="82" height="82" viewBox="0 0 82 82">
  <g id="smicon5" transform="translate(-135 -112)">
    <rect id="長方形_182" data-name="長方形 182" width="82" height="82" transform="translate(135 112)" fill="none"/>
    <g id="グループ_1712" data-name="グループ 1712" transform="translate(-71.97 -433.601)">
      <g id="グループ_1711" data-name="グループ 1711" transform="translate(209.583 585.897)">
        <path id="パス_933" data-name="パス 933" d="M270.136,632a1.486,1.486,0,0,1-1.486-1.486v-9.935a1.486,1.486,0,0,1,2.972,0v9.935A1.486,1.486,0,0,1,270.136,632Z" transform="translate(-232.952 -613.648)" fill="#fff"/>
        <path id="線_50" data-name="線 50" d="M22.418,1.472H-.014A1.486,1.486,0,0,1-1.5-.014,1.486,1.486,0,0,1-.014-1.5H22.418A1.486,1.486,0,0,1,23.9-.014,1.486,1.486,0,0,1,22.418,1.472Z" transform="translate(19.163 17.66)" fill="#fff"/>
        <path id="パス_934" data-name="パス 934" d="M247.722,632a1.486,1.486,0,0,1-1.486-1.486v-9.935a1.486,1.486,0,0,1,2.972,0v9.935A1.486,1.486,0,0,1,247.722,632Z" transform="translate(-224.176 -613.648)" fill="#fff"/>
        <path id="線_51" data-name="線 51" d="M37.794,1.472H-.014A1.486,1.486,0,0,1-1.5-.014,1.486,1.486,0,0,1-.014-1.5H37.794A1.486,1.486,0,0,1,39.28-.014,1.486,1.486,0,0,1,37.794,1.472Z" transform="translate(1.5 1.5)" fill="#fff"/>
      </g>
      <path id="パス_935" data-name="パス 935" d="M244.482,661.939H210.456a1.734,1.734,0,0,1-1.328-2.847l5.766-6.876a1.733,1.733,0,0,1,1.328-.62h31.1a1.734,1.734,0,0,1,0,3.467H217.03l-2.859,3.409h30.311a1.734,1.734,0,0,1,0,3.467Z" transform="translate(0 -40.571)" fill="#fff"/>
      <path id="パス_936" data-name="パス 936" d="M248.29,594.017H212.932a3.849,3.849,0,0,1-3.844-3.844v-38.11a3.849,3.849,0,0,1,3.844-3.844H267.06a3.849,3.849,0,0,1,3.844,3.844v19.554a1.486,1.486,0,0,1-2.972,0V552.062a.874.874,0,0,0-.873-.872H212.932a.874.874,0,0,0-.873.872v38.11a.874.874,0,0,0,.873.873H248.29a1.486,1.486,0,1,1,0,2.972Z" transform="translate(-0.048 0)" fill="#fff"/>
      <path id="パス_937" data-name="パス 937" d="M312.232,642.955a1.734,1.734,0,0,1-1.733-1.734v-2.163A14.988,14.988,0,0,0,300.675,625a1.734,1.734,0,0,1-.093-3.216,12.75,12.75,0,1,0-10.162,0,1.734,1.734,0,0,1-.093,3.216,15,15,0,0,0-7.062,5.4,14.848,14.848,0,0,0-2.761,8.659v2.163a1.734,1.734,0,1,1-3.467,0v-2.163a18.455,18.455,0,0,1,8.972-15.822,16.217,16.217,0,1,1,18.986,0,18.455,18.455,0,0,1,8.971,15.822v2.163A1.734,1.734,0,0,1,312.232,642.955Z" transform="translate(-26.747 -17.972)" fill="#fff"/>
      <path id="パス_938" data-name="パス 938" d="M240.722,593.074a1.733,1.733,0,0,1-1.733-1.733v-1.431a12.7,12.7,0,0,1,2.362-7.4,12.836,12.836,0,0,1,3.153-3.118,11.322,11.322,0,1,1,14.587,0,12.828,12.828,0,0,1,5.06,7.144,1.734,1.734,0,1,1-3.344.915,9.358,9.358,0,0,0-5.784-6.3,1.734,1.734,0,0,1-.093-3.216,7.855,7.855,0,1,0-6.261,0,1.734,1.734,0,0,1-.093,3.216,9.347,9.347,0,0,0-4.4,3.366,9.248,9.248,0,0,0-1.719,5.393v1.431A1.733,1.733,0,0,1,240.722,593.074Z" transform="translate(-11.851 -4.477)" fill="#fff"/>
    </g>
  </g>
</svg>
