<svg xmlns="http://www.w3.org/2000/svg" width="82" height="82" viewBox="0 0 82 82">
  <g id="smicon6" transform="translate(-279 -113)">
    <rect id="長方形_180" data-name="長方形 180" width="82" height="82" transform="translate(279 113)" fill="none"/>
    <g id="グループ_1731" data-name="グループ 1731" transform="translate(233.131 -93.115)">
      <g id="グループ_1727" data-name="グループ 1727" transform="translate(99.753 215.222)">
        <g id="グループ_1724" data-name="グループ 1724" transform="translate(0 0)">
          <path id="線_58" data-name="線 58" d="M.045,4.2a1.8,1.8,0,0,1-1.8-1.8V.045a1.8,1.8,0,1,1,3.59,0V2.4A1.8,1.8,0,0,1,.045,4.2Z" transform="translate(17.236 1.75)" fill="#fff"/>
          <path id="線_59" data-name="線 59" d="M.045,4.2a1.8,1.8,0,0,1-1.8-1.8V.045a1.8,1.8,0,1,1,3.59,0V2.4A1.8,1.8,0,0,1,.045,4.2Z" transform="translate(9.493 1.75)" fill="#fff"/>
          <path id="線_60" data-name="線 60" d="M.045,4.2a1.8,1.8,0,0,1-1.8-1.8V.045a1.8,1.8,0,1,1,3.59,0V2.4A1.8,1.8,0,0,1,.045,4.2Z" transform="translate(1.75 1.75)" fill="#fff"/>
        </g>
        <g id="グループ_1725" data-name="グループ 1725" transform="translate(0 9.481)">
          <path id="線_61" data-name="線 61" d="M.045,4.2a1.8,1.8,0,0,1-1.8-1.8V.045a1.8,1.8,0,1,1,3.59,0V2.4A1.8,1.8,0,0,1,.045,4.2Z" transform="translate(17.236 1.75)" fill="#fff"/>
          <path id="線_62" data-name="線 62" d="M.045,4.2a1.8,1.8,0,0,1-1.8-1.8V.045a1.8,1.8,0,1,1,3.59,0V2.4A1.8,1.8,0,0,1,.045,4.2Z" transform="translate(9.493 1.75)" fill="#fff"/>
          <path id="線_63" data-name="線 63" d="M.045,4.2a1.8,1.8,0,0,1-1.8-1.8V.045a1.8,1.8,0,1,1,3.59,0V2.4A1.8,1.8,0,0,1,.045,4.2Z" transform="translate(1.75 1.75)" fill="#fff"/>
        </g>
        <g id="グループ_1726" data-name="グループ 1726" transform="translate(0 18.961)">
          <path id="線_64" data-name="線 64" d="M.045,4.2a1.8,1.8,0,0,1-1.8-1.8V.045a1.8,1.8,0,1,1,3.59,0v2.36A1.8,1.8,0,0,1,.045,4.2Z" transform="translate(17.236 1.75)" fill="#fff"/>
          <path id="線_65" data-name="線 65" d="M.045,4.2a1.8,1.8,0,0,1-1.8-1.8V.045a1.8,1.8,0,1,1,3.59,0v2.36A1.8,1.8,0,0,1,.045,4.2Z" transform="translate(9.493 1.75)" fill="#fff"/>
          <path id="線_66" data-name="線 66" d="M.045,4.2a1.8,1.8,0,0,1-1.8-1.8V.045a1.8,1.8,0,1,1,3.59,0v2.36A1.8,1.8,0,0,1,.045,4.2Z" transform="translate(1.75 1.75)" fill="#fff"/>
        </g>
        <path id="線_67" data-name="線 67" d="M.045,15.939a1.8,1.8,0,0,1-1.8-1.8V.045a1.8,1.8,0,0,1,3.59,0v14.1A1.8,1.8,0,0,1,.045,15.939Z" transform="translate(9.494 29.154)" fill="#fff"/>
      </g>
      <path id="パス_969" data-name="パス 969" d="M95.313,284.82a1.8,1.8,0,0,1-1.8-1.8v-.748a8.661,8.661,0,0,0-1.61-5.051,8.753,8.753,0,0,0-4.122-3.153,1.8,1.8,0,0,1-.1-3.331,7.334,7.334,0,1,0-5.845,0,1.8,1.8,0,0,1-.1,3.331,8.753,8.753,0,0,0-4.122,3.153,8.661,8.661,0,0,0-1.61,5.051v.748a1.8,1.8,0,1,1-3.59,0v-.748a12.232,12.232,0,0,1,2.275-7.132,12.371,12.371,0,0,1,2.884-2.9,10.924,10.924,0,1,1,14.362,0,12.371,12.371,0,0,1,2.884,2.9,12.232,12.232,0,0,1,2.275,7.132v.748A1.8,1.8,0,0,1,95.313,284.82Z" transform="translate(-10.023 -17.351)" fill="#fff"/>
      <g id="グループ_1728" data-name="グループ 1728" transform="translate(45.869 263.796)">
        <path id="パス_970" data-name="パス 970" d="M72.968,313.669a1.8,1.8,0,0,1-.412-3.542,14.455,14.455,0,0,0,3.062-1.535,8.087,8.087,0,0,0,2.2-1.84c-.374-.148-1.229-.238-3.081.416l-.543.193a23.26,23.26,0,0,1-7.75,1.771c-1.961.015-3.727-.029-5.434-.071a57.614,57.614,0,0,0-13.015.717,1.8,1.8,0,0,1-.651-3.531,61.322,61.322,0,0,1,13.754-.775c1.679.041,3.415.084,5.318.07a20.229,20.229,0,0,0,6.572-1.563l.551-.2a11.814,11.814,0,0,1,3.115-.712,4.893,4.893,0,0,1,3.86,1.209,3.121,3.121,0,0,1,.91,3.154c-.374,1.39-1.636,2.756-3.856,4.175a16.949,16.949,0,0,1-4.18,2.011A1.8,1.8,0,0,1,72.968,313.669Z" transform="translate(-45.869 -300.002)" fill="#fff"/>
        <path id="パス_971" data-name="パス 971" d="M74.453,321.463a17.583,17.583,0,0,1-1.856-.1,27.129,27.129,0,0,1-6.174-1.5,19.9,19.9,0,0,1-3.715-1.862,15.052,15.052,0,0,0-4.872-2.119,29.372,29.372,0,0,0-9.932.029,1.8,1.8,0,1,1-.481-3.558c10.471-1.414,14.007.7,17.127,2.566a16.8,16.8,0,0,0,3.07,1.559c4.387,1.553,7.7,1.8,10.417.788a16.091,16.091,0,0,0,4.025-2.559c.354-.275.72-.56,1.089-.835a75.147,75.147,0,0,0,6.879-5.815c.236-.226.555-.5.923-.828a32.942,32.942,0,0,0,3.166-3.054c1.192-1.382,1.273-2.016,1.276-2.132l-.014-.014a.791.791,0,0,0-1.025-.19,9.377,9.377,0,0,0-2.189,1.536c-.189.159-.367.309-.546.455a43.741,43.741,0,0,1-9.151,5.841c-4.809,2.219-9.056,2.811-12.626,1.762a1.8,1.8,0,0,1,1.013-3.445c2.711.8,6.112.266,10.109-1.578a40.171,40.171,0,0,0,8.389-5.366c.155-.126.322-.267.5-.416a12.059,12.059,0,0,1,3.189-2.132,4.35,4.35,0,0,1,4.819.936,3.531,3.531,0,0,1,1.124,2.689c-.057,2.668-2.83,5.319-5.665,7.806-.338.3-.63.552-.811.725a78.758,78.758,0,0,1-7.209,6.094c-.342.255-.678.517-1.035.794a19.011,19.011,0,0,1-4.973,3.088A13.77,13.77,0,0,1,74.453,321.463Z" transform="translate(-45.869 -298.151)" fill="#fff"/>
      </g>
      <g id="グループ_1729" data-name="グループ 1729" transform="translate(87.535 244.609)">
        <path id="パス_972" data-name="パス 972" d="M126.434,280.794a1.8,1.8,0,0,1-1.332-3l3.368-3.732-3.368-3.732a1.8,1.8,0,1,1,2.666-2.405l4.453,4.935a1.8,1.8,0,0,1,0,2.405l-4.453,4.935A1.791,1.791,0,0,1,126.434,280.794Z" transform="translate(-117.264 -267.334)" fill="#fff"/>
        <path id="線_68" data-name="線 68" d="M11.874,1.84H.045a1.8,1.8,0,1,1,0-3.59H11.874a1.8,1.8,0,1,1,0,3.59Z" transform="translate(1.75 6.685)" fill="#fff"/>
      </g>
      <g id="グループ_1730" data-name="グループ 1730" transform="translate(90.762 207.122)">
        <path id="パス_973" data-name="パス 973" d="M153.24,260.314H130.214a1.8,1.8,0,1,1,0-3.59h21.23V210.712H121.567v31.27a1.8,1.8,0,1,1-3.59,0V208.917a1.8,1.8,0,0,1,1.8-1.8H153.24a1.8,1.8,0,0,1,1.8,1.8v49.6A1.8,1.8,0,0,1,153.24,260.314Z" transform="translate(-117.977 -207.122)" fill="#fff"/>
      </g>
      <path id="パス_974" data-name="パス 974" d="M150.871,281.838a1.8,1.8,0,0,1-1.8-1.8v-12.3H136.923a1.8,1.8,0,1,1,0-3.59h13.948a1.8,1.8,0,0,1,1.8,1.8v14.1A1.8,1.8,0,0,1,150.871,281.838Z" transform="translate(-33.688 -21.523)" fill="#fff"/>
    </g>
  </g>
</svg>
