<svg xmlns="http://www.w3.org/2000/svg" width="82" height="82" viewBox="0 0 82 82">
  <g id="smicon3" transform="translate(-185 -311)">
    <rect id="長方形_184" data-name="長方形 184" width="82" height="82" transform="translate(185 311)" fill="none"/>
    <g id="グループ_1710" data-name="グループ 1710" transform="translate(141.146 -60.767)">
      <path id="楕円形_22" data-name="楕円形 22" d="M30.587,0A30.6,30.6,0,0,1,42.494,58.77,30.595,30.595,0,0,1,18.681,2.4,30.4,30.4,0,0,1,30.587,0Zm0,57.721A27.142,27.142,0,0,0,41.149,5.585a27.141,27.141,0,0,0-21.122,50A26.962,26.962,0,0,0,30.587,57.721Z" transform="translate(53.107 375.094)" fill="#fff"/>
      <g id="グループ_1707" data-name="グループ 1707" transform="translate(98.596 422.165)">
        <path id="パス_929" data-name="パス 929" d="M154.119,485.113a1.722,1.722,0,0,1-1.268-.554L134.842,465.1a1.727,1.727,0,1,1,2.534-2.346l16.836,18.191,3.261-3.018-16.836-18.191a1.727,1.727,0,1,1,2.534-2.346l18.009,19.458a1.727,1.727,0,0,1-.094,2.44l-5.8,5.364A1.721,1.721,0,0,1,154.119,485.113Z" transform="translate(-134.382 -456.838)" fill="#fff"/>
        <path id="線_49" data-name="線 49" d="M-.023,6.413a1.722,1.722,0,0,1-1.268-.554A1.727,1.727,0,0,1-1.2,3.419l5.089-4.71a1.727,1.727,0,0,1,2.44.094,1.727,1.727,0,0,1-.094,2.44L1.15,5.954A1.721,1.721,0,0,1-.023,6.413Z" transform="translate(6.888 6.871)" fill="#fff"/>
      </g>
      <g id="グループ_1709" data-name="グループ 1709" transform="translate(43.854 383.275)">
        <path id="パス_930" data-name="パス 930" d="M113,434.707a1.727,1.727,0,0,1-1.727-1.727v-5.809a10.839,10.839,0,0,0-2.015-6.321,10.952,10.952,0,0,0-5.157-3.944,1.727,1.727,0,0,1-.093-3.2,9.247,9.247,0,1,0-7.369,0,1.727,1.727,0,0,1-.093,3.2,10.952,10.952,0,0,0-5.157,3.944,10.839,10.839,0,0,0-2.015,6.321v5.809a1.727,1.727,0,1,1-3.453,0v-5.809a14.273,14.273,0,0,1,2.655-8.323,14.422,14.422,0,0,1,3.83-3.7,12.7,12.7,0,1,1,15.836,0,14.421,14.421,0,0,1,3.83,3.7,14.273,14.273,0,0,1,2.655,8.323v5.809A1.727,1.727,0,0,1,113,434.707Z" transform="translate(-60.483 -392.524)" fill="#fff"/>
        <g id="グループ_1708" data-name="グループ 1708" transform="translate(0 9.112)">
          <path id="パス_931" data-name="パス 931" d="M158.989,440.663a1.727,1.727,0,0,1-1.727-1.727v-2.684a8.555,8.555,0,0,0-1.591-4.989,8.649,8.649,0,0,0-4.072-3.115,1.727,1.727,0,0,1-.092-3.2,7.251,7.251,0,1,0-5.779,0,1.727,1.727,0,0,1-.093,3.2,8.734,8.734,0,0,0-4.262,3.406,1.727,1.727,0,1,1-2.892-1.888,12.234,12.234,0,0,1,3.143-3.268,10.705,10.705,0,1,1,13.992-.006,12.126,12.126,0,0,1,2.868,2.867,11.989,11.989,0,0,1,2.231,6.992v2.684A1.727,1.727,0,0,1,158.989,440.663Z" transform="translate(-81.036 -407.592)" fill="#fff"/>
          <path id="パス_932" data-name="パス 932" d="M45.581,440.663a1.727,1.727,0,0,1-1.727-1.727v-2.684a11.99,11.99,0,0,1,2.231-6.992,12.128,12.128,0,0,1,2.868-2.867,10.705,10.705,0,1,1,13.992.006,12.232,12.232,0,0,1,3.144,3.268,1.727,1.727,0,1,1-2.892,1.888,8.734,8.734,0,0,0-4.263-3.406,1.727,1.727,0,0,1-.093-3.2,7.251,7.251,0,1,0-5.779,0,1.727,1.727,0,0,1-.092,3.2,8.649,8.649,0,0,0-4.072,3.115,8.555,8.555,0,0,0-1.591,4.989v2.684A1.727,1.727,0,0,1,45.581,440.663Z" transform="translate(-43.854 -407.592)" fill="#fff"/>
        </g>
      </g>
    </g>
  </g>
</svg>
