<svg xmlns="http://www.w3.org/2000/svg" width="82" height="82" viewBox="0 0 82 82">
  <g id="smicon1" transform="translate(-161 -469)">
    <rect id="長方形_183" data-name="長方形 183" width="82" height="82" transform="translate(161 469)" fill="none"/>
    <g id="グループ_1723" data-name="グループ 1723" transform="translate(114.424 -246.092)">
      <g id="グループ_1721" data-name="グループ 1721" transform="translate(49.205 773.18)">
        <path id="パス_955" data-name="パス 955" d="M108.071,823.307h-5.928a1.62,1.62,0,0,1-1.6-1.345l-.83-4.826a1.62,1.62,0,0,1,1.6-1.894H108.9a1.62,1.62,0,0,1,1.6,1.894l-.83,4.826A1.62,1.62,0,0,1,108.071,823.307Zm-4.563-3.24h3.2l.273-1.586h-3.743Z" transform="translate(-68.723 -811.458)" fill="#fff"/>
        <path id="パス_956" data-name="パス 956" d="M100.681,838.384h-.044a1.62,1.62,0,0,1-1.576-1.662l.173-6.493a1.62,1.62,0,0,1,.133-.6l1.991-4.589a1.62,1.62,0,1,1,2.972,1.29l-1.866,4.3-.165,6.18A1.62,1.62,0,0,1,100.681,838.384Z" transform="translate(-68.481 -814.829)" fill="#fff"/>
        <path id="パス_957" data-name="パス 957" d="M86.692,833.673a1.89,1.89,0,0,1-1.721-1.107l-2.71-5.949a1.89,1.89,0,0,1,.164-1.856l3.381-4.9-2.871-2.64a1.89,1.89,0,0,1-.26-2.487l2.448-3.439a1.89,1.89,0,0,1,3.079,2.192l-1.481,2.081,2.853,2.623a1.89,1.89,0,0,1,.276,2.464l-3.705,5.372L88.411,831a1.891,1.891,0,0,1-1.719,2.674Z" transform="translate(-62.111 -809.761)" fill="#fff"/>
        <path id="パス_958" data-name="パス 958" d="M112.888,838.384a1.62,1.62,0,0,1-1.618-1.577l-.165-6.18-1.866-4.3a1.62,1.62,0,1,1,2.972-1.29l1.991,4.589a1.621,1.621,0,0,1,.133.6l.173,6.493a1.62,1.62,0,0,1-1.576,1.662Z" transform="translate(-72.32 -814.829)" fill="#fff"/>
        <path id="パス_959" data-name="パス 959" d="M125.587,833.673A1.891,1.891,0,0,1,123.868,831l2.266-4.974-3.705-5.372a1.89,1.89,0,0,1,.276-2.464l2.853-2.623-1.481-2.081a1.89,1.89,0,0,1,3.079-2.192l2.448,3.439a1.89,1.89,0,0,1-.26,2.487l-2.871,2.64,3.381,4.9a1.89,1.89,0,0,1,.164,1.856l-2.71,5.949A1.89,1.89,0,0,1,125.587,833.673Z" transform="translate(-77.4 -809.761)" fill="#fff"/>
        <g id="グループ_1720" data-name="グループ 1720" transform="translate(0 0)">
          <path id="パス_960" data-name="パス 960" d="M51.642,832.736a1.891,1.891,0,0,1-1.863-2.222c.269-1.509.483-2.928.69-4.3.537-3.562.961-6.375,1.992-8.389a12.392,12.392,0,0,1,3.863-4.328,21.745,21.745,0,0,1,4.7-2.524,29.939,29.939,0,0,1,5.717-1.644,1.89,1.89,0,0,1,.6,3.731,26.578,26.578,0,0,0-4.989,1.451c-2.272.914-5.249,2.529-6.532,5.036-.75,1.466-1.153,4.137-1.619,7.231-.211,1.4-.428,2.842-.706,4.4A1.89,1.89,0,0,1,51.642,832.736Z" transform="translate(-49.75 -809.305)" fill="#fff"/>
          <path id="パス_961" data-name="パス 961" d="M153.776,832.736a1.89,1.89,0,0,1-1.858-1.558c-.278-1.559-.5-3-.706-4.4-.466-3.094-.869-5.765-1.619-7.231-1.283-2.506-4.26-4.121-6.532-5.035a26.579,26.579,0,0,0-4.989-1.451,1.89,1.89,0,0,1,.6-3.731,29.937,29.937,0,0,1,5.717,1.644,21.747,21.747,0,0,1,4.7,2.523,12.393,12.393,0,0,1,3.863,4.328c1.031,2.015,1.455,4.828,1.992,8.39.207,1.372.421,2.792.69,4.3a1.891,1.891,0,0,1-1.863,2.222Z" transform="translate(-82.9 -809.305)" fill="#fff"/>
        </g>
      </g>
      <g id="グループ_1722" data-name="グループ 1722" transform="translate(89.555 715.092)">
        <path id="パス_962" data-name="パス 962" d="M143.681,759.669a33.966,33.966,0,0,1-7.009-.591c-5.835-1.289-8.389-3.143-8.5-3.221l1.926-2.605-.01-.007c.021.015,2.206,1.549,7.278,2.67,3.993.882,10.848.4,13.429.218a2.027,2.027,0,0,0,1.429-.567c.035-.05.106-.15.038-.436a3.863,3.863,0,0,0-.54-.349c-.093-.054-.185-.107-.273-.16a1.62,1.62,0,0,1,.425-2.953c.856-.226,1.246-.653,1.249-.777.01-.357-.41-.755-1-.946a1.62,1.62,0,0,1,.089-3.106c.6-.158,1.04-.531,1.05-.888s-.409-.755-1-.946a1.62,1.62,0,0,1,.088-3.107c.6-.158,1.04-.531,1.05-.888,0-.07,0-.131-.123-.255-.281-.276-1.3-.941-4.678-1.166a53.969,53.969,0,0,0-5.992.028c-.3.014-.553.027-.75.033h-.055a1.62,1.62,0,0,1-.053-3.239c.173-.006.418-.018.7-.031a56.828,56.828,0,0,1,6.363-.024c3.37.225,5.509.887,6.731,2.085a3.509,3.509,0,0,1,1.093,2.66,3.774,3.774,0,0,0-.14,4.941,3.773,3.773,0,0,0-.141,4.94,3.555,3.555,0,0,1-1.26,2.575,2.953,2.953,0,0,1,.268.652,3.749,3.749,0,0,1-.5,3.225,5.047,5.047,0,0,1-3.848,1.929C148.746,759.524,146.175,759.669,143.681,759.669Z" transform="translate(-119.678 -723.188)" fill="#fff"/>
        <path id="パス_963" data-name="パス 963" d="M129.189,733.313a1.62,1.62,0,0,1-.766-3.048,14.906,14.906,0,0,1,4.091-1.3,10.672,10.672,0,0,0,1.064-.248c1.657-.6,2.873-1.268,3.432-4.486a20.706,20.706,0,0,1,1.823-5.976c.759-1.444,2.12-3.165,4.288-3.165a3.341,3.341,0,0,1,2.583,1.059c1.292,1.427,1.166,3.718.8,7.321-.389,3.887-.511,6.422-.512,6.447a1.62,1.62,0,0,1-3.236-.152c0-.106.126-2.638.525-6.618a32.319,32.319,0,0,0,.228-3.525,3,3,0,0,0-.2-1.275.91.91,0,0,0-.2-.017c-.6,0-1.194,1-1.421,1.434a17.87,17.87,0,0,0-1.5,5.022,9.359,9.359,0,0,1-2.014,4.762,8.169,8.169,0,0,1-3.511,2.218,11.451,11.451,0,0,1-1.514.374,12.134,12.134,0,0,0-3.211.98A1.614,1.614,0,0,1,129.189,733.313Z" transform="translate(-119.727 -715.092)" fill="#fff"/>
        <path id="パス_964" data-name="パス 964" d="M123.094,758.394h-6.6a1.62,1.62,0,1,1,0-3.24h6.087V739.919H116.5a1.62,1.62,0,0,1,0-3.24h6.6a2.731,2.731,0,0,1,2.728,2.728v16.259A2.731,2.731,0,0,1,123.094,758.394Z" transform="translate(-114.876 -723.343)" fill="#fff"/>
      </g>
      <path id="パス_965" data-name="パス 965" d="M70.336,736.293a1.907,1.907,0,0,1-1.9-1.7c-.249-2.219-.57-3.437-1.073-4.075-.365-.462-.986-.844-2.832-1.2a1.909,1.909,0,0,1,0-3.747c1.848-.361,2.469-.743,2.833-1.2.5-.637.824-1.856,1.073-4.075a1.908,1.908,0,0,1,3.793,0c.249,2.218.57,3.436,1.073,4.074.365.462.986.844,2.832,1.2a1.909,1.909,0,0,1,0,3.748c-1.845.36-2.466.742-2.83,1.2-.5.637-.824,1.856-1.073,4.076A1.907,1.907,0,0,1,70.336,736.293Zm-1.571-8.85a5.173,5.173,0,0,1,1.145,1.071,5.467,5.467,0,0,1,.426.627,5.467,5.467,0,0,1,.426-.627,5.172,5.172,0,0,1,1.145-1.071,5.176,5.176,0,0,1-1.145-1.071,5.458,5.458,0,0,1-.426-.627,5.457,5.457,0,0,1-.426.627A5.173,5.173,0,0,1,68.764,727.443Z" transform="translate(-5.49 -1.338)" fill="#fff"/>
      <path id="パス_966" data-name="パス 966" d="M55.972,764.6a1.907,1.907,0,0,1-1.9-1.7c-.249-2.218-.57-3.437-1.073-4.075-.365-.462-.986-.844-2.832-1.2a1.909,1.909,0,0,1,0-3.747c1.846-.36,2.467-.742,2.831-1.2.5-.638.824-1.856,1.073-4.075a1.908,1.908,0,0,1,3.793,0c.249,2.221.57,3.44,1.073,4.077.365.462.986.844,2.832,1.2a1.909,1.909,0,0,1,0,3.747c-1.845.36-2.466.742-2.831,1.2-.5.638-.824,1.856-1.073,4.075A1.909,1.909,0,0,1,55.972,764.6Zm-1.571-8.85a5.172,5.172,0,0,1,1.145,1.071,5.467,5.467,0,0,1,.426.627,5.47,5.47,0,0,1,.426-.627,5.174,5.174,0,0,1,1.145-1.071,5.172,5.172,0,0,1-1.145-1.071,5.46,5.46,0,0,1-.426-.627,5.467,5.467,0,0,1-.426.627A5.173,5.173,0,0,1,54.4,755.747Z" transform="translate(0 -12.156)" fill="#fff"/>
      <path id="パス_967" data-name="パス 967" d="M116.516,736.429h6.6a3,3,0,0,1,3,3v16.259a3,3,0,0,1-3,3h-6.6a1.89,1.89,0,0,1-1.89-1.89V738.319A1.89,1.89,0,0,1,116.516,736.429Zm5.817,3.78h-3.927v14.7h3.927Z" transform="translate(-25.341 -8.271)" fill="#fff"/>
      <path id="パス_968" data-name="パス 968" d="M96.58,786.724a17.608,17.608,0,0,1-7.671-1.755,19.485,19.485,0,0,1-6.2-4.732,23.143,23.143,0,0,1-5.63-15.367c0-5.661,1.934-10.429,5.592-13.789a17.95,17.95,0,0,1,6.054-3.627,22.718,22.718,0,0,1,7.266-1.313,1.89,1.89,0,0,1,.085,3.779,18.95,18.95,0,0,0-6.059,1.086,14.193,14.193,0,0,0-4.79,2.858,12.825,12.825,0,0,0-3.179,4.564,16.72,16.72,0,0,0-1.19,6.441c0,9.967,7.051,18.075,15.719,18.075a14.593,14.593,0,0,0,10.526-4.659,19.094,19.094,0,0,0,5.118-11.692,1.89,1.89,0,0,1,3.767.31,22.881,22.881,0,0,1-6.162,14A18.338,18.338,0,0,1,96.58,786.724Z" transform="translate(-10.992 -11.982)" fill="#fff"/>
    </g>
  </g>
</svg>
