<svg xmlns="http://www.w3.org/2000/svg" width="82" height="82" viewBox="0 0 82 82">
  <g id="smicon4" transform="translate(-369 -377)">
    <rect id="長方形_185" data-name="長方形 185" width="82" height="82" transform="translate(369 377)" fill="none"/>
    <g id="グループ_1734" data-name="グループ 1734" transform="translate(64 -107)">
      <rect id="長方形_181" data-name="長方形 181" width="82" height="82" transform="translate(305 484)" fill="none"/>
      <g id="グループ_1713" data-name="グループ 1713" transform="translate(-548.977 -63.379)">
        <path id="パス_939" data-name="パス 939" d="M886.988,585.755a1.676,1.676,0,0,1-.751-.177l-5.885-2.943-5.555,1.984a1.679,1.679,0,1,1-1.129-3.162l6.229-2.225a1.678,1.678,0,0,1,1.316.079l5.543,2.771,9.984-8.342a1.679,1.679,0,0,1,2-.114l4.754,3.128L910,572.847a1.679,1.679,0,1,1,1.728,2.879l-7.416,4.45a1.679,1.679,0,0,1-1.787-.037l-4.594-3.022-9.87,8.248A1.678,1.678,0,0,1,886.988,585.755Z" transform="translate(-6.671 -8.15)" fill="#fff"/>
        <path id="パス_940" data-name="パス 940" d="M950.275,629.336a1.679,1.679,0,0,1-1.679-1.679v-6.839a10.973,10.973,0,0,0-2.04-6.4,11.084,11.084,0,0,0-5.221-3.993,1.679,1.679,0,0,1-.09-3.115,9.371,9.371,0,1,0-7.468,0,1.679,1.679,0,0,1-.433,3.2,15.65,15.65,0,0,0-5.9,2.309c-.713.482-2.2,1.937-4.152,6.271a1.679,1.679,0,0,1-2.679.536l-5.171-4.846a1.7,1.7,0,1,0-2.33,2.482l8.8,8.252a1.7,1.7,0,0,0,1.165.461,1.676,1.676,0,0,0,.406-.049c.369-.091.7-.525,1.207-1.228.076-.106.152-.212.23-.318l.681-.927a30.061,30.061,0,0,0,1.87-2.691,1.679,1.679,0,1,1,2.889,1.711,32.975,32.975,0,0,1-2.054,2.97l-.678.923c-.07.1-.14.193-.21.291a5.526,5.526,0,0,1-3.124,2.529,5.059,5.059,0,0,1-4.679-1.221l-8.8-8.252a5.06,5.06,0,0,1,6.923-7.382l3.506,3.286a15.118,15.118,0,0,1,4.32-5.578,17.681,17.681,0,0,1,3.489-1.81,12.729,12.729,0,1,1,16.328.489,14.46,14.46,0,0,1,3.91,3.752,14.313,14.313,0,0,1,2.663,8.346v6.839A1.679,1.679,0,0,1,950.275,629.336Z" transform="translate(-20.554 -13.217)" fill="#fff"/>
        <path id="線_52" data-name="線 52" d="M8.879,17.4a1.678,1.678,0,0,1-1.462-.852L-1.532.757A1.679,1.679,0,0,1-.9-1.532,1.679,1.679,0,0,1,1.39-.9l8.949,15.792A1.679,1.679,0,0,1,8.879,17.4Z" transform="translate(882.384 583.554)" fill="#fff"/>
        <path id="パス_941" data-name="パス 941" d="M949,663.259H897.959a1.679,1.679,0,0,1-1.679-1.679v-9.556a1.679,1.679,0,0,1,1.679-1.679H949a1.679,1.679,0,1,1,0,3.358H899.638v6.2H949a1.679,1.679,0,1,1,0,3.358Z" transform="translate(-15.655 -37.584)" fill="#fff"/>
        <path id="パス_942" data-name="パス 942" d="M884.974,600.7h-28.36a1.679,1.679,0,0,1-1.679-1.679V552.762a1.679,1.679,0,0,1,1.679-1.679h63.632a1.679,1.679,0,0,1,1.679,1.679v15.845a1.679,1.679,0,1,1-3.358,0V554.441H858.292v42.9h26.681a1.679,1.679,0,1,1,0,3.358Z" transform="translate(0 0)" fill="#fff"/>
      </g>
    </g>
  </g>
</svg>
