<svg xmlns="http://www.w3.org/2000/svg" width="82" height="82" viewBox="0 0 82 82">
  <g id="smicon2" transform="translate(-192 -342)">
    <rect id="長方形_184" data-name="長方形 184" width="82" height="82" transform="translate(192 342)" fill="none"/>
    <g id="グループ_1717" data-name="グループ 1717" transform="translate(-338.438 138.372)">
      <path id="パス_943" data-name="パス 943" d="M602.442,226.418a1.567,1.567,0,0,1-1.567-1.567v-.509a5.621,5.621,0,0,0-3.67-5.251,1.567,1.567,0,0,1-.084-2.906,4.639,4.639,0,1,0-3.7,0,1.567,1.567,0,0,1-.084,2.906,5.621,5.621,0,0,0-3.67,5.251v.509a1.567,1.567,0,1,1-3.133,0v-.509a8.658,8.658,0,0,1,1.611-5.049,8.773,8.773,0,0,1,1.7-1.794,7.772,7.772,0,1,1,10.842,0,8.775,8.775,0,0,1,1.7,1.794,8.658,8.658,0,0,1,1.611,5.049v.509A1.567,1.567,0,0,1,602.442,226.418Z" transform="translate(-20.882 0)" fill="#fff"/>
      <g id="グループ_1714" data-name="グループ 1714" transform="translate(539.9 207.355)">
        <path id="パス_944" data-name="パス 944" d="M559.548,231.739a1.567,1.567,0,0,1-1.567-1.567v-.508a5.62,5.62,0,0,0-3.669-5.251,1.567,1.567,0,0,1-.084-2.906,4.639,4.639,0,1,0-3.7,0,1.567,1.567,0,0,1-.084,2.906,5.62,5.62,0,0,0-3.669,5.251v.508a1.567,1.567,0,1,1-3.133,0v-.508a8.659,8.659,0,0,1,1.611-5.049,8.774,8.774,0,0,1,1.7-1.794,7.772,7.772,0,1,1,10.843,0,8.772,8.772,0,0,1,1.7,1.794,8.659,8.659,0,0,1,1.611,5.049v.508A1.567,1.567,0,0,1,559.548,231.739Z" transform="translate(-543.645 -209.481)" fill="#fff"/>
        <path id="パス_945" data-name="パス 945" d="M645.335,231.739a1.567,1.567,0,0,1-1.567-1.567v-.508a5.62,5.62,0,0,0-3.669-5.251,1.567,1.567,0,0,1-.084-2.906,4.639,4.639,0,1,0-3.7,0,1.567,1.567,0,0,1-.084,2.906,5.62,5.62,0,0,0-3.669,5.251v.508a1.567,1.567,0,1,1-3.133,0v-.508a8.659,8.659,0,0,1,1.611-5.049,8.774,8.774,0,0,1,1.7-1.794,7.772,7.772,0,1,1,10.842,0,8.772,8.772,0,0,1,1.7,1.794,8.659,8.659,0,0,1,1.611,5.049v.508A1.567,1.567,0,0,1,645.335,231.739Z" transform="translate(-577.919 -209.481)" fill="#fff"/>
      </g>
      <g id="グループ_1715" data-name="グループ 1715" transform="translate(546.725 228.084)">
        <path id="線_53" data-name="線 53" d="M8.93,11.919a1.563,1.563,0,0,1-1.187-.544L6.379,9.792A1.567,1.567,0,1,1,8.753,7.747l1.364,1.582A1.567,1.567,0,0,1,8.93,11.919Zm-7.5-8.7A1.563,1.563,0,0,1,.243,2.672L-1.12,1.089A1.567,1.567,0,0,1,1.253-.956L2.617.626A1.567,1.567,0,0,1,1.431,3.216Z" transform="translate(1.5 1.5)" fill="#fff"/>
        <path id="線_54" data-name="線 54" d="M.666,11.919A1.567,1.567,0,0,1-.52,9.329L.844,7.747A1.567,1.567,0,1,1,3.217,9.792L1.854,11.375A1.563,1.563,0,0,1,.666,11.919Zm7.5-8.7A1.567,1.567,0,0,1,6.979.626L8.343-.956a1.567,1.567,0,0,1,2.374,2.045L9.353,2.672A1.563,1.563,0,0,1,8.165,3.216Z" transform="translate(44.237 1.5)" fill="#fff"/>
      </g>
      <path id="線_55" data-name="線 55" d="M.078,14.515A1.828,1.828,0,0,1-1.75,12.687V10.6a1.828,1.828,0,0,1,3.655,0v2.089A1.828,1.828,0,0,1,.078,14.515Zm0-11.488A1.828,1.828,0,0,1-1.75,1.2V.078a1.828,1.828,0,1,1,3.655,0V1.2A1.828,1.828,0,0,1,.078,3.027Z" transform="translate(574.314 223.789)" fill="#fff"/>
      <g id="グループ_1716" data-name="グループ 1716" transform="translate(533.994 249.104)">
        <path id="線_56" data-name="線 56" d="M3.35,3.878a1.819,1.819,0,0,1-.941-.262L-.866,1.643A1.828,1.828,0,1,1,1.021-1.488L4.295.485A1.828,1.828,0,0,1,3.35,3.878Z" transform="translate(1.75 1.75)" fill="#fff"/>
        <path id="線_57" data-name="線 57" d="M.079,3.878A1.828,1.828,0,0,1-.866.485L2.408-1.488A1.828,1.828,0,1,1,4.295,1.643L1.021,3.616A1.819,1.819,0,0,1,.079,3.878Z" transform="translate(1.75 13.436)" fill="#fff"/>
      </g>
      <path id="パス_946" data-name="パス 946" d="M577.291,295.311a1.567,1.567,0,0,1-1.567-1.567v-8.139a1.567,1.567,0,0,1,1.589-1.566c5.857.085,7.943,2.967,7.943,5.636s-2.087,5.55-7.943,5.636Zm1.567-8.019v4.766a5.529,5.529,0,0,0,2.387-.828,1.815,1.815,0,0,0,0-3.11A5.529,5.529,0,0,0,578.857,287.292Z" transform="translate(-18.292 -31.914)" fill="#fff"/>
      <path id="パス_948" data-name="パス 948" d="M549.579,275.119a1.826,1.826,0,0,1,.9.238h0a38.24,38.24,0,0,0,5.987,2.911c1.58.332,9.955,1.641,10.04,1.654a1.823,1.823,0,0,1,1.006.509,6.412,6.412,0,0,1,3.515,1.63,5.955,5.955,0,0,1,0,8.32,6.412,6.412,0,0,1-3.515,1.63,1.822,1.822,0,0,1-1.007.51c-2.919.456-8.775,1.388-10.039,1.653a38.238,38.238,0,0,0-5.987,2.912,1.828,1.828,0,0,1-2.73-1.589V276.947a1.828,1.828,0,0,1,1.828-1.828Zm15.278,8.245c-2.361-.372-7.812-1.238-9.141-1.518a22.24,22.24,0,0,1-4.31-1.833v12.418a22.273,22.273,0,0,1,4.31-1.833c1.328-.279,6.779-1.145,9.14-1.517a1.823,1.823,0,0,1,1.333-.617c1.91-.038,2.878-.793,2.878-2.242s-.968-2.2-2.878-2.242A1.823,1.823,0,0,1,564.857,283.364Z" transform="translate(-5.496 -28.461)" fill="#fff"/>
      <path id="パス_949" data-name="パス 949" d="M608.278,309.377a1.828,1.828,0,0,1-1.828-1.828v-1.092a13.429,13.429,0,0,0-2.5-7.831,13.565,13.565,0,0,0-6.388-4.886,1.828,1.828,0,0,1-.1-3.391,11.5,11.5,0,0,0-4.582-22.039,11.353,11.353,0,0,0-5.294,1.29,11.614,11.614,0,0,0-4,3.445,1.828,1.828,0,0,1-2.954-2.153,15.132,15.132,0,0,1,12.25-6.238,15.15,15.15,0,0,1,9.15,27.227,17.211,17.211,0,0,1,8.07,14.574v1.092A1.828,1.828,0,0,1,608.278,309.377Z" transform="translate(-18.495 -24.281)" fill="#fff"/>
      <path id="パス_950" data-name="パス 950" d="M574.421,325.469a1.828,1.828,0,0,1-1.828-1.828V322.55a17.065,17.065,0,0,1,3.174-9.951,17.238,17.238,0,0,1,4.946-4.655,1.828,1.828,0,0,1,2.453-2.672,11.5,11.5,0,0,0,2.064,1.171,1.828,1.828,0,0,1-.1,3.391,13.566,13.566,0,0,0-6.388,4.886,13.429,13.429,0,0,0-2.5,7.831v1.092A1.828,1.828,0,0,1,574.421,325.469Z" transform="translate(-15.421 -40.373)" fill="#fff"/>
    </g>
  </g>
</svg>
