<svg xmlns="http://www.w3.org/2000/svg" xmlns:xlink="http://www.w3.org/1999/xlink" width="54" height="54" viewBox="0 0 54 54">
  <defs>
    <clipPath id="clip-path">
      <rect id="長方形_602" data-name="長方形 602" width="54" height="54" transform="translate(710 2741)" fill="none"/>
    </clipPath>
  </defs>
  <g id="function5" transform="translate(-710 -2741)" clip-path="url(#clip-path)">
    <g id="function5-2" data-name="function5" transform="translate(959.829 2368.305)">
      <path id="長方形_206" data-name="長方形 206" d="M6,3.8A2.2,2.2,0,0,0,3.8,6V46A2.2,2.2,0,0,0,6,48.2H29A2.2,2.2,0,0,0,31.2,46V6A2.2,2.2,0,0,0,29,3.8H6M6,0H29a6,6,0,0,1,6,6V46a6,6,0,0,1-6,6H6a6,6,0,0,1-6-6V6A6,6,0,0,1,6,0Z" transform="translate(-240.329 373.695)" fill="#fff"/>
      <g id="グループ_2714" data-name="グループ 2714">
        <rect id="長方形_207" data-name="長方形 207" width="13.754" height="6.11" rx="3.055" transform="translate(-229.705 373.695)" fill="#fff"/>
        <rect id="長方形_208" data-name="長方形 208" width="14.674" height="2.869" rx="1.435" transform="translate(-230.166 415.398)" fill="#fff"/>
      </g>
    </g>
  </g>
</svg>
