<svg xmlns="http://www.w3.org/2000/svg" xmlns:xlink="http://www.w3.org/1999/xlink" width="54" height="54" viewBox="0 0 54 54">
  <defs>
    <clipPath id="clip-path">
      <rect id="長方形_421" data-name="長方形 421" width="54" height="54" transform="translate(1033 2344)" fill="#fff" stroke="#707070" stroke-width="1"/>
    </clipPath>
  </defs>
  <g id="マスクグループ_6" data-name="マスクグループ 6" transform="translate(-1033 -2344)" clip-path="url(#clip-path)">
    <g id="グループ_1819" data-name="グループ 1819" transform="translate(419.882 1558.82)">
      <path id="パス_1074" data-name="パス 1074" d="M659.962,804.07h-2.315a17.764,17.764,0,0,0-35.059,0h-2.314a5.188,5.188,0,0,0-5.156,5.208v6.969a5.188,5.188,0,0,0,5.156,5.208h4.514a2.387,2.387,0,0,0,2.374-2.4V806.469a12.964,12.964,0,0,1,25.91,0v12.588c0,4.162-3.938,8.041-6.781,9.242a2.407,2.407,0,0,0-1.275,3.139,2.362,2.362,0,0,0,3.107,1.288c3.526-1.49,8.313-5.789,9.449-11.27h2.389a5.188,5.188,0,0,0,5.156-5.208v-6.969A5.188,5.188,0,0,0,659.962,804.07Zm-37.548,12.588h-2.14a.409.409,0,0,1-.407-.411v-6.969a.409.409,0,0,1,.407-.411h2.14Zm37.955-.411a.409.409,0,0,1-.407.411h-2.14v-7.791h2.14a.409.409,0,0,1,.407.411Z" transform="translate(0 0)" fill="#fff" stroke="#102b72" stroke-width="1.5"/>
      <path id="パス_1075" data-name="パス 1075" d="M652.044,819.712v-3.488c-.014-5.907-3.174-7.02-5.713-7.914a11.248,11.248,0,0,1-6.411-4.651,2.31,2.31,0,0,0-4.03.465,21.964,21.964,0,0,1-4.9,7.927,2.308,2.308,0,0,0-.732,1.687v5.974a9.887,9.887,0,0,0,1.717,5.276c-5.059,1.422-11.142,5.358-11.8,9.5a2.31,2.31,0,0,0,1.921,2.642,2.336,2.336,0,0,0,.363.029,2.311,2.311,0,0,0,2.279-1.95c.381-2.416,7.484-6.16,10.773-6.16a2.313,2.313,0,0,0,.5-.056,9.774,9.774,0,0,0,5.14,1.639C645.908,830.629,652.044,825.335,652.044,819.712ZM634.879,814.7a23.715,23.715,0,0,0,3.771-5.492,16.348,16.348,0,0,0,6.146,3.464c2.272.8,2.622.923,2.628,3.563v3.481c0,2.859-3.853,6.3-6.272,6.3-2.477,0-6.273-3.377-6.273-6.3Z" transform="translate(-1.711 -2.977)" fill="#fff" stroke="#102b72" stroke-width="1.5"/>
    </g>
  </g>
</svg>
