<svg xmlns="http://www.w3.org/2000/svg" xmlns:xlink="http://www.w3.org/1999/xlink" width="54" height="54" viewBox="0 0 54 54">
  <defs>
    <clipPath id="clip-path">
      <rect id="長方形_604" data-name="長方形 604" width="54" height="54" transform="translate(1029 2587)" fill="none"/>
    </clipPath>
    <clipPath id="clip-path-2">
      <rect id="長方形_199" data-name="長方形 199" width="48" height="48" transform="translate(-0.031)" fill="none"/>
    </clipPath>
  </defs>
  <g id="function3" transform="translate(-1029 -2587)" clip-path="url(#clip-path)">
    <g id="function3-2" data-name="function3" transform="translate(1032.031 2590)" clip-path="url(#clip-path-2)">
      <path id="パス_900" data-name="パス 900" d="M195.406,567.617a6.348,6.348,0,0,0-4.554-6.1v-5.064a1.8,1.8,0,1,0-3.594,0v5.064a6.349,6.349,0,0,0,.024,12.187l.072,9.837a6.37,6.37,0,0,0-.1,12.239v4.941a1.8,1.8,0,1,0,3.594,0v-4.941a6.36,6.36,0,0,0,.1-12.167l-.072-9.909a6.377,6.377,0,0,0,4.53-6.092Zm-9.107,0a2.756,2.756,0,1,1,2.755,2.758,2.774,2.774,0,0,1-2.755-2.758Zm5.513,22.072a2.756,2.756,0,1,1-2.758-2.758,2.774,2.774,0,0,1,2.758,2.758Zm34.15-30.47H202.715a4.667,4.667,0,0,0-4.673,4.677v7.439a4.667,4.667,0,0,0,4.673,4.677h23.248a4.667,4.667,0,0,0,4.673-4.677V563.9a4.667,4.667,0,0,0-4.673-4.677Zm1.079,12.115a1.075,1.075,0,0,1-1.079,1.079H202.715a1.075,1.075,0,0,1-1.079-1.079V563.9a1.075,1.075,0,0,1,1.079-1.079h23.248a1.075,1.075,0,0,1,1.079,1.079Zm-1.079,9.957H202.715a4.668,4.668,0,0,0-4.673,4.68v7.435a4.668,4.668,0,0,0,4.673,4.68h23.248a4.668,4.668,0,0,0,4.673-4.68v-7.435a4.668,4.668,0,0,0-4.673-4.68Zm1.079,12.115a1.076,1.076,0,0,1-1.079,1.083H202.715a1.076,1.076,0,0,1-1.079-1.083v-7.435a1.075,1.075,0,0,1,1.079-1.079h23.248a1.075,1.075,0,0,1,1.079,1.079Zm0,0" transform="translate(-182.711 -554.614)" fill="#fff"/>
    </g>
  </g>
</svg>
