<svg xmlns="http://www.w3.org/2000/svg" xmlns:xlink="http://www.w3.org/1999/xlink" width="54" height="54" viewBox="0 0 54 54">
  <defs>
    <clipPath id="clip-path">
      <rect id="長方形_599" data-name="長方形 599" width="54" height="54" transform="translate(374 2583)" fill="none"/>
    </clipPath>
  </defs>
  <g id="function1" transform="translate(-374 -2583)" clip-path="url(#clip-path)">
    <g id="function1-2" data-name="function1" transform="translate(245.851 2562.66)">
      <path id="長方形_195" data-name="長方形 195" d="M3.078-2A5.084,5.084,0,0,1,8.156,3.078v7A5.078,5.078,0,1,1-2,10.077v-7A5.084,5.084,0,0,1,3.078-2Zm0,13.3a1.228,1.228,0,0,0,1.227-1.227v-7a1.227,1.227,0,1,0-2.454,0v7A1.228,1.228,0,0,0,3.078,11.3Z" transform="translate(131.149 37.293)" fill="#fff"/>
      <path id="長方形_196" data-name="長方形 196" d="M3.078-2A5.073,5.073,0,0,1,8.156,3.056V32.945A5.078,5.078,0,0,1-2,32.945V3.056A5.073,5.073,0,0,1,3.078-2Zm0,36.166a1.226,1.226,0,0,0,1.227-1.222V3.056a1.227,1.227,0,0,0-2.454,0V32.945A1.226,1.226,0,0,0,3.078,34.166Z" transform="translate(172.993 25.84)" fill="#fff"/>
      <path id="線_13" data-name="線 13" d="M35.734,13.568-.618,1.76.572-1.9,36.924,9.906Z" transform="translate(137.239 48.725)" fill="#fff"/>
      <path id="線_14" data-name="線 14" d="M.572,13.621-.618,9.958,35.891-1.9l1.19,3.663Z" transform="translate(137.081 27.357)" fill="#fff"/>
      <path id="パス_897" data-name="パス 897" d="M145.466,55.864a10.977,10.977,0,0,1-10.994-10.959,1.926,1.926,0,0,1,3.851,0,7.143,7.143,0,0,0,14.286,0,7.037,7.037,0,0,0-.559-2.765,1.926,1.926,0,0,1,3.545-1.5,10.969,10.969,0,0,1-10.129,15.228Z" transform="translate(5.482 14.976)" fill="#fff"/>
    </g>
  </g>
</svg>
