<svg xmlns="http://www.w3.org/2000/svg" xmlns:xlink="http://www.w3.org/1999/xlink" width="54" height="54" viewBox="0 0 54 54">
  <defs>
    <clipPath id="clip-path">
      <rect id="長方形_420" data-name="長方形 420" width="54" height="54" transform="translate(397 2345)" fill="#fff" stroke="#707070" stroke-width="1"/>
    </clipPath>
  </defs>
  <g id="マスクグループ_5" data-name="マスクグループ 5" transform="translate(-397 -2345)" clip-path="url(#clip-path)">
    <g id="グループ_1729" data-name="グループ 1729" transform="translate(-33.996 1799.577)">
      <rect id="長方形_202" data-name="長方形 202" width="50" height="35" rx="4" transform="translate(432.996 555.423)" fill="none" stroke="#fff" stroke-miterlimit="10" stroke-width="3"/>
      <g id="グループ_1727" data-name="グループ 1727" transform="translate(439.103 562.938)">
        <circle id="楕円形_16" data-name="楕円形 16" cx="4.44" cy="4.44" r="4.44" transform="translate(4.44 0)" fill="none" stroke="#fff" stroke-miterlimit="10" stroke-width="2.5"/>
        <path id="パス_901" data-name="パス 901" d="M452.6,564.574a7.47,7.47,0,0,0-4.773-3.52,1.533,1.533,0,0,0-1.129.149,5.491,5.491,0,0,1-5.5,0,1.537,1.537,0,0,0-1.13-.149,7.468,7.468,0,0,0-4.777,3.52,1.721,1.721,0,0,0,.32,2.1,12.306,12.306,0,0,0,16.672,0A1.721,1.721,0,0,0,452.6,564.574Z" transform="translate(-435.06 -548.982)" fill="none" stroke="#fff" stroke-miterlimit="10" stroke-width="2.5"/>
      </g>
      <g id="グループ_1728" data-name="グループ 1728" transform="translate(459.358 565.639)">
        <rect id="長方形_203" data-name="長方形 203" width="18.172" height="2.841" rx="1.421" fill="#fff"/>
        <rect id="長方形_204" data-name="長方形 204" width="18.172" height="2.841" rx="1.421" transform="translate(0 6.351)" fill="#fff"/>
        <rect id="長方形_205" data-name="長方形 205" width="16.52" height="2.841" rx="1.421" transform="translate(1.652 12.703)" fill="#fff"/>
      </g>
    </g>
  </g>
</svg>
