<svg xmlns="http://www.w3.org/2000/svg" width="112" height="35.999" viewBox="0 0 112 35.999">
  <g id="グループ_1993" data-name="グループ 1993" transform="translate(-385 -15)">
    <g id="グループ_1638" data-name="グループ 1638" transform="translate(209.656 -595.564)">
      <g id="グループ_1637" data-name="グループ 1637" transform="translate(175.344 614.088)">
        <path id="パス_880" data-name="パス 880" d="M213.8,626.308a11.5,11.5,0,0,0-2.273-6.128l-.9,3.132a9.555,9.555,0,0,1,.811,3.169v.005c0,.006-.012.01-.011.016,0,.067,0,.134.007.2h0a1.188,1.188,0,0,0,1.181.924,1.174,1.174,0,0,0,1.2-1.141A1.044,1.044,0,0,0,213.8,626.308Zm-25.015-1.365a9.973,9.973,0,0,0-3.878-.779,9,9,0,1,0,0,17.974l2.731.033a1.16,1.16,0,1,0,0-2.317c-.019,0-.035-.005-.054-.005h-2.677a6.741,6.741,0,1,1,0-13.456,7.475,7.475,0,0,1,2.9.6l2.795,1.186.537-2.845a10.083,10.083,0,0,1,10.076-7.97,10.658,10.658,0,0,1,2.524.3l3.142-1.289a13.132,13.132,0,0,0-5.679-1.278A12.452,12.452,0,0,0,188.784,624.943Z" transform="translate(-175.344 -615.1)" fill="#00226b"/>
        <g id="グループ_1635" data-name="グループ 1635" transform="translate(20.967 1.235)">
          <path id="パス_881" data-name="パス 881" d="M205.273,626.9l-.022-2.437,10.011-7.92-2.659,9.223-5.4-.953Z" transform="translate(-200.403 -616.541)" fill="#00226b"/>
          <path id="パス_882" data-name="パス 882" d="M202.687,623.843l-3.094-1.163,14.448-5.927Z" transform="translate(-199.593 -616.572)" fill="#00226b"/>
        </g>
        <g id="グループ_1636" data-name="グループ 1636" transform="translate(14.366 15.309)">
          <path id="パス_883" data-name="パス 883" d="M209.321,643.737V634a1.055,1.055,0,0,1,.344-.8,1.219,1.219,0,0,1,1.66,0,1.1,1.1,0,0,1,.356.8v9.737a1.092,1.092,0,0,1-.356.8,1.217,1.217,0,0,1-1.66,0A1.05,1.05,0,0,1,209.321,643.737Z" transform="translate(-194.225 -632.831)" fill="#00226b"/>
          <path id="パス_884" data-name="パス 884" d="M228.464,643.748l-4.067-9.255a1.209,1.209,0,0,1-.113-.5,1.04,1.04,0,0,1,.091-.428,1.181,1.181,0,0,1,.248-.358,1.132,1.132,0,0,1,.373-.241,1.234,1.234,0,0,1,.464-.086,1.247,1.247,0,0,1,.655.187,1.187,1.187,0,0,1,.463.552l3.175,7.179,3.174-7.2a1.268,1.268,0,0,1,.39-.518,1.14,1.14,0,0,1,.718-.2,1.237,1.237,0,0,1,.464.086,1.141,1.141,0,0,1,.373.241,1.244,1.244,0,0,1,.254.358.993.993,0,0,1,.1.428,1.2,1.2,0,0,1-.123.5l-6.5,14.756a1.272,1.272,0,0,1-.452.541,1.223,1.223,0,0,1-1.508-.114,1.065,1.065,0,0,1-.334-.8,1.132,1.132,0,0,1,.113-.493Z" transform="translate(-196.368 -632.831)" fill="#00226b"/>
          <path id="パス_885" data-name="パス 885" d="M221.643,633.844a1.185,1.185,0,0,0-1.342-.971c-.01,0-.018.005-.028.006a.14.14,0,0,0-.033,0,6.846,6.846,0,0,0-1.224.289,6.672,6.672,0,0,0-1.861.994v-.216a1.053,1.053,0,0,0-.348-.794,1.175,1.175,0,0,0-.839-.33,1.189,1.189,0,0,0-.85.33,1.05,1.05,0,0,0-.348.794v9.857a1.052,1.052,0,0,0,.348.794,1.186,1.186,0,0,0,.85.33,1.171,1.171,0,0,0,.839-.33,1.055,1.055,0,0,0,.348-.794v-4.929a3.547,3.547,0,0,1,.314-1.482,3.829,3.829,0,0,1,.856-1.2,4.109,4.109,0,0,1,1.273-.812,3.692,3.692,0,0,1,1-.264v0a.05.05,0,0,0,.016,0A1.142,1.142,0,0,0,221.643,633.844Z" transform="translate(-195.006 -632.824)" fill="#00226b"/>
          <path id="パス_886" data-name="パス 886" d="M201.995,643.748v-.214a6.576,6.576,0,0,1-1.841.984,6.462,6.462,0,0,1-2.125.343,6.262,6.262,0,0,1-4.473-1.755,5.77,5.77,0,0,1,0-8.474,6.578,6.578,0,0,1,8.947,0,5.614,5.614,0,0,1,1.854,4.235v4.881a1.042,1.042,0,0,1-.344.786,1.232,1.232,0,0,1-1.672,0A1.039,1.039,0,0,1,201.995,643.748Zm-3.966-8.637a4.049,4.049,0,0,0-2.813,1.107,3.839,3.839,0,0,0-.841,1.194,3.56,3.56,0,0,0,0,2.91,3.83,3.83,0,0,0,.841,1.194,4.094,4.094,0,0,0,5.621-.006,3.846,3.846,0,0,0,.847-1.193,3.547,3.547,0,0,0,0-2.9,3.855,3.855,0,0,0-.847-1.192,4.047,4.047,0,0,0-2.809-1.113Z" transform="translate(-191.702 -632.831)" fill="#00226b"/>
        </g>
      </g>
      <text id="Alumni" transform="translate(234.344 639.753)" fill="#00226b" font-size="16" font-family="Seravek-Medium, Seravek" font-weight="500"><tspan x="0" y="0">Alumni</tspan></text>
      <circle id="楕円形_10" data-name="楕円形 10" cx="7.065" cy="7.065" r="7.065" transform="translate(226.399 610.564)" fill="#00226b"/>
      <path id="パス_887" data-name="パス 887" d="M240.021,622.808l.942,6.594,2.826-7.065Z" transform="translate(-9.492 -1.739)" fill="#00226b"/>
      <text id="for" transform="translate(228.995 619.346)" fill="#fff" font-size="7" font-family="Seravek-Medium, Seravek" font-weight="500"><tspan x="0" y="0">for</tspan></text>
    </g>
  </g>
</svg>
