<svg xmlns="http://www.w3.org/2000/svg" width="69.999" height="50" viewBox="0 0 69.999 50">
  <g id="グループ_3148" data-name="グループ 3148" transform="translate(-2824.104 -1654.231)">
    <path id="パス_6216" data-name="パス 6216" d="M2889.781,1691.408a.406.406,0,0,0-.408.4v36.98a3.061,3.061,0,0,1-.061.8,1.332,1.332,0,0,1-1.341.908c-9.465-.731-21.944,2.067-28.532,6.451a.652.652,0,0,1-.672,0c-6.64-4.42-19.149-7.177-28.533-6.451a1.339,1.339,0,0,1-1.341-.908,3.063,3.063,0,0,1-.06-.8v-36.98a.406.406,0,0,0-.407-.4h-3a1.314,1.314,0,0,0-1.319,1.308v44.465a1.314,1.314,0,0,0,1.319,1.308h67.36a1.314,1.314,0,0,0,1.319-1.308v-44.465a1.314,1.314,0,0,0-1.319-1.308Z" transform="translate(0 -34.257)" fill="#e62e8b"/>
    <path id="パス_6217" data-name="パス 6217" d="M2943.888,1698.929c.2.111.352.022.352-.2v-38.167a1.008,1.008,0,0,0-.3-.674,16.838,16.838,0,0,0-4.838-2.763c-5.56-2.347-15.625-3.028-20.763-2.871a.423.423,0,0,0-.407.419v38.465a.4.4,0,0,0,.408.4,68.414,68.414,0,0,1,8.926.469C2933.275,1694.729,2938.968,1696.138,2943.888,1698.929Z" transform="translate(-86.456)" fill="#e62e8b"/>
    <path id="パス_6218" data-name="パス 6218" d="M3312.477,1693.543a.4.4,0,0,0,.408-.4v-38.465a.423.423,0,0,0-.407-.418c-5.148-.155-15.187.521-20.764,2.871a16.856,16.856,0,0,0-4.837,2.763,1.009,1.009,0,0,0-.3.674v38.167c0,.223.157.312.353.2,4.923-2.791,10.609-4.2,16.626-4.923A70.6,70.6,0,0,1,3312.477,1693.543Z" transform="translate(-426.15 -0.01)" fill="#e62e8b"/>
  </g>
</svg>
