<svg xmlns="http://www.w3.org/2000/svg" width="144" height="34.999" viewBox="0 0 144 34.999">
  <g id="グループ_3067" data-name="グループ 3067" transform="translate(-177.737 -371.062)">
    <g id="グループ_3066" data-name="グループ 3066" transform="translate(177.737 371.062)">
      <path id="パス_5691" data-name="パス 5691" d="M219.339,383.222a12.44,12.44,0,0,0-2.459-6.629l-.977,3.389a10.3,10.3,0,0,1,.878,3.429v0c0,.007-.012.011-.011.018,0,.072,0,.145.006.218h0a1.286,1.286,0,0,0,1.278,1,1.27,1.27,0,0,0,1.3-1.235A1.151,1.151,0,0,0,219.339,383.222Zm-27.062-1.476a10.785,10.785,0,0,0-4.2-.843c-5.714,0-10.345,4.311-10.345,9.723s4.631,9.723,10.345,9.723l2.954.036a1.255,1.255,0,1,0,0-2.506c-.019,0-.038-.006-.057-.006h-2.9a7.293,7.293,0,1,1,0-14.557,8.093,8.093,0,0,1,3.143.652l3.022,1.283.582-3.077a10.908,10.908,0,0,1,10.9-8.623,11.529,11.529,0,0,1,2.731.327l3.4-1.4a14.209,14.209,0,0,0-6.144-1.383A13.471,13.471,0,0,0,192.277,381.746Z" transform="translate(-177.737 -371.098)" fill="#d91579"/>
      <g id="グループ_3064" data-name="グループ 3064" transform="translate(22.476 1.335)">
        <path id="パス_5692" data-name="パス 5692" d="M205.81,383.654l-.023-2.636,10.83-8.568-2.876,9.977L207.9,381.4Z" transform="translate(-200.542 -372.449)" fill="#d91579"/>
        <path id="パス_5693" data-name="パス 5693" d="M203.828,380.318l-3.348-1.258,15.63-6.412Z" transform="translate(-200.48 -372.452)" fill="#d91579"/>
      </g>
      <g id="グループ_3065" data-name="グループ 3065" transform="translate(15.162 16.428)">
        <path id="パス_5694" data-name="パス 5694" d="M209.6,399.52V388.986a1.142,1.142,0,0,1,.373-.863,1.317,1.317,0,0,1,1.8,0,1.183,1.183,0,0,1,.385.863V399.52a1.177,1.177,0,0,1-.385.862,1.317,1.317,0,0,1-1.8,0A1.137,1.137,0,0,1,209.6,399.52Z" transform="translate(-193.273 -387.722)" fill="#d91579"/>
        <path id="パス_5695" data-name="パス 5695" d="M228.161,399.531l-4.4-10.012a1.3,1.3,0,0,1-.123-.546,1.134,1.134,0,0,1,.1-.464,1.284,1.284,0,0,1,.27-.387,1.194,1.194,0,0,1,.4-.26,1.325,1.325,0,0,1,.5-.094,1.347,1.347,0,0,1,.709.2,1.274,1.274,0,0,1,.5.6l3.435,7.766,3.434-7.79a1.368,1.368,0,0,1,.422-.561,1.235,1.235,0,0,1,.777-.215,1.336,1.336,0,0,1,.5.094,1.2,1.2,0,0,1,.4.26,1.354,1.354,0,0,1,.275.387,1.079,1.079,0,0,1,.1.464,1.307,1.307,0,0,1-.134.546l-7.028,15.963a1.388,1.388,0,0,1-.49.586,1.322,1.322,0,0,1-1.631-.124,1.147,1.147,0,0,1-.362-.866,1.224,1.224,0,0,1,.123-.534Z" transform="translate(-193.437 -387.722)" fill="#d91579"/>
        <path id="パス_5696" data-name="パス 5696" d="M222.151,388.825a1.283,1.283,0,0,0-1.452-1.051c-.011,0-.02.006-.031.007a.142.142,0,0,0-.035,0,7.571,7.571,0,0,0-1.325.311,7.246,7.246,0,0,0-2.013,1.076v-.233a1.144,1.144,0,0,0-.376-.86,1.348,1.348,0,0,0-1.827,0,1.139,1.139,0,0,0-.378.86V399.6a1.137,1.137,0,0,0,.378.859,1.348,1.348,0,0,0,1.827,0,1.142,1.142,0,0,0,.376-.859v-5.333a3.834,3.834,0,0,1,.34-1.6,4.122,4.122,0,0,1,.926-1.3,4.425,4.425,0,0,1,1.377-.878,4,4,0,0,1,1.086-.286v0a.054.054,0,0,0,.018,0A1.235,1.235,0,0,0,222.151,388.825Z" transform="translate(-193.333 -387.721)" fill="#d91579"/>
        <path id="パス_5697" data-name="パス 5697" d="M204.215,399.531v-.23a7.159,7.159,0,0,1-1.992,1.063,6.985,6.985,0,0,1-2.3.371,6.774,6.774,0,0,1-4.84-1.9,6.241,6.241,0,0,1,0-9.167,7.116,7.116,0,0,1,9.68,0,6.081,6.081,0,0,1,2.005,4.583v5.28a1.129,1.129,0,0,1-.373.85,1.254,1.254,0,0,1-.9.354,1.27,1.27,0,0,1-.911-.354A1.125,1.125,0,0,1,204.215,399.531Zm-4.291-9.343a4.386,4.386,0,0,0-1.686.323,4.33,4.33,0,0,0-1.357.875,4.119,4.119,0,0,0-.91,1.291,3.846,3.846,0,0,0,0,3.149,4.123,4.123,0,0,0,.91,1.292,4.429,4.429,0,0,0,6.081-.007,4.172,4.172,0,0,0,.917-1.29,3.833,3.833,0,0,0,0-3.139,4.171,4.171,0,0,0-.917-1.29,4.371,4.371,0,0,0-3.038-1.2Z" transform="translate(-193.079 -387.722)" fill="#d91579"/>
      </g>
    </g>
    <text id="MANAGEMENT" transform="translate(239.737 383.443)" fill="#d91579" font-size="13" font-family="DINAlternate-Bold, DIN Alternate" font-weight="700"><tspan x="0" y="0">MANAGEMENT</tspan></text>
    <text id="CLOUD" transform="translate(239.701 400.225)" fill="#d91579" font-size="13" font-family="DINAlternate-Bold, DIN Alternate" font-weight="700"><tspan x="0" y="0">CLOUD</tspan></text>
  </g>
</svg>
