<svg xmlns="http://www.w3.org/2000/svg" width="200" height="200" viewBox="0 0 200 200">
  <g id="グループ_3071" data-name="グループ 3071" transform="translate(-474.322 -431.752)">
    <rect id="長方形_519" data-name="長方形 519" width="200" height="200" rx="8" transform="translate(474.322 431.752)" fill="#d91579"/>
    <g id="グループ_3070" data-name="グループ 3070" transform="translate(497.287 453.244)">
      <path id="パス_5698" data-name="パス 5698" d="M594.967,472.88a33.311,33.311,0,0,0-6.584-17.749l-2.617,9.072a27.648,27.648,0,0,1,2.352,9.181v.015c0,.017-.035.03-.032.047.01.193.01.389.018.585l.015,0a3.442,3.442,0,0,0,3.418,2.677,3.4,3.4,0,0,0,3.49-3.307A3.009,3.009,0,0,0,594.967,472.88Zm-72.456-3.954a28.889,28.889,0,0,0-11.235-2.255c-15.3,0-27.7,11.54-27.7,26.032s12.4,26.032,27.7,26.032l7.913.094a3.359,3.359,0,1,0,0-6.71c-.052,0-.1-.017-.156-.017h-7.757c-11.446,0-20.758-8.586-20.758-19.428s9.312-19.547,20.758-19.547a21.674,21.674,0,0,1,8.417,1.746l8.092,3.436,1.558-8.241c2.518-13.38,14.817-23.087,29.185-23.087a30.874,30.874,0,0,1,7.31.876l9.1-3.736a38.022,38.022,0,0,0-16.449-3.7C540.505,440.416,525.565,452.723,522.511,468.926Z" transform="translate(-483.58 -440.416)" fill="#fff"/>
      <g id="グループ_3068" data-name="グループ 3068" transform="translate(60.178 3.578)">
        <path id="パス_5699" data-name="パス 5699" d="M513.563,471.859,513.5,464.8l29-22.941-7.7,26.714-15.65-2.76Z" transform="translate(-499.458 -441.858)" fill="#fff"/>
        <path id="パス_5700" data-name="パス 5700" d="M516.8,462.607l-8.964-3.368,41.85-17.168Z" transform="translate(-507.839 -441.545)" fill="#fff"/>
      </g>
      <g id="グループ_3069" data-name="グループ 3069" transform="translate(40.595 43.986)">
        <path id="パス_5701" data-name="パス 5701" d="M517.572,489.659v-28.2a3.062,3.062,0,0,1,1-2.309,3.533,3.533,0,0,1,4.81,0,3.186,3.186,0,0,1,1.032,2.309v28.2a3.164,3.164,0,0,1-1.032,2.307,3.526,3.526,0,0,1-4.81,0A3.041,3.041,0,0,1,517.572,489.659Z" transform="translate(-473.846 -458.071)" fill="#fff"/>
        <path id="パス_5702" data-name="パス 5702" d="M544.65,489.692l-11.78-26.808a3.494,3.494,0,0,1-.328-1.459,3,3,0,0,1,.263-1.24,3.382,3.382,0,0,1,.719-1.039,3.228,3.228,0,0,1,1.079-.695,3.529,3.529,0,0,1,1.342-.251,3.6,3.6,0,0,1,1.9.541,3.432,3.432,0,0,1,1.342,1.6l9.2,20.8,9.2-20.857a3.685,3.685,0,0,1,1.131-1.5,3.3,3.3,0,0,1,2.079-.575,3.529,3.529,0,0,1,1.342.251,3.254,3.254,0,0,1,1.079.695,3.617,3.617,0,0,1,.737,1.039,2.864,2.864,0,0,1,.276,1.24,3.49,3.49,0,0,1-.357,1.459l-18.818,42.741a3.681,3.681,0,0,1-1.31,1.568,3.546,3.546,0,0,1-4.368-.33,3.076,3.076,0,0,1-.967-2.319,3.259,3.259,0,0,1,.327-1.429Z" transform="translate(-451.681 -458.071)" fill="#fff"/>
        <path id="パス_5703" data-name="パス 5703" d="M542.931,461.1a3.433,3.433,0,0,0-3.887-2.813.432.432,0,0,1-.082.017.611.611,0,0,0-.092,0,20.111,20.111,0,0,0-3.55.836,19.3,19.3,0,0,0-5.388,2.88v-.625a3.057,3.057,0,0,0-1.007-2.3,3.42,3.42,0,0,0-2.428-.955,3.455,3.455,0,0,0-2.463.955,3.05,3.05,0,0,0-1.01,2.3v28.549a3.046,3.046,0,0,0,1.01,2.3,3.434,3.434,0,0,0,2.463.955,3.4,3.4,0,0,0,2.428-.955,3.053,3.053,0,0,0,1.007-2.3V475.679a10.283,10.283,0,0,1,.908-4.294,11.052,11.052,0,0,1,2.481-3.488,11.822,11.822,0,0,1,3.686-2.349,10.6,10.6,0,0,1,2.907-.767v0a.311.311,0,0,0,.047,0A3.31,3.31,0,0,0,542.931,461.1Z" transform="translate(-465.774 -458.148)" fill="#fff"/>
        <path id="パス_5704" data-name="パス 5704" d="M529.76,489.692v-.618a19.069,19.069,0,0,1-5.333,2.848,18.691,18.691,0,0,1-6.154.992,18.137,18.137,0,0,1-12.959-5.085,16.711,16.711,0,0,1,0-24.543,19.054,19.054,0,0,1,25.918,0,16.272,16.272,0,0,1,5.37,12.267v14.14a3.016,3.016,0,0,1-1,2.275,3.57,3.57,0,0,1-4.845,0A3.009,3.009,0,0,1,529.76,489.692Zm-11.488-25.015a11.7,11.7,0,0,0-8.149,3.2,11.072,11.072,0,0,0-2.436,3.455,10.292,10.292,0,0,0,0,8.432,11.082,11.082,0,0,0,2.436,3.458,11.861,11.861,0,0,0,16.283-.017,11.2,11.2,0,0,0,2.456-3.456,10.276,10.276,0,0,0,0-8.4,11.183,11.183,0,0,0-2.456-3.453,11.684,11.684,0,0,0-8.134-3.222Z" transform="translate(-499.945 -458.071)" fill="#fff"/>
      </g>
    </g>
    <text id="MANAGEMENT" transform="translate(492.322 578.362)" fill="#fff" font-size="26" font-family="DINAlternate-Bold, DIN Alternate" font-weight="700"><tspan x="0" y="0">MANAGEMENT</tspan></text>
    <text id="CLOUD" transform="translate(531.322 611.419)" fill="#fff" font-size="29" font-family="DINAlternate-Bold, DIN Alternate" font-weight="700"><tspan x="0" y="0">CLOUD</tspan></text>
  </g>
</svg>
